<?xml version="1.0" encoding="utf-8"?>
<!-- Generator: Adobe Illustrator 17.0.0, SVG Export Plug-In . SVG Version: 6.00 Build 0)  -->
<!DOCTYPE svg PUBLIC "-//W3C//DTD SVG 1.1//EN" "http://www.w3.org/Graphics/SVG/1.1/DTD/svg11.dtd">
<svg version="1.1" id="Layer_1" xmlns="http://www.w3.org/2000/svg" xmlns:xlink="http://www.w3.org/1999/xlink" x="0px" y="0px"
	 width="24.548px" height="27px" viewBox="0 0 24.548 27" enable-background="new 0 0 24.548 27" xml:space="preserve">
<g>
	<path d="M1.013,0.256l9.286,11.741c0.29,0.381,0.402,0.87,0.402,1.467v0.111c0,0.598-0.112,1.087-0.402,1.467L1.013,26.783
		C0.923,26.892,0.789,27,0.677,27c-0.29,0-0.491-0.598-0.491-1.304c0-0.598,0.156-0.978,0.357-1.25l8.728-10.871L0.544,2.594
		c-0.201-0.272-0.357-0.653-0.357-1.25c0-0.706,0.201-1.304,0.491-1.304C0.789,0.04,0.923,0.148,1.013,0.256z"/>
	<path d="M14.86,0.256l9.286,11.741c0.29,0.381,0.402,0.87,0.402,1.467v0.111c0,0.598-0.112,1.087-0.402,1.467L14.86,26.783
		C14.771,26.892,14.636,27,14.525,27c-0.29,0-0.491-0.598-0.491-1.304c0-0.598,0.156-0.978,0.357-1.25l8.728-10.871L14.391,2.594
		c-0.201-0.272-0.357-0.653-0.357-1.25c0-0.706,0.201-1.304,0.491-1.304C14.636,0.04,14.771,0.148,14.86,0.256z"/>
</g>
</svg>
