<?xml version="1.0" encoding="utf-8"?>
<!-- Generator: Adobe Illustrator 17.0.0, SVG Export Plug-In . SVG Version: 6.00 Build 0)  -->
<!DOCTYPE svg PUBLIC "-//W3C//DTD SVG 1.1//EN" "http://www.w3.org/Graphics/SVG/1.1/DTD/svg11.dtd">
<svg version="1.1" id="Layer_1" xmlns="http://www.w3.org/2000/svg" xmlns:xlink="http://www.w3.org/1999/xlink" x="0px" y="0px"
	 width="24.548px" height="27px" viewBox="0 0 24.548 27" enable-background="new 0 0 24.548 27" xml:space="preserve">
<g>
	<path d="M24.057,0.04c0.29,0,0.491,0.598,0.491,1.304c0,0.598-0.156,0.978-0.357,1.25l-8.728,10.982l8.728,10.871
		c0.201,0.272,0.357,0.653,0.357,1.25c0,0.706-0.201,1.304-0.491,1.304c-0.112,0-0.246-0.108-0.335-0.217l-9.286-11.741
		c-0.29-0.381-0.402-0.87-0.402-1.467v-0.111c0-0.598,0.112-1.087,0.402-1.467l9.286-11.741C23.811,0.148,23.945,0.04,24.057,0.04z"
		/>
	<path d="M10.21,0.04c0.29,0,0.491,0.598,0.491,1.304c0,0.598-0.156,0.978-0.357,1.25L1.615,13.575l8.728,10.871
		c0.201,0.272,0.357,0.653,0.357,1.25C10.7,26.402,10.5,27,10.21,27c-0.112,0-0.246-0.108-0.335-0.217L0.588,15.042
		c-0.29-0.381-0.402-0.87-0.402-1.467v-0.111c0-0.598,0.112-1.087,0.402-1.467L9.874,0.256C9.963,0.148,10.098,0.04,10.21,0.04z"/>
</g>
</svg>
