<?xml version="1.0" encoding="utf-8"?>
<!-- Generator: Adobe Illustrator 17.0.2, SVG Export Plug-In . SVG Version: 6.00 Build 0)  -->
<!DOCTYPE svg PUBLIC "-//W3C//DTD SVG 1.1//EN" "http://www.w3.org/Graphics/SVG/1.1/DTD/svg11.dtd">
<svg version="1.1" id="Layer_4" xmlns="http://www.w3.org/2000/svg" xmlns:xlink="http://www.w3.org/1999/xlink" x="0px" y="0px"
	 width="243px" height="229px" viewBox="15.917 -7.5 243 229" enable-background="new 15.917 -7.5 243 229" xml:space="preserve">
<path d="M234.855,131.78l1.811-5.744c2.459-7.798-1.884-16.142-9.682-18.601l-7.039-2.219c0.824-10.794,1.93-49.304-20.897-75.612
	C185.21,13.658,165.133,5.321,139.294,4.826c-25.761,0.496-45.839,8.832-59.676,24.778C56.535,56.208,57.927,95.29,58.751,105.569
	l-5.92,1.867c-7.797,2.459-12.141,10.803-9.682,18.601l1.762,5.587c-8.253,6.287-11.259,19.973-7.102,33.3
	c4.216,13.513,14.421,23.006,24.971,23.364l1.238,3.926c1.956,6.204,7.637,10.372,14.137,10.372c1.51,0,3.011-0.232,4.463-0.69
	l16.647-5.25c3.778-1.19,6.865-3.781,8.694-7.295c1.829-3.513,2.18-7.527,0.988-11.305l-20.868-66.178
	c-1.956-6.204-7.637-10.372-14.137-10.372c-1.509,0-3.011,0.232-4.463,0.69l-6.788,2.14c-0.704-11.029-1.232-47.689,19.95-72.101
	c13.063-15.055,32.15-22.928,56.655-23.401c24.573,0.473,43.655,8.34,56.717,23.384c20.955,24.134,20.67,60.319,19.985,71.763
	l-5.661-1.785c-1.451-0.458-2.953-0.69-4.463-0.69c-6.5,0-12.182,4.169-14.137,10.372l-20.869,66.178
	c-1.191,3.777-0.84,7.792,0.989,11.306c1.829,3.513,4.916,6.104,8.693,7.294l16.647,5.25c1.451,0.458,2.953,0.69,4.463,0.69h0.001
	c6.5,0,12.181-4.168,14.136-10.372l1.243-3.941c10.452-0.511,20.519-9.952,24.699-23.349
	C245.862,151.711,242.947,138.14,234.855,131.78z M41.627,163.732c-3.446-11.046-1.529-22.242,4.484-27.924l15.081,48.34
	C53.031,182.871,45.042,174.679,41.627,163.732z M81.414,198.081c-1.062,0.335-2.159,0.505-3.26,0.505
	c-4.746,0-8.894-3.044-10.323-7.575l-20.869-66.178c-1.795-5.693,1.377-11.787,7.071-13.583l5.41-1.706l28.762,86.395
	L81.414,198.081z M70.682,106.001c1.062-0.335,2.159-0.505,3.26-0.505c4.746,0,8.894,3.044,10.323,7.575l20.868,66.178
	c0.87,2.758,0.613,5.689-0.722,8.255c-1.335,2.565-3.589,4.457-6.348,5.327l-6.041,1.905l-28.761-86.395L70.682,106.001z
	 M175.406,187.504c-1.335-2.565-1.592-5.497-0.723-8.255l20.869-66.178c1.429-4.531,5.576-7.575,10.322-7.575
	c1.101,0,2.198,0.17,3.26,0.505l6.386,2.014l-28.651,86.43l-5.115-1.613C178.995,191.961,176.742,190.069,175.406,187.504z
	 M211.984,191.011c-1.429,4.531-5.576,7.575-10.322,7.575c-1.102,0-2.198-0.17-3.26-0.505l-7.717-2.434l28.651-86.43l6.446,2.033
	c2.759,0.87,5.013,2.762,6.349,5.327c1.335,2.565,1.592,5.497,0.722,8.256l-2.01,6.376c-0.157,0.194-0.287,0.41-0.364,0.655
	l-14.6,46.799L211.984,191.011z M237.921,163.732c-3.415,10.947-11.403,19.14-19.565,20.416l1.33-4.263l13.862-43.961
	C239.471,141.64,241.344,152.758,237.921,163.732z"/>
</svg>
