<?xml version="1.0" encoding="utf-8"?>
<!-- Generator: Adobe Illustrator 17.1.0, SVG Export Plug-In . SVG Version: 6.00 Build 0)  -->
<!DOCTYPE svg PUBLIC "-//W3C//DTD SVG 1.1//EN" "http://www.w3.org/Graphics/SVG/1.1/DTD/svg11.dtd">
<svg version="1.1" id="Layer_4" xmlns="http://www.w3.org/2000/svg" xmlns:xlink="http://www.w3.org/1999/xlink" x="0px" y="0px"
	 viewBox="0 0 512 512" enable-background="new 0 0 512 512" xml:space="preserve">
<path d="M490.4,321l4.5-14.2c6.1-19.2-4.6-39.8-23.9-45.9l-17.4-5.5c2-26.6,4.8-121.6-51.5-186.4C368,29.8,318.5,9.2,254.8,8
	c-63.5,1.2-113,21.8-147.1,61.1c-56.9,65.6-53.5,162-51.5,187.3L41.6,261c-19.2,6.1-29.9,26.6-23.9,45.9l4.3,13.8
	C1.7,336.1-5.7,369.9,4.6,402.8c10.4,33.3,35.6,56.7,61.6,57.6l3.1,9.7c4.8,15.3,18.8,25.6,34.9,25.6c3.7,0,7.4-0.6,11-1.7l41-12.9
	c9.3-2.9,16.9-9.3,21.4-18c4.5-8.7,5.4-18.6,2.4-27.9l-51.5-163.2c-4.8-15.3-18.8-25.6-34.9-25.6c-3.7,0-7.4,0.6-11,1.7l-16.7,5.3
	c-1.7-27.2-3-117.6,49.2-177.8c32.2-37.1,79.3-56.5,139.7-57.7c60.6,1.2,107.6,20.6,139.8,57.7c51.7,59.5,51,148.7,49.3,176.9
	l-14-4.4c-3.6-1.1-7.3-1.7-11-1.7c-16,0-30,10.3-34.9,25.6l-51.5,163.2c-2.9,9.3-2.1,19.2,2.4,27.9c4.5,8.7,12.1,15.1,21.4,18
	l41,12.9c3.6,1.1,7.3,1.7,11,1.7h0c16,0,30-10.3,34.9-25.6l3.1-9.7c25.8-1.3,50.6-24.5,60.9-57.6C517.6,370.2,510.4,336.7,490.4,321
	z M14,399.8C5.5,372.6,10.2,345,25.1,331l37.2,119.2C42.1,447,22.4,426.8,14,399.8z M112.1,484.5c-2.6,0.8-5.3,1.2-8,1.2
	c-11.7,0-21.9-7.5-25.5-18.7L27.2,303.9c-4.4-14,3.4-29.1,17.4-33.5l13.3-4.2l70.9,213L112.1,484.5z M85.6,257.5
	c2.6-0.8,5.3-1.2,8-1.2c11.7,0,21.9,7.5,25.5,18.7l51.5,163.2c2.1,6.8,1.5,14-1.8,20.4c-3.3,6.3-8.8,11-15.7,13.1l-14.9,4.7
	l-70.9-213L85.6,257.5z M343.9,458.4c-3.3-6.3-3.9-13.6-1.8-20.4l51.5-163.2c3.5-11.2,13.7-18.7,25.5-18.7c2.7,0,5.4,0.4,8,1.2
	l15.7,5l-70.6,213.1l-12.6-4C352.7,469.4,347.1,464.8,343.9,458.4z M434,467.1c-3.5,11.2-13.7,18.7-25.5,18.7c-2.7,0-5.4-0.4-8-1.2
	l-19-6l70.6-213.1l15.9,5c6.8,2.1,12.4,6.8,15.7,13.1c3.3,6.3,3.9,13.6,1.8,20.4l-5,15.7c-0.4,0.5-0.7,1-0.9,1.6l-36,115.4
	L434,467.1z M498,399.8c-8.4,27-28.1,47.2-48.2,50.3l3.3-10.5l34.2-108.4C501.8,345.3,506.4,372.8,498,399.8z"/>
</svg>
