<?xml version="1.0" encoding="utf-8"?>
<!-- Generator: Adobe Illustrator 17.0.2, SVG Export Plug-In . SVG Version: 6.00 Build 0)  -->
<!DOCTYPE svg PUBLIC "-//W3C//DTD SVG 1.1//EN" "http://www.w3.org/Graphics/SVG/1.1/DTD/svg11.dtd">
<svg version="1.1" id="Layer_1" xmlns="http://www.w3.org/2000/svg" xmlns:xlink="http://www.w3.org/1999/xlink" x="0px" y="0px"
	 width="512px" height="512px" viewBox="0 0 512 512" enable-background="new 0 0 512 512" xml:space="preserve">
<g>
	<path fill="#010101" d="M352.264,304.064c-18.738,23.112-39.646,39.928-62.716,50.434l-7.471-15.728
		c18.352-10.53,34.012-23.629,46.988-39.29c12.976-15.666,19.463-31.524,19.463-47.577c0-3.164-0.983-5.535-2.949-7.108
		s-4.522-2.359-7.667-2.359c-17.036,1.83-26.209,2.752-27.524,2.752c-8.65,0-18.019-3.146-28.114-9.437
		c-10.088-6.291-15.138-17.043-15.138-32.243c0-12.846,4.196-23.728,12.582-32.636c8.393-8.914,20.318-13.369,35.781-13.369
		c18.087,0,33.422,7.023,46.005,21.08c12.583,14.052,18.874,31.844,18.874,53.384C380.379,256.915,371.01,280.951,352.264,304.064z
		 M216.355,305.052c-19.002,22.719-39.774,39.197-62.322,49.445l-7.471-15.728c18.351-10.53,34.012-23.5,46.988-38.896
		s19.463-31.124,19.463-47.184c0-2.9-0.786-5.333-2.359-7.299c-1.573-1.972-4.325-2.955-8.257-2.955
		c-16.772,1.83-25.951,2.752-27.524,2.752c-9.694,0-19.328-3.478-28.9-10.42c-9.567-6.948-14.352-17.24-14.352-30.866
		c0-10.752,3.735-21.172,11.206-31.26c7.471-10.093,19.992-15.138,37.551-15.138c18.874,0,34.344,7.286,46.398,21.866
		c12.06,14.572,18.087,31.057,18.087,49.445C244.863,256.915,235.365,282.333,216.355,305.052z"/>
</g>
</svg>
