<?xml version="1.0" encoding="utf-8"?>
<!-- Generator: Adobe Illustrator 17.0.2, SVG Export Plug-In . SVG Version: 6.00 Build 0)  -->
<!DOCTYPE svg PUBLIC "-//W3C//DTD SVG 1.1//EN" "http://www.w3.org/Graphics/SVG/1.1/DTD/svg11.dtd">
<svg version="1.1" id="Layer_1" xmlns="http://www.w3.org/2000/svg" xmlns:xlink="http://www.w3.org/1999/xlink" x="0px" y="0px"
	 width="512px" height="512px" viewBox="0 0 512 512" enable-background="new 0 0 512 512" xml:space="preserve">
<g>
	<path fill="#010101" d="M159.736,207.937c18.738-23.112,39.646-39.928,62.716-50.434l7.471,15.728
		c-18.352,10.53-34.012,23.629-46.988,39.29c-12.976,15.666-19.463,31.524-19.463,47.577c0,3.164,0.983,5.535,2.949,7.108
		s4.522,2.359,7.667,2.359c17.036-1.83,26.209-2.752,27.524-2.752c8.65,0,18.019,3.146,28.114,9.437
		c10.088,6.291,15.138,17.043,15.138,32.243c0,12.846-4.196,23.728-12.582,32.636c-8.393,8.914-20.318,13.369-35.781,13.369
		c-18.087,0-33.422-7.023-46.005-21.08c-12.582-14.051-18.874-31.843-18.874-53.383C131.622,255.085,140.99,231.049,159.736,207.937
		z M295.645,206.948c19.002-22.719,39.774-39.197,62.322-49.445l7.471,15.728c-18.351,10.53-34.012,23.5-46.988,38.896
		c-12.976,15.396-19.463,31.124-19.463,47.184c0,2.9,0.786,5.333,2.359,7.299c1.573,1.972,4.325,2.955,8.257,2.955
		c16.772-1.83,25.951-2.752,27.524-2.752c9.694,0,19.328,3.478,28.9,10.42c9.567,6.948,14.352,17.24,14.352,30.866
		c0,10.752-3.735,21.172-11.206,31.26c-7.471,10.093-19.992,15.138-37.551,15.138c-18.874,0-34.344-7.286-46.398-21.866
		c-12.06-14.572-18.087-31.057-18.087-49.445C267.137,255.085,276.635,229.667,295.645,206.948z"/>
</g>
</svg>
