<?xml version="1.0" encoding="utf-8"?>
<!-- Generator: Adobe Illustrator 17.0.2, SVG Export Plug-In . SVG Version: 6.00 Build 0)  -->
<!DOCTYPE svg PUBLIC "-//W3C//DTD SVG 1.1//EN" "http://www.w3.org/Graphics/SVG/1.1/DTD/svg11.dtd">
<svg version="1.1" id="Layer_1" xmlns="http://www.w3.org/2000/svg" xmlns:xlink="http://www.w3.org/1999/xlink" x="0px" y="0px"
	 width="53.625px" height="53px" viewBox="42.125 36.625 53.625 53" enable-background="new 42.125 36.625 53.625 53"
	 xml:space="preserve">
<g>
	<path fill="#010101" d="M43.079,37.456v51.305h51.825V37.456H43.079z M71.739,72.817l-3.954-5.881h-2.378v5.881h-5.439V53.399
		h9.278c2.995,0,5.07,0.777,6.385,2.107c1.153,1.111,1.741,2.61,1.741,4.522v0.057c0,2.968-1.604,4.936-4.042,5.964l4.682,6.768
		C78.012,72.817,71.739,72.817,71.739,72.817z"/>
	<path fill="#010101" d="M68.965,58.061h-3.559v4.658h3.585c1.851,0,2.916-0.887,2.916-2.301v-0.057
		C71.907,58.836,70.782,58.061,68.965,58.061z"/>
</g>
</svg>
