<?xml version="1.0" encoding="utf-8"?>
<!-- Generator: Adobe Illustrator 17.1.0, SVG Export Plug-In . SVG Version: 6.00 Build 0)  -->
<!DOCTYPE svg PUBLIC "-//W3C//DTD SVG 1.1//EN" "http://www.w3.org/Graphics/SVG/1.1/DTD/svg11.dtd">
<svg version="1.1" id="Layer_4" xmlns="http://www.w3.org/2000/svg" xmlns:xlink="http://www.w3.org/1999/xlink" x="0px" y="0px"
	 viewBox="0 0 512 512" enable-background="new 0 0 512 512" xml:space="preserve">
<g>
	<path fill="#010101" d="M57.9,157.1c38.6-47.6,81.6-82.2,129.1-103.8l15.4,32.4c-37.8,21.7-70,48.6-96.7,80.9
		c-26.7,32.2-40.1,64.9-40.1,97.9c0,6.5,2,11.4,6.1,14.6c4,3.2,9.3,4.9,15.8,4.9c35.1-3.8,53.9-5.7,56.7-5.7
		c17.8,0,37.1,6.5,57.9,19.4c20.8,12.9,31.2,35.1,31.2,66.4c0,26.4-8.6,48.8-25.9,67.2c-17.3,18.3-41.8,27.5-73.6,27.5
		c-37.2,0-68.8-14.5-94.7-43.4C13,386.4,0,349.8,0,305.5C0,254.1,19.3,204.6,57.9,157.1z M337.6,155
		c39.1-46.8,81.9-80.7,128.3-101.8l15.4,32.4c-37.8,21.7-70,48.4-96.7,80.1s-40.1,64.1-40.1,97.1c0,6,1.6,11,4.9,15
		c3.2,4.1,8.9,6.1,17,6.1c34.5-3.8,53.4-5.7,56.7-5.7c20,0,39.8,7.2,59.5,21.4c19.7,14.3,29.5,35.5,29.5,63.5
		c0,22.1-7.7,43.6-23.1,64.3c-15.4,20.8-41.1,31.2-77.3,31.2c-38.8,0-70.7-15-95.5-45c-24.8-30-37.2-63.9-37.2-101.8
		C278.9,254.1,298.5,201.8,337.6,155z"/>
</g>
</svg>
