<?xml version="1.0" encoding="utf-8"?>
<!-- Generator: Adobe Illustrator 17.1.0, SVG Export Plug-In . SVG Version: 6.00 Build 0)  -->
<!DOCTYPE svg PUBLIC "-//W3C//DTD SVG 1.1//EN" "http://www.w3.org/Graphics/SVG/1.1/DTD/svg11.dtd">
<svg version="1.1" id="Layer_4" xmlns="http://www.w3.org/2000/svg" xmlns:xlink="http://www.w3.org/1999/xlink" x="0px" y="0px"
	 viewBox="0 0 512 512" enable-background="new 0 0 512 512" xml:space="preserve">
<path d="M505.7,88.3c-0.1,0-0.1,0-0.2,0c4.3-5.3,6.5-11.1,6.5-17.1c0-16.2-15.9-30.3-46-40.7c-27.6-9.5-64.1-14.7-102.8-14.7
	S287.9,21,260.4,30.6c-30.1,10.4-46,24.5-46,40.7c0,5.2,1.7,10.2,4.9,15c-2.8,0.6-4.9,3.1-4.9,6.1v50.8c0,4.3,1.1,8.4,3.3,12.3
	c-1.9,1.1-3.3,3.1-3.3,5.5v20.6c-20.1-3.5-42.4-5.4-65.6-5.4c-38.8,0-75.3,5.2-102.8,14.7c-30.1,10.4-46,24.5-46,40.7
	c0,5.2,1.7,10.2,4.9,15c-2.8,0.6-4.9,3.1-4.9,6.1v50.8c0,4.3,1.1,8.4,3.3,12.3c-1.9,1.1-3.3,3.1-3.3,5.5v50.8
	c0,4.3,1.1,8.4,3.3,12.3c-1.9,1.1-3.3,3.1-3.3,5.5v50.8c0,16.2,15.9,30.3,46,40.7c27.6,9.5,64.1,14.7,102.8,14.7
	s75.3-5.2,102.8-14.7c30.1-10.4,46-24.5,46-40.7v-41.7c20.2,3.5,42.7,5.4,65.6,5.4c38.8,0,75.3-5.2,102.8-14.7
	c30.1-10.4,46-24.4,46-40.7v-48.6c0-2.8-1.8-5.1-4.3-5.9c2.9-4.5,4.3-9.2,4.3-14.1v-48.6c0-2.8-1.8-5.1-4.3-5.9
	c2.9-4.5,4.3-9.2,4.3-14.1v-48.6c0-2.8-1.8-5.1-4.3-5.9c2.9-4.5,4.3-9.2,4.3-14.1V94.6C512,91.1,509.2,88.3,505.7,88.3z
	 M499.5,280.4c0,20.3-56,42.9-136.3,42.9c-24.5,0-48.5-2.2-69.5-6.4c2.6-4.3,4-8.8,4-13.5v-41.7c20.3,3.5,42.7,5.4,65.6,5.4
	c38.8,0,75.3-5.2,102.8-14.7c14.5-5,25.7-10.9,33.5-17.5V280.4z M284.1,255.6c0.2,0.8,0.5,1.5,1,2.1v45.8c0,20.3-56,42.9-136.3,42.9
	S12.5,323.8,12.5,303.5v-48.7c7.7,6.6,18.9,12.5,33.5,17.5c27.6,9.5,64.1,14.7,102.8,14.7s75.3-5.2,102.8-14.7
	C265.6,267.5,276.5,261.8,284.1,255.6z M12.5,326.7c7.7,6.6,18.9,12.5,33.5,17.5c27.6,9.5,64.1,14.7,102.8,14.7s75.3-5.2,102.8-14.7
	c14.5-5,25.7-10.9,33.5-17.5v45.4c0,20.3-56,42.9-136.3,42.9S12.5,392.4,12.5,372.1C12.5,372.1,12.5,326.7,12.5,326.7z M226.9,94.5
	c7.7,6.6,18.9,12.5,33.5,17.5c27.6,9.5,64.1,14.7,102.8,14.7s75.3-5.2,102.8-14.7c14.5-5,25.7-10.9,33.5-17.5c0,0,0,0.1,0,0.1v48.6
	c0,20.3-56,42.9-136.3,42.9s-136.3-22.6-136.3-42.9L226.9,94.5L226.9,94.5z M363.2,28.3c80.3,0,136.3,22.6,136.3,42.9
	s-56,42.9-136.3,42.9S226.9,91.6,226.9,71.3S282.9,28.3,363.2,28.3z M226.9,166.4c7.7,6.6,18.9,12.5,33.5,17.5
	c27.6,9.5,64.1,14.7,102.8,14.7s75.3-5.2,102.8-14.7c14.5-5,25.7-10.9,33.5-17.5v45.4c0,20.3-56,42.9-136.3,42.9
	c-25.3,0-50-2.3-71.5-6.8c3.9-5.1,6-10.6,6-16.4c0-16.2-15.9-30.3-46-40.7c-7.6-2.6-15.9-4.9-24.8-6.9L226.9,166.4L226.9,166.4z
	 M148.8,188.7c26.5,0,50.3,2.5,70.3,6.5c0.2,0,0.3,0.1,0.5,0.1c40.5,8.2,65.5,22.8,65.5,36.3c0,20.3-56,42.9-136.3,42.9
	S12.5,251.9,12.5,231.6S68.5,188.7,148.8,188.7z M148.8,483.7c-80.3,0-136.3-22.6-136.3-42.9v-45.4c7.7,6.6,18.9,12.5,33.5,17.5
	c27.6,9.5,64.1,14.7,102.8,14.7s75.3-5.2,102.8-14.7c14.5-5,25.7-10.9,33.5-17.5v45.4C285.1,461.1,229.1,483.7,148.8,483.7z
	 M363.2,392c-24.5,0-48.5-2.2-69.6-6.4c2.6-4.3,4-8.8,4-13.5v-41.7c20.2,3.5,42.7,5.4,65.6,5.4c38.8,0,75.3-5.2,102.8-14.7
	c14.5-5,25.7-10.9,33.5-17.5v45.4C499.5,369.4,443.5,392,363.2,392z"/>
</svg>
