<?xml version="1.0" encoding="utf-8"?>
<!-- Generator: Adobe Illustrator 17.0.2, SVG Export Plug-In . SVG Version: 6.00 Build 0)  -->
<!DOCTYPE svg PUBLIC "-//W3C//DTD SVG 1.1//EN" "http://www.w3.org/Graphics/SVG/1.1/DTD/svg11.dtd">
<svg version="1.1" id="Layer_2" xmlns="http://www.w3.org/2000/svg" xmlns:xlink="http://www.w3.org/1999/xlink" x="0px" y="0px"
	 width="243px" height="229px" viewBox="15.917 -7.5 243 229" enable-background="new 15.917 -7.5 243 229" xml:space="preserve">
<path d="M211.673,57.358c-0.024,0-0.046,0.006-0.069,0.007c1.368-1.708,2.069-3.536,2.069-5.461c0-5.191-5.079-9.687-14.688-13.002
	c-8.807-3.039-20.476-4.712-32.857-4.712s-24.051,1.673-32.858,4.712c-9.608,3.315-14.688,7.812-14.688,13.002
	c0,1.674,0.536,3.274,1.573,4.787c-0.899,0.196-1.573,0.994-1.573,1.952v16.24c0,1.364,0.36,2.678,1.051,3.937
	c-0.623,0.339-1.051,0.991-1.051,1.75v6.571c-6.426-1.127-13.558-1.728-20.949-1.728c-12.382,0-24.051,1.673-32.858,4.712
	c-9.608,3.315-14.688,7.812-14.688,13.002c0,1.674,0.536,3.274,1.573,4.787c-0.899,0.196-1.573,0.994-1.573,1.952v16.239
	c0,1.364,0.36,2.679,1.051,3.938c-0.623,0.339-1.051,0.991-1.051,1.75v16.239c0,1.364,0.36,2.678,1.051,3.937
	c-0.623,0.339-1.051,0.991-1.051,1.75v16.24c0,5.191,5.079,9.688,14.688,13.003c8.808,3.038,20.477,4.712,32.858,4.712
	s24.051-1.674,32.857-4.712c9.608-3.315,14.688-7.812,14.688-13.003v-13.313c6.468,1.132,13.655,1.731,20.95,1.731
	c12.382,0,24.051-1.674,32.857-4.712c9.608-3.315,14.688-7.811,14.688-13.002v-15.525c0-0.89-0.585-1.635-1.388-1.895
	c0.915-1.43,1.388-2.936,1.388-4.508V103.21c0-0.89-0.585-1.635-1.388-1.895c0.915-1.43,1.388-2.937,1.388-4.508V81.286
	c0-0.89-0.585-1.635-1.388-1.895c0.915-1.43,1.388-2.937,1.388-4.508V59.358C213.673,58.253,212.777,57.358,211.673,57.358z
	 M209.673,118.738c0,6.486-17.883,13.714-43.545,13.714c-7.833,0-15.49-0.708-22.219-2.04c0.832-1.37,1.269-2.808,1.269-4.306
	v-13.308c6.472,1.133,13.651,1.727,20.95,1.727c12.382,0,24.051-1.674,32.857-4.712c4.646-1.603,8.222-3.485,10.688-5.585V118.738z
	 M140.872,110.798c0.061,0.241,0.164,0.467,0.306,0.667v14.641c0,6.487-17.883,13.715-43.545,13.715s-43.546-7.228-43.546-13.715
	v-15.56c2.466,2.1,6.042,3.981,10.688,5.584c8.808,3.038,20.477,4.712,32.858,4.712s24.051-1.674,32.857-4.712
	C134.949,114.592,138.419,112.797,140.872,110.798z M54.087,133.525c2.466,2.1,6.042,3.981,10.688,5.584
	c8.807,3.038,20.477,4.712,32.858,4.712s24.051-1.674,32.857-4.712c4.646-1.603,8.222-3.484,10.688-5.584v14.509
	c0,6.487-17.883,13.715-43.545,13.715s-43.546-7.228-43.546-13.715C54.087,148.034,54.087,133.525,54.087,133.525z M122.583,59.323
	c2.466,2.1,6.042,3.981,10.688,5.584c8.807,3.039,20.477,4.712,32.858,4.712s24.051-1.673,32.857-4.712
	c4.648-1.604,8.225-3.486,10.691-5.587c0,0.013-0.004,0.025-0.004,0.039v15.525c0,6.487-17.883,13.714-43.545,13.714
	s-43.546-7.228-43.546-13.714V59.323H122.583z M166.128,38.19c25.662,0,43.545,7.228,43.545,13.714s-17.883,13.714-43.545,13.714
	s-43.546-7.228-43.546-13.714S140.465,38.19,166.128,38.19z M122.583,82.301c2.466,2.1,6.042,3.981,10.688,5.584
	c8.808,3.039,20.477,4.712,32.858,4.712s24.051-1.673,32.857-4.712c4.646-1.603,8.222-3.484,10.688-5.584V96.81
	c0,6.487-17.883,13.715-43.545,13.715c-8.069,0-15.969-0.747-22.855-2.16c1.253-1.644,1.904-3.396,1.904-5.237
	c0-5.191-5.079-9.687-14.688-13.002c-2.431-0.839-5.086-1.569-7.908-2.194L122.583,82.301L122.583,82.301z M97.633,89.414
	c8.459,0,16.065,0.789,22.472,2.074c0.052,0.013,0.104,0.023,0.157,0.031c12.936,2.62,20.916,7.278,20.916,11.609
	c0,6.487-17.883,13.714-43.545,13.714s-43.546-7.228-43.546-13.714S71.971,89.414,97.633,89.414z M97.633,183.677
	c-25.662,0-43.546-7.228-43.546-13.715v-14.509c2.466,2.1,6.042,3.981,10.688,5.584c8.808,3.038,20.477,4.712,32.858,4.712
	s24.051-1.674,32.857-4.712c4.646-1.603,8.222-3.484,10.688-5.584v14.509C141.178,176.449,123.295,183.677,97.633,183.677z
	 M166.128,154.38c-7.819,0-15.495-0.705-22.222-2.034c0.835-1.372,1.272-2.812,1.272-4.311v-13.309
	c6.466,1.132,13.644,1.727,20.95,1.727c12.382,0,24.051-1.674,32.857-4.712c4.646-1.603,8.222-3.484,10.688-5.584v14.51
	C209.673,147.152,191.79,154.38,166.128,154.38z"/>
</svg>
