<?xml version="1.0" encoding="utf-8"?>
<!-- Generator: Adobe Illustrator 17.0.2, SVG Export Plug-In . SVG Version: 6.00 Build 0)  -->
<!DOCTYPE svg PUBLIC "-//W3C//DTD SVG 1.1//EN" "http://www.w3.org/Graphics/SVG/1.1/DTD/svg11.dtd">
<svg version="1.1" id="Layer_1" xmlns="http://www.w3.org/2000/svg" xmlns:xlink="http://www.w3.org/1999/xlink" x="0px" y="0px"
	 width="53.75px" height="53.25px" viewBox="41.75 36.375 53.75 53.25" enable-background="new 41.75 36.375 53.75 53.25"
	 xml:space="preserve">
<path fill="#010101" d="M42.95,37.431v51.304h51.823V37.431H42.95z M69.577,73.18c-5.604,0-10.119-4.246-10.119-10.042v-0.055
	c0-5.66,4.403-10.096,10.339-10.096c4.011,0,6.589,1.663,8.326,4.048l-4.091,3.135c-1.121-1.387-2.41-2.271-4.287-2.271
	c-2.747,0-4.683,2.3-4.683,5.13v0.055c0,2.915,1.936,5.185,4.683,5.185c2.045,0,3.25-0.943,4.423-2.356l4.094,2.883
	C76.414,71.322,73.92,73.18,69.577,73.18z"/>
</svg>
