<?xml version="1.0" encoding="utf-8"?>
<!-- Generator: Adobe Illustrator 17.0.2, SVG Export Plug-In . SVG Version: 6.00 Build 0)  -->
<!DOCTYPE svg PUBLIC "-//W3C//DTD SVG 1.1//EN" "http://www.w3.org/Graphics/SVG/1.1/DTD/svg11.dtd">
<svg version="1.1" id="Layer_1" xmlns="http://www.w3.org/2000/svg" xmlns:xlink="http://www.w3.org/1999/xlink" x="0px" y="0px"
	 width="62.572px" height="62.572px" viewBox="0 0 62.572 62.572" enable-background="new 0 0 62.572 62.572" xml:space="preserve">
<g>
	<path d="M31.387,41.022c4.262,0,6.71-1.843,8.524-4.35l-4.018-2.861c-1.151,1.402-2.334,2.338-4.341,2.338
		c-2.695,0-4.596-2.253-4.596-5.144V30.95c0-2.808,1.901-5.09,4.596-5.09c1.842,0,3.107,0.877,4.207,2.253l4.015-3.11
		c-1.705-2.367-4.235-4.017-8.171-4.017c-5.826,0-10.147,4.402-10.147,10.017v0.054C21.456,36.81,25.886,41.022,31.387,41.022z"/>
	<path d="M0,0v62.572h62.572V0H0z M56.823,56.823H5.749V5.748h51.074C56.823,5.748,56.823,56.823,56.823,56.823z"/>
</g>
</svg>
