<?xml version="1.0" encoding="utf-8"?>
<!-- Generator: Adobe Illustrator 17.0.2, SVG Export Plug-In . SVG Version: 6.00 Build 0)  -->
<!DOCTYPE svg PUBLIC "-//W3C//DTD SVG 1.1//EN" "http://www.w3.org/Graphics/SVG/1.1/DTD/svg11.dtd">
<svg version="1.1" id="Layer_5" xmlns="http://www.w3.org/2000/svg" xmlns:xlink="http://www.w3.org/1999/xlink" x="0px" y="0px"
	 width="312px" height="263px" viewBox="-64 -25 312 263" enable-background="new -64 -25 312 263" xml:space="preserve">
<g>
	<polyline points="129.1,134.278 61.04,134.278 61.04,139.441 128.975,139.441 	"/>
	<path d="M179.873,16.061h-20.956V1.978c0-6.627-5.357-12.018-11.943-12.018s-11.943,5.391-11.943,12.018v14.083H50.758V1.405
		c0-6.626-5.357-12.017-11.943-12.017S26.87-5.221,26.87,1.405V16.06H5.659c-8.157,0-14.794,6.637-14.794,14.794v174.215
		c0,8.157,6.637,14.794,14.794,14.794h174.214c8.158,0,14.795-6.637,14.795-14.794V30.855
		C194.668,22.697,188.031,16.061,179.873,16.061z M139.53,1.978c0-4.146,3.339-7.518,7.443-7.518s7.443,3.372,7.443,7.518v32.667
		c0,4.145-3.339,7.517-7.443,7.517s-7.443-3.372-7.443-7.517V1.978z M31.37,1.405c0-4.145,3.339-7.517,7.443-7.517
		s7.443,3.372,7.443,7.517v32.667c0,4.146-3.339,7.518-7.443,7.518s-7.443-3.372-7.443-7.518V1.405z M5.659,20.561H26.87v13.512
		c0,6.627,5.357,12.018,11.943,12.018S50.756,40.7,50.756,34.073V20.561h84.273v14.084c0,6.626,5.357,12.017,11.943,12.017
		s11.943-5.391,11.943-12.017V20.561h20.956c5.677,0,10.295,4.618,10.295,10.294v31.7H-4.166c-0.161,0-0.317,0.018-0.469,0.051
		V30.855C-4.635,25.179-0.017,20.561,5.659,20.561z M179.873,215.363H5.659c-5.676,0-10.294-4.618-10.294-10.294V67.004
		c0.151,0.032,0.308,0.051,0.469,0.051h194.334V205.07C190.168,210.745,185.549,215.363,179.873,215.363z"/>
</g>
<polyline points="97.652,170.89 97.652,102.829 92.489,102.829 92.489,170.765 "/>
</svg>
