<?xml version="1.0" encoding="utf-8"?>
<!-- Generator: Adobe Illustrator 17.1.0, SVG Export Plug-In . SVG Version: 6.00 Build 0)  -->
<!DOCTYPE svg PUBLIC "-//W3C//DTD SVG 1.1//EN" "http://www.w3.org/Graphics/SVG/1.1/DTD/svg11.dtd">
<svg version="1.1" id="Layer_4" xmlns="http://www.w3.org/2000/svg" xmlns:xlink="http://www.w3.org/1999/xlink" x="0px" y="0px"
	 viewBox="0 0 512 512" enable-background="new 0 0 512 512" xml:space="preserve">
<g>
	<g>
		<polyline points="336.7,321.9 185.5,321.9 185.5,333.3 336.4,333.3 		"/>
		<path d="M449.5,59.3H403V28c0-14.7-11.9-26.7-26.5-26.7s-26.5,12-26.5,26.7v31.3H162.7V26.7C162.7,12,150.8,0,136.1,0
			s-26.5,12-26.5,26.7v32.6H62.5c-18.1,0-32.9,14.7-32.9,32.9v387c0,18.1,14.7,32.9,32.9,32.9h387c18.1,0,32.9-14.7,32.9-32.9v-387
			C482.4,74,467.6,59.3,449.5,59.3z M359.9,28c0-9.2,7.4-16.7,16.5-16.7S393,18.8,393,28v72.6c0,9.2-7.4,16.7-16.5,16.7
			s-16.5-7.5-16.5-16.7V28z M119.6,26.7c0-9.2,7.4-16.7,16.5-16.7s16.5,7.5,16.5,16.7v72.6c0,9.2-7.4,16.7-16.5,16.7
			s-16.5-7.5-16.5-16.7C119.6,99.3,119.6,26.7,119.6,26.7z M62.5,69.3h47.1v30c0,14.7,11.9,26.7,26.5,26.7c14.6,0,26.5-12,26.5-26.7
			v-30h187.2v31.3c0,14.7,11.9,26.7,26.5,26.7c14.6,0,26.5-12,26.5-26.7V69.3h46.6c12.6,0,22.9,10.3,22.9,22.9v70.4H40.7
			c-0.4,0-0.7,0-1,0.1V92.1C39.6,79.5,49.9,69.3,62.5,69.3z M449.5,502h-387c-12.6,0-22.9-10.3-22.9-22.9V172.4
			c0.3,0.1,0.7,0.1,1,0.1h431.7v306.6C472.4,491.7,462.1,502,449.5,502z"/>
	</g>
	<polyline points="266.9,403.2 266.9,252 255.4,252 255.4,402.9 	"/>
</g>
</svg>
