<?xml version="1.0" encoding="utf-8"?>
<!-- Generator: Adobe Illustrator 17.0.2, SVG Export Plug-In . SVG Version: 6.00 Build 0)  -->
<!DOCTYPE svg PUBLIC "-//W3C//DTD SVG 1.1//EN" "http://www.w3.org/Graphics/SVG/1.1/DTD/svg11.dtd">
<svg version="1.1" id="Layer_7" xmlns="http://www.w3.org/2000/svg" xmlns:xlink="http://www.w3.org/1999/xlink" x="0px" y="0px"
	 width="312px" height="263px" viewBox="-64 -25 312 263" enable-background="new -64 -25 312 263" xml:space="preserve">
<g>
	<polygon points="55.065,90.942 122.437,90.942 68.038,198.475 74.077,198.475 129.017,89.072 129.017,85.779 55.065,85.779 	"/>
	<path d="M179.148,15.061h-20.956V0.978c0-6.627-5.357-12.018-11.943-12.018s-11.943,5.391-11.943,12.018v14.083H50.033V0.405
		c0-6.626-5.357-12.017-11.943-12.017S26.147-6.221,26.147,0.405V15.06H4.935c-8.157,0-14.794,6.637-14.794,14.794v174.215
		c0,8.157,6.637,14.794,14.794,14.794h174.214c8.158,0,14.795-6.637,14.795-14.794V29.855
		C193.943,21.697,187.307,15.061,179.148,15.061z M138.806,0.978c0-4.146,3.339-7.518,7.443-7.518s7.443,3.372,7.443,7.518v32.667
		c0,4.145-3.339,7.517-7.443,7.517s-7.443-3.372-7.443-7.517V0.978z M30.646,0.405c0-4.145,3.339-7.517,7.443-7.517
		s7.443,3.372,7.443,7.517v32.667c0,4.146-3.339,7.518-7.443,7.518s-7.443-3.372-7.443-7.518V0.405z M4.935,19.561h21.211v13.512
		c0,6.627,5.357,12.018,11.943,12.018S50.032,39.7,50.032,33.073V19.561h84.273v14.084c0,6.626,5.357,12.017,11.943,12.017
		s11.943-5.391,11.943-12.017V19.561h20.956c5.677,0,10.295,4.618,10.295,10.294v31.7H-4.891c-0.161,0-0.317,0.018-0.469,0.051
		V29.855C-5.359,24.179-0.741,19.561,4.935,19.561z M179.148,214.363H4.935c-5.676,0-10.294-4.618-10.294-10.294V66.004
		c0.151,0.032,0.308,0.051,0.469,0.051h194.334V204.07C189.443,209.745,184.825,214.363,179.148,214.363z"/>
</g>
</svg>
