<?xml version="1.0" encoding="utf-8"?>
<!-- Generator: Adobe Illustrator 17.1.0, SVG Export Plug-In . SVG Version: 6.00 Build 0)  -->
<!DOCTYPE svg PUBLIC "-//W3C//DTD SVG 1.1//EN" "http://www.w3.org/Graphics/SVG/1.1/DTD/svg11.dtd">
<svg version="1.1" id="Layer_4" xmlns="http://www.w3.org/2000/svg" xmlns:xlink="http://www.w3.org/1999/xlink" x="0px" y="0px"
	 viewBox="0 0 512 512" enable-background="new 0 0 512 512" xml:space="preserve">
<g>
	<polygon points="144.2,227.8 293.9,227.8 173,466.7 186.5,466.7 308.5,223.7 308.5,216.4 144.2,216.4 	"/>
	<path d="M419.9,59.3h-46.6V28c0-14.7-11.9-26.7-26.5-26.7c-14.6,0-26.5,12-26.5,26.7v31.3H133.1V26.7C133.1,12,121.1,0,106.5,0
		S80,12,80,26.7v32.6H32.9C14.7,59.3,0,74,0,92.1v387C0,497.3,14.7,512,32.9,512h387c18.1,0,32.9-14.7,32.9-32.9v-387
		C452.7,74,438,59.3,419.9,59.3z M330.3,28c0-9.2,7.4-16.7,16.5-16.7s16.5,7.5,16.5,16.7v72.6c0,9.2-7.4,16.7-16.5,16.7
		s-16.5-7.5-16.5-16.7V28z M90,26.7c0-9.2,7.4-16.7,16.5-16.7s16.5,7.5,16.5,16.7v72.6c0,9.2-7.4,16.7-16.5,16.7S90,108.5,90,99.3
		V26.7z M32.9,69.3H80v30C80,114,91.9,126,106.5,126S133,114,133,99.3v-30h187.2v31.3c0,14.7,11.9,26.7,26.5,26.7s26.5-12,26.5-26.7
		V69.3h46.6c12.6,0,22.9,10.3,22.9,22.9v70.4H11c-0.4,0-0.7,0-1,0.1V92.1C10,79.5,20.3,69.3,32.9,69.3z M419.9,502h-387
		C20.3,502,10,491.7,10,479.1V172.4c0.3,0.1,0.7,0.1,1,0.1h431.7v306.6C442.7,491.7,432.5,502,419.9,502z"/>
</g>
</svg>
