<?xml version="1.0" encoding="utf-8"?>
<!-- Generator: Adobe Illustrator 17.1.0, SVG Export Plug-In . SVG Version: 6.00 Build 0)  -->
<!DOCTYPE svg PUBLIC "-//W3C//DTD SVG 1.1//EN" "http://www.w3.org/Graphics/SVG/1.1/DTD/svg11.dtd">
<svg version="1.1" id="Layer_4" xmlns="http://www.w3.org/2000/svg" xmlns:xlink="http://www.w3.org/1999/xlink" x="0px" y="0px"
	 viewBox="0 0 512 512" enable-background="new 0 0 512 512" xml:space="preserve">
<g>
	<g>
		<polyline points="118.5,307.6 0,307.6 0,316.6 118.3,316.6 		"/>
		<path d="M486.2,101.8h-36.5V77.3c0-11.5-9.3-20.9-20.8-20.9c-11.5,0-20.8,9.4-20.8,20.9v24.5H261.5V76.3
			c0-11.5-9.3-20.9-20.8-20.9s-20.8,9.4-20.8,20.9v25.5H183c-14.2,0-25.8,11.6-25.8,25.8v303.3c0,14.2,11.6,25.8,25.8,25.8h303.3
			c14.2,0,25.8-11.6,25.8-25.8V127.6C512,113.4,500.4,101.8,486.2,101.8z M416,77.3c0-7.2,5.8-13.1,13-13.1c7.1,0,13,5.9,13,13.1
			v56.9c0,7.2-5.8,13.1-13,13.1c-7.1,0-13-5.9-13-13.1V77.3z M227.7,76.3c0-7.2,5.8-13.1,13-13.1c7.1,0,13,5.9,13,13.1v56.9
			c0,7.2-5.8,13.1-13,13.1c-7.1,0-13-5.9-13-13.1V76.3z M183,109.7h36.9v23.5c0,11.5,9.3,20.9,20.8,20.9s20.8-9.4,20.8-20.9v-23.5
			h146.7v24.5c0,11.5,9.3,20.9,20.8,20.9c11.5,0,20.8-9.4,20.8-20.9v-24.5h36.5c9.9,0,17.9,8,17.9,17.9v55.2H165.9
			c-0.3,0-0.6,0-0.8,0.1v-55.3C165.1,117.7,173.1,109.7,183,109.7z M486.2,448.8H183c-9.9,0-17.9-8-17.9-17.9V190.5
			c0.3,0.1,0.5,0.1,0.8,0.1h338.3v240.3C504.2,440.7,496.1,448.8,486.2,448.8z"/>
	</g>
	<polyline points="63.7,371.3 63.7,252.9 54.7,252.9 54.7,371.1 	"/>
</g>
</svg>
