<?xml version="1.0" encoding="utf-8"?>
<!-- Generator: Adobe Illustrator 17.0.2, SVG Export Plug-In . SVG Version: 6.00 Build 0)  -->
<!DOCTYPE svg PUBLIC "-//W3C//DTD SVG 1.1//EN" "http://www.w3.org/Graphics/SVG/1.1/DTD/svg11.dtd">
<svg version="1.1" id="Layer_6" xmlns="http://www.w3.org/2000/svg" xmlns:xlink="http://www.w3.org/1999/xlink" x="0px" y="0px"
	 width="312px" height="263px" viewBox="-64 -25 312 263" enable-background="new -64 -25 312 263" xml:space="preserve">
<g>
	<polyline points="14.114,139.415 -53.947,139.415 -53.947,144.579 13.989,144.579 	"/>
	<path d="M225.378,21.198h-20.956V7.115c0-6.627-5.357-12.018-11.943-12.018s-11.943,5.391-11.943,12.018v14.083H96.263V6.543
		c0-6.626-5.357-12.017-11.943-12.017S72.377-0.083,72.377,6.543v14.655H51.166c-8.157,0-14.794,6.637-14.794,14.794v174.215
		c0,8.157,6.637,14.794,14.794,14.794H225.38c8.158,0,14.795-6.637,14.795-14.794V35.992
		C240.173,27.835,233.536,21.198,225.378,21.198z M185.035,7.115c0-4.146,3.339-7.518,7.443-7.518s7.443,3.372,7.443,7.518v32.667
		c0,4.145-3.339,7.517-7.443,7.517s-7.443-3.372-7.443-7.517V7.115z M76.875,6.543c0-4.145,3.339-7.517,7.443-7.517
		s7.443,3.372,7.443,7.517V39.21c0,4.146-3.339,7.518-7.443,7.518s-7.443-3.372-7.443-7.518V6.543z M51.164,25.698h21.211V39.21
		c0,6.627,5.357,12.018,11.943,12.018s11.943-5.391,11.943-12.018V25.698h84.273v14.084c0,6.626,5.357,12.017,11.943,12.017
		s11.943-5.391,11.943-12.017V25.698h20.956c5.677,0,10.295,4.618,10.295,10.294v31.7H41.339c-0.161,0-0.317,0.018-0.469,0.051
		V35.992C40.87,30.317,45.488,25.698,51.164,25.698z M225.378,220.501H51.164c-5.676,0-10.294-4.618-10.294-10.294V72.142
		c0.151,0.032,0.308,0.051,0.469,0.051h194.334v138.015C235.673,215.883,231.055,220.501,225.378,220.501z"/>
</g>
<polyline points="-17.335,176.027 -17.335,107.967 -22.498,107.967 -22.498,175.902 "/>
</svg>
