<?xml version="1.0" encoding="utf-8"?>
<!-- Generator: Adobe Illustrator 17.0.2, SVG Export Plug-In . SVG Version: 6.00 Build 0)  -->
<!DOCTYPE svg PUBLIC "-//W3C//DTD SVG 1.1//EN" "http://www.w3.org/Graphics/SVG/1.1/DTD/svg11.dtd">
<svg version="1.1" id="Layer_8" xmlns="http://www.w3.org/2000/svg" xmlns:xlink="http://www.w3.org/1999/xlink" x="0px" y="0px"
	 width="312px" height="263px" viewBox="-64 -25 312 263" enable-background="new -64 -25 312 263" xml:space="preserve">
<path d="M180.096,1.451H4.512c-8.126,0-14.737,6.611-14.737,14.737v175.584c0,8.126,6.611,14.737,14.737,14.737h145.682h29.902
	h2.685c6.646,0,12.053-5.407,12.053-12.053v-2.685v-14.607v-23.35v-17.292v-20.358V98.872V78.597V61.306V39.141V21.849v-5.661
	C194.834,8.062,188.222,1.451,180.096,1.451z M190.334,136.523v17.292c0,4.165-3.388,7.553-7.553,7.553h-30.337v-33.151h30.337
	c2.858,0,5.484-1.005,7.553-2.674V136.523z M190.334,98.873v17.292c0,4.164-3.388,7.552-7.553,7.552h-30.337V90.65h30.337
	c2.858,0,5.484-1.005,7.553-2.674V98.873z M190.334,61.306v17.292c0,4.165-3.388,7.553-7.553,7.553h-30.337V51.194h30.337
	c2.858,0,5.484-1.005,7.553-2.674V61.306z M190.334,16.188v5.661v17.292c0,4.165-3.388,7.553-7.553,7.553h-32.587
	c-1.242,0-2.25,1.008-2.25,2.25V202.01H34.64V5.951h145.456C185.741,5.951,190.334,10.544,190.334,16.188z M-5.725,191.772V16.188
	c0-5.645,4.593-10.237,10.237-10.237H30.14V202.01H4.512C-1.132,202.01-5.725,197.417-5.725,191.772z M152.444,202.01v-36.142
	h30.337c2.858,0,5.484-1.005,7.553-2.674v13.971v14.607c0,5.645-4.593,10.237-10.237,10.237h-27.653V202.01z"/>
</svg>
