<?xml version="1.0" encoding="utf-8"?>
<!-- Generator: Adobe Illustrator 17.0.0, SVG Export Plug-In . SVG Version: 6.00 Build 0)  -->
<!DOCTYPE svg PUBLIC "-//W3C//DTD SVG 1.1//EN" "http://www.w3.org/Graphics/SVG/1.1/DTD/svg11.dtd">
<svg version="1.1" id="Layer_1" xmlns="http://www.w3.org/2000/svg" xmlns:xlink="http://www.w3.org/1999/xlink" x="0px" y="0px"
	 width="62px" height="57.848px" viewBox="0 0 62 57.848" enable-background="new 0 0 62 57.848" xml:space="preserve">
<path d="M30.917,0C13.869,0,0,11.593,0,25.842c0,6.672,3.085,12.923,8.707,17.686L2.35,56.219c-0.196,0.392-0.123,0.865,0.182,1.18
	c0.199,0.204,0.467,0.312,0.74,0.312c0.147,0,0.295-0.031,0.434-0.096l16.82-7.828c3.328,0.975,6.821,1.469,10.39,1.469
	c17.047,0,30.917-11.401,30.917-25.414C61.833,11.593,47.964,0,30.917,0z M17.922,28.208c-1.853,0-3.36-1.508-3.36-3.36
	c0-1.853,1.508-3.36,3.36-3.36c1.853,0,3.36,1.508,3.36,3.36C21.283,26.701,19.775,28.208,17.922,28.208z M30.917,28.208
	c-1.853,0-3.36-1.508-3.36-3.36c0-1.853,1.507-3.36,3.36-3.36s3.36,1.508,3.36,3.36C34.277,26.701,32.77,28.208,30.917,28.208z
	 M43.91,28.208c-1.853,0-3.36-1.508-3.36-3.36c0-1.853,1.507-3.36,3.36-3.36s3.36,1.508,3.36,3.36
	C47.271,26.701,45.763,28.208,43.91,28.208z"/>
</svg>
