<?xml version="1.0" encoding="utf-8"?>
<!-- Generator: Adobe Illustrator 17.0.2, SVG Export Plug-In . SVG Version: 6.00 Build 0)  -->
<!DOCTYPE svg PUBLIC "-//W3C//DTD SVG 1.1//EN" "http://www.w3.org/Graphics/SVG/1.1/DTD/svg11.dtd">
<svg version="1.1" id="Layer_4" xmlns="http://www.w3.org/2000/svg" xmlns:xlink="http://www.w3.org/1999/xlink" x="0px" y="0px"
	 width="312px" height="263px" viewBox="-64 -25 312 263" enable-background="new -64 -25 312 263" xml:space="preserve">
<g>
	<path d="M87.104-7.373c-61.244,0-111.07,49.826-111.07,111.071c0,61.244,49.826,111.07,111.07,111.07
		c61.245,0,111.071-49.826,111.071-111.07C198.175,42.453,148.349-7.373,87.104-7.373z M87.104,210.268
		c-58.763,0-106.57-47.808-106.57-106.57c0-58.764,47.807-106.571,106.57-106.571s106.571,47.808,106.571,106.571
		S145.867,210.268,87.104,210.268z"/>
	<path d="M108.114,57.966c-1.155-0.459-2.463,0.105-2.922,1.261L89.354,99.115V32.057c0-1.242-1.007-2.25-2.25-2.25
		s-2.25,1.008-2.25,2.25v78.82c0,1.08,0.767,2.007,1.827,2.21c0.142,0.027,0.284,0.04,0.424,0.04c0.907,0,1.745-0.551,2.09-1.42
		l20.18-50.82C109.833,59.732,109.269,58.424,108.114,57.966z"/>
</g>
</svg>
