<?xml version="1.0" encoding="utf-8"?>
<!-- Generator: Adobe Illustrator 17.1.0, SVG Export Plug-In . SVG Version: 6.00 Build 0)  -->
<!DOCTYPE svg PUBLIC "-//W3C//DTD SVG 1.1//EN" "http://www.w3.org/Graphics/SVG/1.1/DTD/svg11.dtd">
<svg version="1.1" id="Layer_4" xmlns="http://www.w3.org/2000/svg" xmlns:xlink="http://www.w3.org/1999/xlink" x="0px" y="0px"
	 viewBox="0 0 512 512" enable-background="new 0 0 512 512" xml:space="preserve">
<g>
	<path d="M256,0C114.8,0,0,114.8,0,256c0,141.2,114.8,256,256,256c141.2,0,256-114.8,256-256C512,114.8,397.2,0,256,0z M256,501.6
		C120.6,501.6,10.4,391.4,10.4,256C10.4,120.6,120.6,10.4,256,10.4S501.6,120.6,501.6,256S391.4,501.6,256,501.6z"/>
	<path d="M304.4,150.6c-2.7-1.1-5.7,0.2-6.7,2.9l-36.5,91.9V90.9c0-2.9-2.3-5.2-5.2-5.2c-2.9,0-5.2,2.3-5.2,5.2v181.7
		c0,2.5,1.8,4.6,4.2,5.1c0.3,0.1,0.7,0.1,1,0.1c2.1,0,4-1.3,4.8-3.3l46.5-117.1C308.4,154.7,307.1,151.7,304.4,150.6z"/>
</g>
</svg>
