<?xml version="1.0" encoding="utf-8"?>
<!-- Generator: Adobe Illustrator 17.1.0, SVG Export Plug-In . SVG Version: 6.00 Build 0)  -->
<!DOCTYPE svg PUBLIC "-//W3C//DTD SVG 1.1//EN" "http://www.w3.org/Graphics/SVG/1.1/DTD/svg11.dtd">
<svg version="1.1" id="Layer_4" xmlns="http://www.w3.org/2000/svg" xmlns:xlink="http://www.w3.org/1999/xlink" x="0px" y="0px"
	 viewBox="0 0 512 512" enable-background="new 0 0 512 512" xml:space="preserve">
<g>
	<path d="M407.1,416.5H294.8c-5.3,0-9.6-4.3-9.6-9.6v-76.1c0-5.3,4.3-9.6,9.6-9.6h28.1l-65.4-65.5L192,321.2h28.1
		c5.3,0,9.6,4.3,9.6,9.6v76.1c0,5.3-4.3,9.6-9.6,9.6H104.9c-57.7,0-104.7-47-104.7-104.8C0.2,254,47.2,207,104.9,207
		c2.7,0,5.4,0.1,8.3,0.4c21-66.2,82.7-111.8,152.8-111.8c70.1,0,132,45.8,152.9,112.2c52.6,5.9,92.9,50.3,92.9,104
		C511.8,369.5,464.8,416.5,407.1,416.5z M304.4,397.3h102.8c47.1,0,85.5-38.4,85.5-85.6c0-45.8-35.8-83.2-81.5-85.4
		c-4.2-0.2-7.7-3.1-8.8-7.1c-16.5-61.6-72.6-104.6-136.3-104.6c-64.3,0-120.4,43.4-136.6,105.6c-1.2,4.8-5.9,7.9-10.8,7.1
		c-5-0.8-9.5-1.2-13.7-1.2c-47.1,0-85.5,38.4-85.5,85.6s38.3,85.6,85.5,85.6h105.7v-56.9h-41.7c-3.9,0-7.4-2.3-8.9-5.9
		c-1.5-3.6-0.7-7.7,2.1-10.5l88.6-88.7c3.7-3.7,9.8-3.7,13.6,0l88.6,88.7c2.7,2.7,3.6,6.9,2.1,10.5c-1.5,3.6-5,5.9-8.9,5.9h-41.7
		L304.4,397.3L304.4,397.3z"/>
</g>
</svg>
