<?xml version="1.0" encoding="utf-8"?>
<!-- Generator: Adobe Illustrator 17.1.0, SVG Export Plug-In . SVG Version: 6.00 Build 0)  -->
<!DOCTYPE svg PUBLIC "-//W3C//DTD SVG 1.1//EN" "http://www.w3.org/Graphics/SVG/1.1/DTD/svg11.dtd">
<svg version="1.1" id="Layer_4" xmlns="http://www.w3.org/2000/svg" xmlns:xlink="http://www.w3.org/1999/xlink" x="0px" y="0px"
	 viewBox="0 0 512 512" enable-background="new 0 0 512 512" xml:space="preserve">
<path d="M494,49.9l-24.4-24.4c-6.7-6.7-15.6-10.4-25.1-10.4c-6.8,0-13.2,1.9-18.8,5.4l-10.2-10.2c-13.8-13.8-36.3-13.8-50.1,0
	L253.7,122.2c-2.2,2.2-2.2,5.8,0,8c1.1,1.1,2.6,1.7,4,1.7s2.9-0.6,4-1.7L373.5,18.4c9.4-9.4,24.7-9.4,34,0l9.6,9.6L113.9,331.2
	c-11.3,11.3-13.4,28.5-6.1,41.9c-51.8-2.9-66.1,41.3-78.9,80.8c-5.7,17.6-11.6,35.7-20.4,49.4c-0.1,0.1-0.1,0.2-0.2,0.4
	c-0.1,0.2-0.2,0.3-0.3,0.5c-0.1,0.2-0.1,0.3-0.2,0.5c-0.1,0.2-0.1,0.3-0.2,0.5c0,0.2-0.1,0.3-0.1,0.5c0,0.2,0,0.3-0.1,0.5
	c0,0.2,0,0.3,0,0.5c0,0.2,0,0.3,0,0.5c0,0.2,0.1,0.3,0.1,0.5c0,0.2,0.1,0.3,0.1,0.5c0.1,0.2,0.1,0.3,0.2,0.5
	c0.1,0.1,0.1,0.3,0.2,0.4c0.1,0.2,0.2,0.4,0.3,0.5c0.1,0.1,0.1,0.2,0.2,0.3c0,0,0,0,0,0c0.2,0.3,0.5,0.6,0.8,0.8c0,0,0,0,0,0
	c0.5,0.4,1,0.6,1.5,0.8c0.1,0.1,0.3,0.1,0.4,0.1c0.5,0.2,1.1,0.3,1.6,0.3c0,0,0,0,0,0h0h0c0,0,0,0,0,0c0.5,0,0.9-0.1,1.4-0.2
	c0.1,0,0.2-0.1,0.4-0.1c0.4-0.1,0.9-0.3,1.2-0.6c0,0,0.1,0,0.1,0c13.6-8.8,31.8-14.7,49.4-20.4c39.4-12.8,83.6-27.2,80.8-78.9
	c5.1,2.8,10.9,4.3,16.9,4.3c9.5,0,18.4-3.7,25.1-10.4L494,100C507.9,86.2,507.9,63.7,494,49.9z M62.2,479.9
	c-7.3,2.4-14.7,4.8-21.9,7.4l42-42c2.2-2.2,2.2-5.8,0-8c-2.2-2.2-5.8-2.2-8,0l-42,42c2.6-7.2,5-14.6,7.4-21.9
	c14.1-43.5,26.3-81.1,78.7-71.5l15.4,15.4C143.3,453.6,105.7,465.8,62.2,479.9z M180.4,397.6c-4.5,4.5-10.6,7-17,7
	c-6.4,0-12.5-2.5-17-7l-3.2-3.2c0,0,0,0-0.1-0.1l-17.8-17.8c0,0,0,0,0,0l-3.2-3.2c-9.4-9.4-9.4-24.7,0-34l195.8-195.8l58.4,58.4
	L180.4,397.6z M486,92L384.2,193.8l-58.4-58.4L427.6,33.6c4.5-4.5,10.6-7.1,17-7.1s12.5,2.5,17,7.1L486,58
	C495.4,67.4,495.4,82.6,486,92z"/>
</svg>
