<?xml version="1.0" encoding="utf-8"?>
<!-- Generator: Adobe Illustrator 17.0.2, SVG Export Plug-In . SVG Version: 6.00 Build 0)  -->
<!DOCTYPE svg PUBLIC "-//W3C//DTD SVG 1.1//EN" "http://www.w3.org/Graphics/SVG/1.1/DTD/svg11.dtd">
<svg version="1.1" id="Layer_1" xmlns="http://www.w3.org/2000/svg" xmlns:xlink="http://www.w3.org/1999/xlink" x="0px" y="0px"
	 width="243px" height="229px" viewBox="15.917 -7.5 243 229" enable-background="new 15.917 -7.5 243 229" xml:space="preserve">
<path d="M217.551,41.979l-8.583-8.583c-2.356-2.356-5.488-3.654-8.82-3.654c-2.377,0-4.646,0.671-6.61,1.905l-3.599-3.599
	c-4.864-4.864-12.777-4.863-17.64,0L132.928,67.42c-0.781,0.781-0.781,2.047,0,2.828c0.391,0.391,0.902,0.586,1.414,0.586
	s1.024-0.195,1.414-0.586l39.371-39.372c3.304-3.303,8.679-3.304,11.984,0l3.368,3.368L83.732,140.991
	c-3.989,3.989-4.7,10.027-2.146,14.754c-18.218-1.027-23.282,14.547-27.781,28.428c-2.005,6.187-4.079,12.584-7.183,17.387
	c-0.026,0.04-0.042,0.083-0.065,0.125c-0.034,0.061-0.07,0.121-0.096,0.185c-0.023,0.054-0.037,0.11-0.055,0.165
	c-0.019,0.06-0.041,0.119-0.054,0.18c-0.013,0.06-0.018,0.121-0.026,0.181c-0.007,0.059-0.017,0.117-0.019,0.175
	c-0.002,0.061,0.003,0.121,0.007,0.182c0.003,0.059,0.004,0.118,0.012,0.177c0.009,0.061,0.025,0.119,0.039,0.179
	c0.014,0.057,0.024,0.114,0.043,0.17c0.021,0.062,0.05,0.122,0.077,0.182c0.022,0.05,0.041,0.1,0.068,0.149
	c0.035,0.064,0.08,0.124,0.122,0.184c0.025,0.036,0.044,0.074,0.072,0.108c0.004,0.005,0.009,0.008,0.013,0.013
	c0.085,0.103,0.179,0.199,0.286,0.286c0.003,0.003,0.008,0.003,0.011,0.006c0.161,0.129,0.341,0.222,0.529,0.294
	c0.046,0.018,0.09,0.032,0.136,0.046c0.188,0.057,0.381,0.097,0.578,0.097c0.001,0,0.002,0,0.003,0h0.001h0.001
	c0.001,0,0.002,0,0.003,0c0.166,0,0.33-0.029,0.491-0.07c0.042-0.011,0.083-0.023,0.124-0.037c0.153-0.05,0.301-0.114,0.44-0.201
	c0.009-0.005,0.018-0.007,0.027-0.012c4.803-3.104,11.2-5.178,17.386-7.183c13.879-4.499,29.447-9.56,28.428-27.773
	c1.801,0.977,3.827,1.499,5.934,1.499c3.332,0,6.464-1.298,8.82-3.653L217.552,59.619C222.415,54.756,222.415,46.842,217.551,41.979
	z M65.541,193.337c-2.569,0.833-5.173,1.677-7.708,2.606l14.782-14.783c0.781-0.781,0.781-2.047,0-2.828
	c-0.78-0.781-2.048-0.781-2.828,0l-14.782,14.782c0.929-2.535,1.773-5.139,2.606-7.708c4.961-15.307,9.261-28.536,27.709-25.187
	l5.409,5.409C94.08,184.074,80.849,188.375,65.541,193.337z M107.127,164.387c-1.601,1.601-3.729,2.481-5.992,2.481
	s-4.391-0.881-5.992-2.481l-1.134-1.134c-0.007-0.007-0.014-0.014-0.022-0.022l-6.281-6.281c-0.002-0.002-0.004-0.004-0.006-0.006
	l-1.141-1.14c-3.303-3.304-3.303-8.681,0-11.984l68.945-68.945l20.567,20.567L107.127,164.387z M214.723,56.791L178.9,92.614
	l-20.567-20.567l35.823-35.823c1.601-1.601,3.729-2.482,5.992-2.482s4.391,0.881,5.992,2.482l8.583,8.583
	C218.026,48.111,218.026,53.487,214.723,56.791z"/>
</svg>
