<?xml version="1.0" encoding="utf-8"?>
<!-- Generator: Adobe Illustrator 17.0.2, SVG Export Plug-In . SVG Version: 6.00 Build 0)  -->
<!DOCTYPE svg PUBLIC "-//W3C//DTD SVG 1.1//EN" "http://www.w3.org/Graphics/SVG/1.1/DTD/svg11.dtd">
<svg version="1.1" id="Layer_1" xmlns="http://www.w3.org/2000/svg" xmlns:xlink="http://www.w3.org/1999/xlink" x="0px" y="0px"
	 width="178.304px" height="237.5px" viewBox="0 0 178.304 237.5" enable-background="new 0 0 178.304 237.5" xml:space="preserve">
<g>
	<path d="M127.427,132.167V113.57c0-1.242-1.008-2.25-2.25-2.25H61.215c-1.242,0-2.25,1.008-2.25,2.25v18.598
		c0,1.242,1.008,2.25,2.25,2.25h10.931l9.76,100.303c0.112,1.153,1.081,2.032,2.239,2.032h14.481c1.134,0,2.091-0.844,2.232-1.969
		l12.659-100.366h11.659C126.419,134.417,127.427,133.41,127.427,132.167z M122.927,129.917h-11.394
		c-1.134,0-2.091,0.844-2.232,1.969L96.642,232.252H86.187l-9.76-100.303c-0.112-1.153-1.081-2.032-2.239-2.032H63.465V115.82
		h59.462V129.917z"/>
	<path d="M86.782,107.214c2.058,0.469,4.161,0.707,6.254,0.707c0.001,0,0.001,0,0.002,0c13.112,0,24.315-8.908,27.294-21.683
		c0.604-1.705,4.212-13.756-6.059-34.066c-0.249-0.547-6.007-13.453,2.747-19.798c0.915-0.663,1.196-1.901,0.658-2.895
		c-0.539-0.992-1.729-1.434-2.784-1.028c-0.412,0.158-7.697,3.029-12.802,10.028c0.752-2.006,2.023-4.39,4.091-7.16
		c7.029-9.421,3.707-18.948,1.722-24.641c-0.522-1.499-0.975-2.795-1.127-3.717c-0.191-1.151-1.226-1.977-2.395-1.875
		c-1.163,0.091-2.064,1.056-2.075,2.223c-0.001,0.09-0.205,9.061-10.897,19.267c-0.336,0.321-0.952,0.822-1.667,1.402
		c-6.776,5.505-24.777,20.13-24.692,52.589c0.001,0.246,0.041,0.483,0.115,0.706C65.19,92.731,73.423,104.17,86.782,107.214z
		 M92.582,27.471c0.821-0.667,1.471-1.194,1.937-1.639c5.528-5.277,8.57-10.35,10.243-14.338c1.5,4.992,2.348,11.059-2.186,17.134
		c-9.823,13.166-4.506,20.445-4.275,20.748c0.526,0.69,1.4,1.017,2.252,0.839c0.85-0.179,1.521-0.829,1.725-1.673
		c1.062-4.383,3.423-7.75,5.922-10.231c-1.274,5.88,0.345,12.176,2.021,15.814c9.896,19.573,5.897,30.54,5.862,30.633
		c-0.044,0.109-0.079,0.222-0.104,0.337c-2.459,10.791-11.894,18.326-22.942,18.326c-1.757,0-3.524-0.2-5.254-0.594
		c-11.548-2.632-18.317-12.43-18.11-26.21c0.004-0.264-0.038-0.519-0.119-0.757C69.731,46.038,86.311,32.567,92.582,27.471z"/>
	<path d="M145.836,195.917c-0.229-0.158-5.662-3.881-11.145-3.881c-0.77,0-1.517,0.073-2.223,0.218
		c-0.119,0.023-0.301,0.051-0.533,0.087c-14.02,2.168-16.529,9.761-16.166,15.747c0.058,0.943,0.697,1.749,1.602,2.02
		c0.26,0.078,6.415,1.901,11.505,1.901c0,0,0,0,0.001,0c3.222,0,5.446-0.72,6.8-2.201c5.397-5.902,9.19-9.61,10.019-10.102
		c0.661-0.389,1.079-1.089,1.107-1.855C146.832,197.084,146.467,196.355,145.836,195.917z M132.356,206.771
		c-0.112,0.124-0.81,0.738-3.479,0.738c-0.001,0-0.001,0-0.001,0c-2.988,0-6.575-0.773-8.606-1.281
		c0.393-5.122,4.453-8.218,12.354-9.44c0.326-0.05,0.58-0.091,0.746-0.125c0.409-0.083,0.854-0.126,1.322-0.126
		c2.1,0,4.312,0.816,5.964,1.607C137.91,200.753,134.213,204.741,132.356,206.771z"/>
	<path d="M168.133,165.353c-0.073-0.014-1.825-0.321-4.152-0.321c-2.75,0-6.636,0.443-9.525,2.552
		c-0.098,0.071-0.251,0.171-0.446,0.3c-11.85,7.805-10.972,15.754-8.149,21.049c0.395,0.74,1.162,1.191,1.984,1.191
		c0.104,0,0.208-0.007,0.312-0.021c13.582-1.895,16.08-6.52,16.521-7.892c2.451-7.612,4.356-12.562,4.905-13.354
		c0.439-0.63,0.528-1.439,0.234-2.148C169.524,165.999,168.889,165.488,168.133,165.353z M160.394,180.832
		c-0.441,1.371-5.044,3.464-11.211,4.553c-1.787-4.829,0.615-9.339,7.301-13.742c0.274-0.181,0.487-0.323,0.624-0.423
		c1.911-1.395,4.792-1.688,6.873-1.688c0.125,0,0.247,0.001,0.367,0.003C162.938,173.049,161.237,178.212,160.394,180.832z"/>
	<path d="M177.609,148.187c-0.864-6.963-1.37-13.058-1.176-14.177c0.134-0.756-0.127-1.527-0.691-2.048
		c-0.565-0.52-1.357-0.716-2.099-0.521c-0.342,0.091-8.416,2.275-11.467,7.786c-0.059,0.106-0.156,0.262-0.279,0.462
		c-7.456,12.069-3.312,18.908,1.478,22.521c0.399,0.302,0.876,0.454,1.354,0.454c0.424,0,0.849-0.119,1.221-0.36
		C177.469,154.864,177.786,149.619,177.609,148.187z M164.894,157.593c-3.655-3.627-3.376-8.729,0.831-15.539
		c0.173-0.28,0.307-0.499,0.389-0.646c1.143-2.065,3.706-3.615,5.857-4.58c0.201,3.782,0.834,9.184,1.172,11.913
		C173.321,150.17,170.028,154.007,164.894,157.593z"/>
	<path d="M168.97,129.937c0.175,0.042,0.353,0.062,0.527,0.062c0.741,0,1.449-0.367,1.872-1.002
		c7.606-11.412,5.808-16.351,5.075-17.593c-3.564-6.043-6.455-11.433-6.724-12.536c-0.178-0.746-0.725-1.351-1.449-1.603
		c-0.726-0.253-1.53-0.117-2.132,0.357c-0.278,0.22-6.815,5.438-7.418,11.707c-0.012,0.12-0.04,0.301-0.073,0.533
		C156.613,123.905,163.137,128.53,168.97,129.937z M163.102,110.509c0.048-0.325,0.083-0.578,0.099-0.748
		c0.227-2.349,1.961-4.791,3.55-6.531c1.69,3.39,4.421,8.092,5.818,10.461c0.732,1.241-0.761,6.071-4.043,11.404
		C163.728,123.224,161.953,118.433,163.102,110.509z"/>
	<path d="M47.267,195.316c-0.233-0.036-0.414-0.063-0.534-0.088c-0.704-0.144-1.451-0.216-2.22-0.216
		c-5.482,0-10.917,3.722-11.146,3.88c-0.63,0.437-0.99,1.165-0.964,1.931c0.027,0.766,0.445,1.467,1.104,1.858
		c0.976,0.579,5.282,4.922,10.019,10.103c1.354,1.481,3.579,2.201,6.802,2.201c5.089,0,11.244-1.823,11.504-1.901
		c0.904-0.271,1.544-1.076,1.602-2.019C63.796,205.077,61.286,197.484,47.267,195.316z M50.327,210.485
		c-2.671,0-3.368-0.615-3.481-0.738c-1.855-2.03-5.552-6.018-8.297-8.627c1.652-0.792,3.864-1.607,5.964-1.607
		c0.467,0,0.911,0.042,1.32,0.125c0.166,0.034,0.42,0.075,0.746,0.125c7.901,1.223,11.962,4.317,12.354,9.441
		C56.902,209.711,53.315,210.485,50.327,210.485z"/>
	<path d="M33.343,191.908c2.822-5.293,3.7-13.242-8.146-21.048c-0.197-0.13-0.351-0.229-0.449-0.301
		c-2.89-2.109-6.775-2.553-9.525-2.553c-2.327,0-4.079,0.308-4.152,0.321c-0.754,0.135-1.386,0.647-1.68,1.354
		s-0.205,1.52,0.23,2.149c0.55,0.792,2.455,5.742,4.905,13.354c0.441,1.372,2.939,5.997,16.521,7.892
		c0.104,0.015,0.208,0.021,0.312,0.021C32.181,193.099,32.948,192.648,33.343,191.908z M30.02,188.36
		c-6.167-1.089-10.77-3.182-11.211-4.553c-0.843-2.619-2.544-7.783-3.954-11.298c2.13-0.029,5.214,0.206,7.24,1.685
		c0.137,0.1,0.35,0.242,0.625,0.424C29.405,179.022,31.807,183.532,30.02,188.36z"/>
	<path d="M14.474,165.639c0.478,0,0.955-0.152,1.354-0.454c4.79-3.612,8.935-10.451,1.478-22.521
		c-0.123-0.2-0.221-0.355-0.279-0.461c-3.05-5.512-11.124-7.695-11.466-7.786c-0.742-0.195-1.53,0.005-2.094,0.521
		c-0.564,0.518-0.826,1.291-0.696,2.046c0.164,0.948-0.192,6.24-1.176,14.178c-0.178,1.431,0.138,6.677,11.658,14.116
		C13.626,165.52,14.05,165.639,14.474,165.639z M6.061,151.716c0.338-2.732,0.97-8.139,1.171-11.92
		c2.147,0.959,4.708,2.508,5.857,4.586c0.082,0.147,0.216,0.367,0.389,0.647c4.208,6.811,4.486,11.912,0.83,15.539
		C9.174,156.988,5.882,153.151,6.061,151.716z"/>
	<path d="M9.705,132.974c0.175,0,0.353-0.021,0.527-0.062c5.831-1.407,12.355-6.031,10.322-20.07
		c-0.033-0.233-0.062-0.415-0.073-0.536c-0.604-6.27-7.14-11.487-7.418-11.707c-0.602-0.474-1.405-0.605-2.128-0.355
		c-0.724,0.25-1.271,0.855-1.453,1.6c-0.228,0.938-2.662,5.65-6.725,12.539c-0.731,1.241-2.53,6.18,5.075,17.591
		C8.256,132.607,8.964,132.974,9.705,132.974z M6.635,116.667c1.397-2.37,4.128-7.073,5.818-10.462
		c1.589,1.741,3.323,4.183,3.55,6.531c0.016,0.169,0.051,0.424,0.099,0.75c1.146,7.923-0.629,12.714-5.426,14.585
		C7.393,122.742,5.901,117.912,6.635,116.667z"/>
</g>
</svg>
