<?xml version="1.0" encoding="utf-8"?>
<!-- Generator: Adobe Illustrator 17.1.0, SVG Export Plug-In . SVG Version: 6.00 Build 0)  -->
<!DOCTYPE svg PUBLIC "-//W3C//DTD SVG 1.1//EN" "http://www.w3.org/Graphics/SVG/1.1/DTD/svg11.dtd">
<svg version="1.1" id="Layer_4" xmlns="http://www.w3.org/2000/svg" xmlns:xlink="http://www.w3.org/1999/xlink" x="0px" y="0px"
	 viewBox="0 0 512 512" enable-background="new 0 0 512 512" xml:space="preserve">
<g>
	<path d="M338.2,284.8v-40.4c0-2.7-2.2-4.9-4.9-4.9h-139c-2.7,0-4.9,2.2-4.9,4.9v40.4c0,2.7,2.2,4.9,4.9,4.9h23.7l21.2,217.9
		c0.2,2.5,2.3,4.4,4.9,4.4h31.5c2.5,0,4.5-1.8,4.8-4.3l27.5-218h25.3C336,289.7,338.2,287.5,338.2,284.8z M328.4,279.9h-24.8
		c-2.5,0-4.5,1.8-4.8,4.3l-27.5,218h-22.7l-21.2-217.9c-0.2-2.5-2.3-4.4-4.9-4.4h-23.3v-30.6h129.2V279.9z"/>
	<path d="M249.9,230.6c4.5,1,9,1.5,13.6,1.5c0,0,0,0,0,0c28.5,0,52.8-19.4,59.3-47.1c1.3-3.7,9.2-29.9-13.2-74
		c-0.5-1.2-13.1-29.2,6-43c2-1.4,2.6-4.1,1.4-6.3c-1.2-2.2-3.8-3.1-6-2.2c-0.9,0.3-16.7,6.6-27.8,21.8c1.6-4.4,4.4-9.5,8.9-15.6
		c15.3-20.5,8.1-41.2,3.7-53.5c-1.1-3.3-2.1-6.1-2.4-8.1c-0.4-2.5-2.7-4.3-5.2-4.1c-2.5,0.2-4.5,2.3-4.5,4.8
		c0,0.2-0.4,19.7-23.7,41.9c-0.7,0.7-2.1,1.8-3.6,3c-14.7,12-53.8,43.7-53.6,114.2c0,0.5,0.1,1,0.2,1.5
		C203,199.1,220.9,224,249.9,230.6z M262.5,57.3c1.8-1.4,3.2-2.6,4.2-3.6c12-11.5,18.6-22.5,22.3-31.1c3.3,10.8,5.1,24-4.7,37.2
		c-21.3,28.6-9.8,44.4-9.3,45.1c1.1,1.5,3,2.2,4.9,1.8c1.8-0.4,3.3-1.8,3.7-3.6c2.3-9.5,7.4-16.8,12.9-22.2
		c-2.8,12.8,0.7,26.5,4.4,34.4c21.5,42.5,12.8,66.3,12.7,66.5c-0.1,0.2-0.2,0.5-0.2,0.7c-5.3,23.4-25.8,39.8-49.8,39.8
		c-3.8,0-7.7-0.4-11.4-1.3c-25.1-5.7-39.8-27-39.3-56.9c0-0.6-0.1-1.1-0.3-1.6C212.8,97.7,248.9,68.4,262.5,57.3z"/>
	<path d="M378.2,423.3c-0.5-0.3-12.3-8.4-24.2-8.4c-1.7,0-3.3,0.2-4.8,0.5c-0.3,0-0.7,0.1-1.2,0.2c-30.5,4.7-35.9,21.2-35.1,34.2
		c0.1,2,1.5,3.8,3.5,4.4c0.6,0.2,13.9,4.1,25,4.1c0,0,0,0,0,0c7,0,11.8-1.6,14.8-4.8c11.7-12.8,20-20.9,21.8-21.9
		c1.4-0.8,2.3-2.4,2.4-4C380.3,425.8,379.5,424.2,378.2,423.3z M348.9,446.9c-0.2,0.3-1.8,1.6-7.6,1.6c0,0,0,0,0,0
		c-6.5,0-14.3-1.7-18.7-2.8c0.9-11.1,9.7-17.9,26.8-20.5c0.7-0.1,1.3-0.2,1.6-0.3c0.9-0.2,1.9-0.3,2.9-0.3c4.6,0,9.4,1.8,13,3.5
		C360.9,433.8,352.9,442.5,348.9,446.9z"/>
	<path d="M426.6,356.9c-0.2,0-4-0.7-9-0.7c-6,0-14.4,1-20.7,5.5c-0.2,0.2-0.5,0.4-1,0.7c-25.7,17-23.8,34.2-17.7,45.7
		c0.9,1.6,2.5,2.6,4.3,2.6c0.2,0,0.5,0,0.7,0c29.5-4.1,34.9-14.2,35.9-17.1c5.3-16.5,9.5-27.3,10.7-29c1-1.4,1.1-3.1,0.5-4.7
		C429.6,358.3,428.2,357.2,426.6,356.9z M409.8,390.5c-1,3-11,7.5-24.4,9.9c-3.9-10.5,1.3-20.3,15.9-29.9c0.6-0.4,1.1-0.7,1.4-0.9
		c4.2-3,10.4-3.7,14.9-3.7c0.3,0,0.5,0,0.8,0C415.3,373.6,411.6,384.8,409.8,390.5z"/>
	<path d="M447.2,319.6c-1.9-15.1-3-28.4-2.6-30.8c0.3-1.6-0.3-3.3-1.5-4.4c-1.2-1.1-2.9-1.6-4.6-1.1c-0.7,0.2-18.3,4.9-24.9,16.9
		c-0.1,0.2-0.3,0.6-0.6,1c-16.2,26.2-7.2,41.1,3.2,48.9c0.9,0.7,1.9,1,2.9,1c0.9,0,1.8-0.3,2.7-0.8
		C446.9,334.1,447.6,322.7,447.2,319.6z M419.6,340c-7.9-7.9-7.3-19,1.8-33.8c0.4-0.6,0.7-1.1,0.8-1.4c2.5-4.5,8.1-7.9,12.7-9.9
		c0.4,8.2,1.8,20,2.5,25.9C437.9,323.9,430.7,332.2,419.6,340z"/>
	<path d="M428.4,279.9c0.4,0.1,0.8,0.1,1.1,0.1c1.6,0,3.1-0.8,4.1-2.2c16.5-24.8,12.6-35.5,11-38.2c-7.7-13.1-14-24.8-14.6-27.2
		c-0.4-1.6-1.6-2.9-3.1-3.5c-1.6-0.5-3.3-0.3-4.6,0.8c-0.6,0.5-14.8,11.8-16.1,25.4c0,0.3-0.1,0.7-0.2,1.2
		C401.6,266.8,415.8,276.9,428.4,279.9z M415.7,237.7c0.1-0.7,0.2-1.3,0.2-1.6c0.5-5.1,4.3-10.4,7.7-14.2
		c3.7,7.4,9.6,17.6,12.6,22.7c1.6,2.7-1.7,13.2-8.8,24.8C417,265.4,413.2,255,415.7,237.7z"/>
	<path d="M164,422c-0.5-0.1-0.9-0.1-1.2-0.2c-1.5-0.3-3.2-0.5-4.8-0.5c-11.9,0-23.7,8.1-24.2,8.4c-1.4,0.9-2.2,2.5-2.1,4.2
		c0.1,1.7,1,3.2,2.4,4c2.1,1.3,11.5,10.7,21.8,21.9c2.9,3.2,7.8,4.8,14.8,4.8c11.1,0,24.4-4,25-4.1c2-0.6,3.4-2.3,3.5-4.4
		C199.9,443.2,194.5,426.7,164,422z M170.7,454.9c-5.8,0-7.3-1.3-7.6-1.6c-4-4.4-12.1-13.1-18-18.7c3.6-1.7,8.4-3.5,13-3.5
		c1,0,2,0.1,2.9,0.3c0.4,0.1,0.9,0.2,1.6,0.3c17.2,2.7,26,9.4,26.8,20.5C185,453.3,177.2,454.9,170.7,454.9z"/>
	<path d="M133.8,414.6c6.1-11.5,8-28.8-17.7-45.7c-0.4-0.3-0.8-0.5-1-0.7c-6.3-4.6-14.7-5.5-20.7-5.5c-5.1,0-8.9,0.7-9,0.7
		c-1.6,0.3-3,1.4-3.6,2.9s-0.4,3.3,0.5,4.7c1.2,1.7,5.3,12.5,10.7,29c1,3,6.4,13,35.9,17.1c0.2,0,0.5,0,0.7,0
		C131.3,417.2,132.9,416.2,133.8,414.6z M126.6,406.9c-13.4-2.4-23.4-6.9-24.4-9.9c-1.8-5.7-5.5-16.9-8.6-24.5
		c4.6-0.1,11.3,0.4,15.7,3.7c0.3,0.2,0.8,0.5,1.4,0.9C125.2,386.6,130.4,396.4,126.6,406.9z"/>
	<path d="M92.8,357.5c1,0,2.1-0.3,2.9-1c10.4-7.8,19.4-22.7,3.2-48.9c-0.3-0.4-0.5-0.8-0.6-1c-6.6-12-24.2-16.7-24.9-16.9
		c-1.6-0.4-3.3,0-4.5,1.1c-1.2,1.1-1.8,2.8-1.5,4.4c0.4,2.1-0.4,13.6-2.6,30.8c-0.4,3.1,0.3,14.5,25.3,30.7
		C90.9,357.2,91.9,357.5,92.8,357.5z M74.5,327.3c0.7-5.9,2.1-17.7,2.5-25.9c4.7,2.1,10.2,5.4,12.7,10c0.2,0.3,0.5,0.8,0.8,1.4
		c9.1,14.8,9.7,25.9,1.8,33.8C81.3,338.7,74.1,330.4,74.5,327.3z"/>
	<path d="M82.4,286.5c0.4,0,0.8,0,1.1-0.1c12.7-3.1,26.8-13.1,22.4-43.6c-0.1-0.5-0.1-0.9-0.2-1.2c-1.3-13.6-15.5-25-16.1-25.4
		c-1.3-1-3.1-1.3-4.6-0.8c-1.6,0.5-2.8,1.9-3.2,3.5c-0.5,2-5.8,12.3-14.6,27.2c-1.6,2.7-5.5,13.4,11,38.2
		C79.3,285.7,80.8,286.5,82.4,286.5z M75.8,251.1c3-5.1,9-15.4,12.6-22.7c3.5,3.8,7.2,9.1,7.7,14.2c0,0.4,0.1,0.9,0.2,1.6
		c2.5,17.2-1.4,27.6-11.8,31.7C77.4,264.3,74.2,253.8,75.8,251.1z"/>
</g>
</svg>
