<?xml version="1.0" encoding="utf-8"?>
<!-- Generator: Adobe Illustrator 17.1.0, SVG Export Plug-In . SVG Version: 6.00 Build 0)  -->
<!DOCTYPE svg PUBLIC "-//W3C//DTD SVG 1.1//EN" "http://www.w3.org/Graphics/SVG/1.1/DTD/svg11.dtd">
<svg version="1.1" id="Layer_4" xmlns="http://www.w3.org/2000/svg" xmlns:xlink="http://www.w3.org/1999/xlink" x="0px" y="0px"
	 viewBox="0 0 512 512" enable-background="new 0 0 512 512" xml:space="preserve">
<path d="M473.9,0H36.7C16.5,0,0,16.5,0,36.7v437.2c0,20.2,16.5,36.7,36.7,36.7h362.7h74.4h6.7c16.5,0,30-13.5,30-30v-6.7v-36.4
	v-58.1v-43.1v-50.7v-43.1v-50.5V149V93.8V50.8V36.7C510.5,16.5,494.1,0,473.9,0z M499.3,336.3v43.1c0,10.4-8.4,18.8-18.8,18.8H405
	v-82.5h75.5c7.1,0,13.7-2.5,18.8-6.7V336.3z M499.3,242.6v43.1c0,10.4-8.4,18.8-18.8,18.8H405v-82.3h75.5c7.1,0,13.7-2.5,18.8-6.7
	V242.6z M499.3,149v43.1c0,10.4-8.4,18.8-18.8,18.8H405v-87h75.5c7.1,0,13.7-2.5,18.8-6.7V149z M499.3,36.7v14.1v43.1
	c0,10.4-8.4,18.8-18.8,18.8h-81.1c-3.1,0-5.6,2.5-5.6,5.6v381.1H111.7V11.2h362.2C487.9,11.2,499.3,22.6,499.3,36.7z M11.2,473.9
	V36.7c0-14.1,11.4-25.5,25.5-25.5h63.8v488.1H36.7C22.6,499.3,11.2,487.9,11.2,473.9z M405,499.3v-90h75.5c7.1,0,13.7-2.5,18.8-6.7
	v34.8v36.4c0,14.1-11.4,25.5-25.5,25.5L405,499.3L405,499.3z"/>
</svg>
