<?xml version="1.0" encoding="utf-8"?>
<!-- Generator: Adobe Illustrator 17.0.2, SVG Export Plug-In . SVG Version: 6.00 Build 0)  -->
<!DOCTYPE svg PUBLIC "-//W3C//DTD SVG 1.1//EN" "http://www.w3.org/Graphics/SVG/1.1/DTD/svg11.dtd">
<svg version="1.1" id="Layer_1" xmlns="http://www.w3.org/2000/svg" xmlns:xlink="http://www.w3.org/1999/xlink" x="0px" y="0px"
	 width="552px" height="48px" viewBox="38.5 33.5 552 48" enable-background="new 38.5 33.5 552 48" xml:space="preserve">
<rect x="42.952" y="37.462" fill="none" width="545" height="41"/>
<g>
	<g>
		<defs>
			<rect id="SVGID_1_" x="42.952" y="37.462" width="545" height="41"/>
		</defs>
		<clipPath id="SVGID_2_">
			<use xlink:href="#SVGID_1_"  overflow="visible"/>
		</clipPath>
		<g clip-path="url(#SVGID_2_)">
			<g>
				<defs>
					<rect id="SVGID_3_" x="42.952" y="37.462" width="545" height="41"/>
				</defs>
				<defs>
					<rect id="SVGID_4_" x="42.952" y="37.462" width="545" height="41"/>
				</defs>
				<defs>
					<rect id="SVGID_5_" x="42.952" y="37.462" width="545" height="41"/>
				</defs>
				<defs>
					<rect id="SVGID_6_" x="42.952" y="37.462" width="545" height="41"/>
				</defs>
				<defs>
					<rect id="SVGID_7_" x="42.952" y="37.462" width="545" height="41"/>
				</defs>
				<defs>
					<rect id="SVGID_8_" x="42.952" y="37.462" width="545" height="41"/>
				</defs>
				<defs>
					<rect id="SVGID_9_" x="42.952" y="37.462" width="545" height="41"/>
				</defs>
				<defs>
					<rect id="SVGID_10_" x="42.952" y="37.462" width="545" height="41"/>
				</defs>
				<defs>
					<rect id="SVGID_11_" x="42.952" y="37.462" width="545" height="41"/>
				</defs>
				<defs>
					<rect id="SVGID_12_" x="42.952" y="37.462" width="545" height="41"/>
				</defs>
				<defs>
					<rect id="SVGID_13_" x="42.952" y="37.462" width="545" height="41"/>
				</defs>
				<defs>
					<rect id="SVGID_14_" x="42.952" y="37.462" width="545" height="41"/>
				</defs>
				<clipPath id="SVGID_15_">
					<use xlink:href="#SVGID_3_"  overflow="visible"/>
				</clipPath>
				<clipPath id="SVGID_16_" clip-path="url(#SVGID_15_)">
					<use xlink:href="#SVGID_4_"  overflow="visible"/>
				</clipPath>
				<clipPath id="SVGID_17_" clip-path="url(#SVGID_16_)">
					<use xlink:href="#SVGID_5_"  overflow="visible"/>
				</clipPath>
				<clipPath id="SVGID_18_" clip-path="url(#SVGID_17_)">
					<use xlink:href="#SVGID_6_"  overflow="visible"/>
				</clipPath>
				<clipPath id="SVGID_19_" clip-path="url(#SVGID_18_)">
					<use xlink:href="#SVGID_7_"  overflow="visible"/>
				</clipPath>
				<clipPath id="SVGID_20_" clip-path="url(#SVGID_19_)">
					<use xlink:href="#SVGID_8_"  overflow="visible"/>
				</clipPath>
				<clipPath id="SVGID_21_" clip-path="url(#SVGID_20_)">
					<use xlink:href="#SVGID_9_"  overflow="visible"/>
				</clipPath>
				<clipPath id="SVGID_22_" clip-path="url(#SVGID_21_)">
					<use xlink:href="#SVGID_10_"  overflow="visible"/>
				</clipPath>
				<clipPath id="SVGID_23_" clip-path="url(#SVGID_22_)">
					<use xlink:href="#SVGID_11_"  overflow="visible"/>
				</clipPath>
				<clipPath id="SVGID_24_" clip-path="url(#SVGID_23_)">
					<use xlink:href="#SVGID_12_"  overflow="visible"/>
				</clipPath>
				<clipPath id="SVGID_25_" clip-path="url(#SVGID_24_)">
					<use xlink:href="#SVGID_13_"  overflow="visible"/>
				</clipPath>
				<clipPath id="SVGID_26_" clip-path="url(#SVGID_25_)">
					<use xlink:href="#SVGID_14_"  overflow="visible"/>
				</clipPath>
				<path clip-path="url(#SVGID_26_)" fill="#010101" d="M42.952,37.464v40.999h41.413V37.464H42.952z M64.23,66.031
					c-4.478,0-8.086-3.393-8.086-8.025v-0.044c0-4.523,3.519-8.068,8.262-8.068c3.205,0,5.265,1.329,6.653,3.235l-3.269,2.505
					c-0.896-1.108-1.926-1.815-3.426-1.815c-2.195,0-3.742,1.838-3.742,4.1v0.044c0,2.329,1.547,4.144,3.742,4.144
					c1.634,0,2.597-0.753,3.535-1.882l3.272,2.304C69.693,64.547,67.7,66.031,64.23,66.031z"/>
				<g clip-path="url(#SVGID_26_)">
					<path fill="#010101" d="M88.735,37.463v40.999h41.414V37.463H88.735z M111.638,65.721l-3.16-4.7h-1.9v4.7h-4.347V50.203h7.414
						c2.393,0,4.052,0.621,5.103,1.684c0.921,0.888,1.392,2.085,1.392,3.613v0.046c0,2.372-1.282,3.944-3.23,4.766l3.742,5.409
						H111.638z"/>
					<path fill="#010101" d="M109.421,53.929h-2.844v3.723h2.865c1.479,0,2.33-0.708,2.33-1.839v-0.045
						C111.772,54.548,110.874,53.929,109.421,53.929z"/>
				</g>
				<path clip-path="url(#SVGID_26_)" fill="#010101" d="M134.52,37.463v40.999h41.416V37.463H134.52z M161.586,65.721h-12.715
					V50.203h12.604v3.657h-8.307v2.351h7.526v3.393h-7.526v2.458h8.419v3.659H161.586z"/>
				<g clip-path="url(#SVGID_26_)">
					<path fill="#010101" d="M180.293,37.463v40.999h41.416V37.463H180.293z M205.111,65.777l-1.145-2.771h-6.045l-1.121,2.771
						h-4.569l6.675-15.628h4.188l6.673,15.628H205.111z"/>
					<polygon fill="#010101" points="199.197,59.658 202.712,59.658 200.963,55.247 					"/>
				</g>
				<path clip-path="url(#SVGID_26_)" fill="#010101" d="M226.073,37.463v40.999h41.413V37.463H226.073z M253.653,53.972h-4.705
					v11.747h-4.341V53.972h-4.702v-3.769h13.749L253.653,53.972L253.653,53.972z"/>
				<path clip-path="url(#SVGID_26_)" fill="#010101" d="M271.856,37.463v40.999h41.415V37.463H271.856z M294.744,65.719h-4.363
					V50.203h4.363V65.719z"/>
				<path clip-path="url(#SVGID_26_)" fill="#010101" d="M317.641,37.463v40.999h41.416V37.463H317.641z M340.363,65.776h-4.03
					l-6.359-15.628h4.859l3.562,9.821l3.558-9.821h4.772L340.363,65.776z"/>
				<path clip-path="url(#SVGID_26_)" fill="#010101" d="M363.414,37.463v40.999h41.416V37.463H363.414z M390.48,65.719h-12.719
					V50.204h12.606v3.656h-8.307v2.35h7.526v3.394h-7.526v2.457h8.419v3.658H390.48z"/>
				<path clip-path="url(#SVGID_26_)" fill="#010101" d="M409.207,37.462V78.46h41.416V37.462H409.207z M435.883,65.718H423.95
					V50.202h4.344V61.95h7.589L435.883,65.718L435.883,65.718z"/>
				<path clip-path="url(#SVGID_26_)" fill="#010101" d="M454.988,37.462V78.46h41.416V37.462H454.988z M477.885,65.718h-4.366
					V50.202h4.366V65.718z"/>
				<path clip-path="url(#SVGID_26_)" fill="#010101" d="M500.768,37.462V78.46h41.417V37.462H500.768z M523.502,65.774h-4.03
					l-6.359-15.627h4.859l3.562,9.821l3.561-9.821h4.77L523.502,65.774z"/>
				<path clip-path="url(#SVGID_26_)" fill="#010101" d="M546.539,37.462V78.46h41.413V37.462H546.539z M573.618,65.718H560.9
					V50.202h12.606v3.657h-8.308v2.35h7.526V59.6h-7.526v2.461h8.419L573.618,65.718L573.618,65.718z"/>
			</g>
		</g>
	</g>
</g>
</svg>
