<?xml version="1.0" encoding="utf-8"?>
<!-- Generator: Adobe Illustrator 17.0.2, SVG Export Plug-In . SVG Version: 6.00 Build 0)  -->
<!DOCTYPE svg PUBLIC "-//W3C//DTD SVG 1.1//EN" "http://www.w3.org/Graphics/SVG/1.1/DTD/svg11.dtd">
<svg version="1.1" id="Layer_1" xmlns="http://www.w3.org/2000/svg" xmlns:xlink="http://www.w3.org/1999/xlink" x="0px" y="0px"
	 width="260px" height="195px" viewBox="39.5 33.5 260 195" enable-background="new 39.5 33.5 260 195" xml:space="preserve">
<g>
	<rect x="42.834" y="37.358" fill="none" width="252" height="187"/>
	<g>
		<g>
			<defs>
				<rect id="SVGID_1_" x="42.834" y="37.358" width="252" height="187"/>
			</defs>
			<clipPath id="SVGID_2_">
				<use xlink:href="#SVGID_1_"  overflow="visible"/>
			</clipPath>
			<g clip-path="url(#SVGID_2_)">
				<g>
					<defs>
						<rect id="SVGID_3_" x="42.834" y="37.358" width="252" height="187"/>
					</defs>
					<defs>
						<rect id="SVGID_4_" x="42.834" y="37.358" width="252" height="187"/>
					</defs>
					<defs>
						<rect id="SVGID_5_" x="42.834" y="37.358" width="252" height="187"/>
					</defs>
					<defs>
						<rect id="SVGID_6_" x="42.834" y="37.358" width="252" height="187"/>
					</defs>
					<defs>
						<rect id="SVGID_7_" x="42.834" y="37.358" width="252" height="187"/>
					</defs>
					<defs>
						<rect id="SVGID_8_" x="42.834" y="37.358" width="252" height="187"/>
					</defs>
					<defs>
						<rect id="SVGID_9_" x="42.834" y="37.358" width="252" height="187"/>
					</defs>
					<defs>
						<rect id="SVGID_10_" x="42.834" y="37.358" width="252" height="187"/>
					</defs>
					<defs>
						<rect id="SVGID_11_" x="42.834" y="37.358" width="252" height="187"/>
					</defs>
					<defs>
						<rect id="SVGID_12_" x="42.834" y="37.358" width="252" height="187"/>
					</defs>
					<defs>
						<rect id="SVGID_13_" x="42.834" y="37.358" width="252" height="187"/>
					</defs>
					<defs>
						<rect id="SVGID_14_" x="42.834" y="37.358" width="252" height="187"/>
					</defs>
					<clipPath id="SVGID_15_">
						<use xlink:href="#SVGID_3_"  overflow="visible"/>
					</clipPath>
					<clipPath id="SVGID_16_" clip-path="url(#SVGID_15_)">
						<use xlink:href="#SVGID_4_"  overflow="visible"/>
					</clipPath>
					<clipPath id="SVGID_17_" clip-path="url(#SVGID_16_)">
						<use xlink:href="#SVGID_5_"  overflow="visible"/>
					</clipPath>
					<clipPath id="SVGID_18_" clip-path="url(#SVGID_17_)">
						<use xlink:href="#SVGID_6_"  overflow="visible"/>
					</clipPath>
					<clipPath id="SVGID_19_" clip-path="url(#SVGID_18_)">
						<use xlink:href="#SVGID_7_"  overflow="visible"/>
					</clipPath>
					<clipPath id="SVGID_20_" clip-path="url(#SVGID_19_)">
						<use xlink:href="#SVGID_8_"  overflow="visible"/>
					</clipPath>
					<clipPath id="SVGID_21_" clip-path="url(#SVGID_20_)">
						<use xlink:href="#SVGID_9_"  overflow="visible"/>
					</clipPath>
					<clipPath id="SVGID_22_" clip-path="url(#SVGID_21_)">
						<use xlink:href="#SVGID_10_"  overflow="visible"/>
					</clipPath>
					<clipPath id="SVGID_23_" clip-path="url(#SVGID_22_)">
						<use xlink:href="#SVGID_11_"  overflow="visible"/>
					</clipPath>
					<clipPath id="SVGID_24_" clip-path="url(#SVGID_23_)">
						<use xlink:href="#SVGID_12_"  overflow="visible"/>
					</clipPath>
					<clipPath id="SVGID_25_" clip-path="url(#SVGID_24_)">
						<use xlink:href="#SVGID_13_"  overflow="visible"/>
					</clipPath>
					<clipPath id="SVGID_26_" clip-path="url(#SVGID_25_)">
						<use xlink:href="#SVGID_14_"  overflow="visible"/>
					</clipPath>
					<path clip-path="url(#SVGID_26_)" fill="#010101" d="M42.834,37.358v58.035h58.154V37.358H42.834z M72.201,77.283
						c-6.265,0-11.311-4.784-11.311-11.316v-0.062c0-6.378,4.921-11.378,11.558-11.378c4.483,0,7.364,1.874,9.306,4.562
						l-4.573,3.532c-1.253-1.563-2.694-2.559-4.792-2.559c-3.069,0-5.235,2.591-5.235,5.78v0.062c0,3.284,2.166,5.843,5.235,5.843
						c2.286,0,3.633-1.062,4.944-2.655l4.577,3.249C79.843,75.19,77.055,77.283,72.201,77.283z"/>
					<g clip-path="url(#SVGID_26_)">
						<path fill="#010101" d="M136.938,59.497h-3.978v5.25h4.007c2.069,0,3.259-0.999,3.259-2.593v-0.065
							C140.227,60.37,138.97,59.497,136.938,59.497z"/>
						<path fill="#010101" d="M107.449,37.358v58.035h58.154V37.358H107.449z M140.039,76.125l-4.421-6.628h-2.658v6.628h-6.081
							V54.243h10.371c3.348,0,5.667,0.875,7.137,2.375c1.289,1.252,1.946,2.941,1.946,5.096v0.064c0,3.345-1.794,5.562-4.518,6.72
							l5.234,7.627H140.039z"/>
					</g>
					<path clip-path="url(#SVGID_26_)" fill="#010101" d="M172.065,37.358v58.035h58.154V37.358H172.065z M211.139,76.246h-19.385
						V54.054h19.214v5.23h-12.665v3.361h11.474v4.852h-11.474v3.514h12.836L211.139,76.246L211.139,76.246z"/>
					<g clip-path="url(#SVGID_26_)">
						<polygon fill="#010101" points="263.112,67.575 268.029,67.575 265.581,61.355 						"/>
						<path fill="#010101" d="M236.68,37.358v58.035h58.154V37.358H236.68z M271.384,76.204l-1.602-3.908h-8.456l-1.568,3.908
							h-6.392l9.338-22.038h5.856l9.334,22.038H271.384z"/>
					</g>
					<path clip-path="url(#SVGID_26_)" fill="#010101" d="M42.834,101.841v58.035h58.154v-58.035H42.834z M81.33,124.061h-6.634
						v16.698h-6.121v-16.698h-6.63v-5.356H81.33V124.061z"/>
					<path clip-path="url(#SVGID_26_)" fill="#010101" d="M107.449,101.841v58.035h58.154v-58.035H107.449z M139.735,140.246h-6.461
						v-21.819h6.461V140.246z"/>
					<path clip-path="url(#SVGID_26_)" fill="#010101" d="M172.065,101.841v58.035h58.154v-58.035H172.065z M204.032,140.309h-5.638
						l-8.894-22.038h6.797l4.983,13.849l4.977-13.849h6.675L204.032,140.309z"/>
					<path clip-path="url(#SVGID_26_)" fill="#010101" d="M236.68,101.841v58.035h58.154v-58.035H236.68z M275.801,140.543h-19.385
						v-21.838h19.214v5.146h-12.661v3.307h11.471v4.776h-11.471v3.459h12.832L275.801,140.543L275.801,140.543z"/>
					<path clip-path="url(#SVGID_26_)" fill="#010101" d="M42.834,166.324v58.034h58.154v-58.034H42.834z M81.766,205.136H62.382
						v-22.14h6.097v15.805h13.288v6.335H81.766z"/>
					<path clip-path="url(#SVGID_26_)" fill="#010101" d="M107.449,166.324v58.034h58.154v-58.034H107.449z M139.784,205.022h-6.461
						v-22.025h6.461V205.022z"/>
					<path clip-path="url(#SVGID_26_)" fill="#010101" d="M172.065,166.324v58.034h58.154v-58.034H172.065z M204.032,204.955h-5.638
						l-8.894-22.036h6.797l4.983,13.849l4.981-13.849h6.671L204.032,204.955z"/>
					<path clip-path="url(#SVGID_26_)" fill="#010101" d="M236.68,166.324v58.034h58.154v-58.034H236.68z M275.718,204.835h-19.385
						v-21.838h19.215v5.147h-12.662v3.307h11.472v4.772h-11.472v3.464h12.832V204.835z"/>
				</g>
			</g>
		</g>
	</g>
</g>
</svg>
