<?xml version="1.0" encoding="utf-8"?>
<!-- Generator: Adobe Illustrator 17.0.2, SVG Export Plug-In . SVG Version: 6.00 Build 0)  -->
<!DOCTYPE svg PUBLIC "-//W3C//DTD SVG 1.1//EN" "http://www.w3.org/Graphics/SVG/1.1/DTD/svg11.dtd">
<svg version="1.1" id="Layer_1" xmlns="http://www.w3.org/2000/svg" xmlns:xlink="http://www.w3.org/1999/xlink" x="0px" y="0px"
	 width="268.667px" height="205.333px" viewBox="40.5 34.5 268.667 205.333" enable-background="new 40.5 34.5 268.667 205.333"
	 xml:space="preserve">
<g>
	<g>
		<defs>
			<rect id="SVGID_1_" x="43.023" y="37.338" width="263" height="199"/>
		</defs>
		<clipPath id="SVGID_2_">
			<use xlink:href="#SVGID_1_"  overflow="visible"/>
		</clipPath>
		<g clip-path="url(#SVGID_2_)">
			<g>
				<defs>
					<rect id="SVGID_3_" x="43.023" y="37.338" width="263" height="199"/>
				</defs>
				<defs>
					<rect id="SVGID_4_" x="43.023" y="37.338" width="263" height="199"/>
				</defs>
				<defs>
					<rect id="SVGID_5_" x="43.023" y="37.338" width="263" height="199"/>
				</defs>
				<defs>
					<rect id="SVGID_6_" x="43.023" y="37.338" width="263" height="199"/>
				</defs>
				<defs>
					<rect id="SVGID_7_" x="43.023" y="37.338" width="263" height="199"/>
				</defs>
				<defs>
					<rect id="SVGID_8_" x="43.023" y="37.338" width="263" height="199"/>
				</defs>
				<defs>
					<rect id="SVGID_9_" x="43.023" y="37.338" width="263" height="199"/>
				</defs>
				<defs>
					<rect id="SVGID_10_" x="43.023" y="37.338" width="263" height="199"/>
				</defs>
				<defs>
					<rect id="SVGID_11_" x="43.023" y="37.338" width="263" height="199"/>
				</defs>
				<defs>
					<rect id="SVGID_12_" x="43.023" y="37.338" width="263" height="199"/>
				</defs>
				<defs>
					<rect id="SVGID_13_" x="43.023" y="37.338" width="263" height="199"/>
				</defs>
				<defs>
					<rect id="SVGID_14_" x="43.023" y="37.338" width="263" height="199"/>
				</defs>
				<clipPath id="SVGID_15_">
					<use xlink:href="#SVGID_3_"  overflow="visible"/>
				</clipPath>
				<clipPath id="SVGID_16_" clip-path="url(#SVGID_15_)">
					<use xlink:href="#SVGID_4_"  overflow="visible"/>
				</clipPath>
				<clipPath id="SVGID_17_" clip-path="url(#SVGID_16_)">
					<use xlink:href="#SVGID_5_"  overflow="visible"/>
				</clipPath>
				<clipPath id="SVGID_18_" clip-path="url(#SVGID_17_)">
					<use xlink:href="#SVGID_6_"  overflow="visible"/>
				</clipPath>
				<clipPath id="SVGID_19_" clip-path="url(#SVGID_18_)">
					<use xlink:href="#SVGID_7_"  overflow="visible"/>
				</clipPath>
				<clipPath id="SVGID_20_" clip-path="url(#SVGID_19_)">
					<use xlink:href="#SVGID_8_"  overflow="visible"/>
				</clipPath>
				<clipPath id="SVGID_21_" clip-path="url(#SVGID_20_)">
					<use xlink:href="#SVGID_9_"  overflow="visible"/>
				</clipPath>
				<clipPath id="SVGID_22_" clip-path="url(#SVGID_21_)">
					<use xlink:href="#SVGID_10_"  overflow="visible"/>
				</clipPath>
				<clipPath id="SVGID_23_" clip-path="url(#SVGID_22_)">
					<use xlink:href="#SVGID_11_"  overflow="visible"/>
				</clipPath>
				<clipPath id="SVGID_24_" clip-path="url(#SVGID_23_)">
					<use xlink:href="#SVGID_12_"  overflow="visible"/>
				</clipPath>
				<clipPath id="SVGID_25_" clip-path="url(#SVGID_24_)">
					<use xlink:href="#SVGID_13_"  overflow="visible"/>
				</clipPath>
				<clipPath id="SVGID_26_" clip-path="url(#SVGID_25_)">
					<use xlink:href="#SVGID_14_"  overflow="visible"/>
				</clipPath>
				<path clip-path="url(#SVGID_26_)" fill="#010101" d="M67.362,72.239v-0.061c0-6.35,4.886-11.327,11.474-11.327
					c4.45,0,7.311,1.865,9.239,4.542l-4.54,3.516c-1.244-1.556-2.674-2.548-4.757-2.548c-3.047,0-5.197,2.58-5.197,5.755v0.062
					c0,3.269,2.149,5.817,5.197,5.817c2.27,0,3.607-1.058,4.909-2.643l4.543,3.234c-2.052,2.834-4.819,4.918-9.639,4.918
					C72.372,83.504,67.362,78.741,67.362,72.239"/>
				<path clip-path="url(#SVGID_26_)" fill="#010101" d="M132.874,60.567h10.296c3.323,0,5.626,0.871,7.085,2.364
					c1.279,1.247,1.932,2.928,1.932,5.073v0.064c0,3.33-1.78,5.537-4.485,6.69l5.197,7.593h-6.961l-4.389-6.598h-2.639v6.598h-6.036
					L132.874,60.567L132.874,60.567z M142.887,71.023c2.055,0,3.236-0.995,3.236-2.582v-0.064c0-1.711-1.248-2.581-3.264-2.581
					h-3.949v5.227C138.91,71.023,142.887,71.023,142.887,71.023z"/>
				<polygon clip-path="url(#SVGID_26_)" fill="#010101" points="197.276,60.378 216.35,60.378 216.35,65.586 203.778,65.586 
					203.778,68.932 215.17,68.932 215.17,73.763 203.778,73.763 203.778,77.261 216.52,77.261 216.52,82.471 197.276,82.471 				"/>
				<path clip-path="url(#SVGID_26_)" fill="#010101" d="M267.712,60.49h5.814l9.266,21.939h-6.463l-1.59-3.891h-8.395l-1.557,3.891
					h-6.345L267.712,60.49z M272.998,73.839l-2.43-6.192l-2.452,6.192H272.998z"/>
				<polygon clip-path="url(#SVGID_26_)" fill="#010101" points="74.992,130.072 68.41,130.072 68.41,124.74 87.654,124.74 
					87.654,130.072 81.068,130.072 81.068,146.694 74.992,146.694 				"/>
				<rect x="139.22" y="124.462" clip-path="url(#SVGID_26_)" fill="#010101" width="6.415" height="21.721"/>
				<polygon clip-path="url(#SVGID_26_)" fill="#010101" points="195.039,124.308 201.786,124.308 206.734,138.095 211.674,124.308 
					218.3,124.308 209.467,146.247 203.869,146.247 				"/>
				<polygon clip-path="url(#SVGID_26_)" fill="#010101" points="261.469,124.74 280.545,124.74 280.545,129.863 267.974,129.863 
					267.974,133.155 279.362,133.155 279.362,137.909 267.974,137.909 267.974,141.353 280.714,141.353 280.714,146.48 
					261.469,146.48 				"/>
				<polygon clip-path="url(#SVGID_26_)" fill="#010101" points="68.843,188.743 74.896,188.743 74.896,204.477 88.087,204.477 
					88.087,210.783 68.843,210.783 				"/>
				<rect x="139.269" y="188.743" clip-path="url(#SVGID_26_)" fill="#010101" width="6.414" height="21.927"/>
				<polygon clip-path="url(#SVGID_26_)" fill="#010101" points="195.039,188.665 201.786,188.665 206.734,202.452 211.677,188.665 
					218.3,188.665 209.467,210.603 203.869,210.603 				"/>
				<polygon clip-path="url(#SVGID_26_)" fill="#010101" points="261.387,188.743 280.462,188.743 280.462,193.867 267.892,193.867 
					267.892,197.159 279.28,197.159 279.28,201.91 267.892,201.91 267.892,205.358 280.631,205.358 280.631,210.483 
					261.387,210.483 				"/>
			</g>
		</g>
		<g clip-path="url(#SVGID_2_)">
			<g>
				<defs>
					<rect id="SVGID_27_" x="43.023" y="37.338" width="263" height="199"/>
				</defs>
				<clipPath id="SVGID_28_">
					<use xlink:href="#SVGID_27_"  overflow="visible"/>
				</clipPath>
				<path clip-path="url(#SVGID_28_)" fill="#010101" d="M49.438,172.145h57.732v57.775H49.438V172.145z M113.584,172.145h57.731
					v57.775h-57.731V172.145z M177.73,172.145h57.732v57.775H177.73V172.145z M241.877,172.145h57.732v57.775h-57.732
					L241.877,172.145L241.877,172.145z M49.438,107.951h57.732v57.774H49.438V107.951z M113.584,107.951h57.731v57.774h-57.731
					V107.951z M177.73,107.951h57.732v57.774H177.73V107.951z M241.877,107.951h57.732v57.774h-57.732L241.877,107.951
					L241.877,107.951z M49.438,43.757h57.732v57.774H49.438V43.757z M113.584,43.757h57.731v57.774h-57.731V43.757z M177.73,43.757
					h57.732v57.774H177.73V43.757z M241.877,43.757h57.732v57.774h-57.732L241.877,43.757L241.877,43.757z M43.023,37.338v6.419
					v57.774v6.419v57.774v6.42v57.775v6.017v0.401h263v-199L43.023,37.338L43.023,37.338z"/>
			</g>
		</g>
	</g>
</g>
</svg>
