<?xml version="1.0" encoding="utf-8"?>
<!-- Generator: Adobe Illustrator 17.0.2, SVG Export Plug-In . SVG Version: 6.00 Build 0)  -->
<!DOCTYPE svg PUBLIC "-//W3C//DTD SVG 1.1//EN" "http://www.w3.org/Graphics/SVG/1.1/DTD/svg11.dtd">
<svg version="1.1" id="Layer_1" xmlns="http://www.w3.org/2000/svg" xmlns:xlink="http://www.w3.org/1999/xlink" x="0px" y="0px"
	 width="258px" height="192px" viewBox="40.5 34.5 258 192" enable-background="new 40.5 34.5 258 192" xml:space="preserve">
<g>
	<g>
		<defs>
			<rect id="SVGID_1_" x="42.956" y="37.271" width="252" height="187"/>
		</defs>
		<clipPath id="SVGID_2_">
			<use xlink:href="#SVGID_1_"  overflow="visible"/>
		</clipPath>
		<rect x="42.956" y="37.271" clip-path="url(#SVGID_2_)" fill="#010101" width="58.154" height="58.035"/>
	</g>
	<g>
		<defs>
			<rect id="SVGID_3_" x="42.956" y="37.271" width="252" height="187"/>
		</defs>
		<clipPath id="SVGID_4_">
			<use xlink:href="#SVGID_3_"  overflow="visible"/>
		</clipPath>
		<rect x="107.571" y="37.271" clip-path="url(#SVGID_4_)" fill="#010101" width="58.154" height="58.035"/>
	</g>
	<g>
		<defs>
			<rect id="SVGID_5_" x="42.956" y="37.271" width="252" height="187"/>
		</defs>
		<clipPath id="SVGID_6_">
			<use xlink:href="#SVGID_5_"  overflow="visible"/>
		</clipPath>
		<rect x="172.186" y="37.271" clip-path="url(#SVGID_6_)" fill="#010101" width="58.154" height="58.035"/>
	</g>
	<g>
		<defs>
			<rect id="SVGID_7_" x="42.956" y="37.271" width="252" height="187"/>
		</defs>
		<clipPath id="SVGID_8_">
			<use xlink:href="#SVGID_7_"  overflow="visible"/>
		</clipPath>
		<rect x="236.802" y="37.271" clip-path="url(#SVGID_8_)" fill="#010101" width="58.154" height="58.035"/>
	</g>
	<g>
		<defs>
			<rect id="SVGID_9_" x="42.956" y="37.271" width="252" height="187"/>
		</defs>
		<clipPath id="SVGID_10_">
			<use xlink:href="#SVGID_9_"  overflow="visible"/>
		</clipPath>
		<rect x="42.956" y="101.753" clip-path="url(#SVGID_10_)" fill="#010101" width="58.154" height="58.035"/>
	</g>
	<g>
		<defs>
			<rect id="SVGID_11_" x="42.956" y="37.271" width="252" height="187"/>
		</defs>
		<clipPath id="SVGID_12_">
			<use xlink:href="#SVGID_11_"  overflow="visible"/>
		</clipPath>
		<rect x="107.571" y="101.753" clip-path="url(#SVGID_12_)" fill="#010101" width="58.154" height="58.035"/>
	</g>
	<g>
		<defs>
			<rect id="SVGID_13_" x="42.956" y="37.271" width="252" height="187"/>
		</defs>
		<clipPath id="SVGID_14_">
			<use xlink:href="#SVGID_13_"  overflow="visible"/>
		</clipPath>
		<rect x="172.186" y="101.753" clip-path="url(#SVGID_14_)" fill="#010101" width="58.154" height="58.035"/>
	</g>
	<g>
		<defs>
			<rect id="SVGID_15_" x="42.956" y="37.271" width="252" height="187"/>
		</defs>
		<clipPath id="SVGID_16_">
			<use xlink:href="#SVGID_15_"  overflow="visible"/>
		</clipPath>
		<rect x="236.802" y="101.753" clip-path="url(#SVGID_16_)" fill="#010101" width="58.154" height="58.035"/>
	</g>
	<g>
		<defs>
			<rect id="SVGID_17_" x="42.956" y="37.271" width="252" height="187"/>
		</defs>
		<clipPath id="SVGID_18_">
			<use xlink:href="#SVGID_17_"  overflow="visible"/>
		</clipPath>
		<rect x="42.956" y="166.236" clip-path="url(#SVGID_18_)" fill="#010101" width="58.154" height="58.034"/>
	</g>
	<g>
		<defs>
			<rect id="SVGID_19_" x="42.956" y="37.271" width="252" height="187"/>
		</defs>
		<clipPath id="SVGID_20_">
			<use xlink:href="#SVGID_19_"  overflow="visible"/>
		</clipPath>
		<rect x="107.571" y="166.236" clip-path="url(#SVGID_20_)" fill="#010101" width="58.154" height="58.034"/>
	</g>
	<g>
		<defs>
			<rect id="SVGID_21_" x="42.956" y="37.271" width="252" height="187"/>
		</defs>
		<clipPath id="SVGID_22_">
			<use xlink:href="#SVGID_21_"  overflow="visible"/>
		</clipPath>
		<rect x="172.186" y="166.236" clip-path="url(#SVGID_22_)" fill="#010101" width="58.154" height="58.034"/>
	</g>
	<g>
		<defs>
			<rect id="SVGID_23_" x="42.956" y="37.271" width="252" height="187"/>
		</defs>
		<clipPath id="SVGID_24_">
			<use xlink:href="#SVGID_23_"  overflow="visible"/>
		</clipPath>
		<rect x="236.802" y="166.236" clip-path="url(#SVGID_24_)" fill="#010101" width="58.154" height="58.034"/>
	</g>
</g>
<g>
	<g>
		<defs>
			<rect id="SVGID_25_" x="42.956" y="37.271" width="252" height="187"/>
		</defs>
		<clipPath id="SVGID_26_">
			<use xlink:href="#SVGID_25_"  overflow="visible"/>
		</clipPath>
		<g clip-path="url(#SVGID_26_)">
			<g>
				<defs>
					<rect id="SVGID_27_" x="42.956" y="37.271" width="252" height="187"/>
				</defs>
				<defs>
					<rect id="SVGID_28_" x="42.956" y="37.271" width="252" height="187"/>
				</defs>
				<defs>
					<rect id="SVGID_29_" x="42.956" y="37.271" width="252" height="187"/>
				</defs>
				<defs>
					<rect id="SVGID_30_" x="42.956" y="37.271" width="252" height="187"/>
				</defs>
				<defs>
					<rect id="SVGID_31_" x="42.956" y="37.271" width="252" height="187"/>
				</defs>
				<defs>
					<rect id="SVGID_32_" x="42.956" y="37.271" width="252" height="187"/>
				</defs>
				<defs>
					<rect id="SVGID_33_" x="42.956" y="37.271" width="252" height="187"/>
				</defs>
				<defs>
					<rect id="SVGID_34_" x="42.956" y="37.271" width="252" height="187"/>
				</defs>
				<defs>
					<rect id="SVGID_35_" x="42.956" y="37.271" width="252" height="187"/>
				</defs>
				<defs>
					<rect id="SVGID_36_" x="42.956" y="37.271" width="252" height="187"/>
				</defs>
				<defs>
					<rect id="SVGID_37_" x="42.956" y="37.271" width="252" height="187"/>
				</defs>
				<defs>
					<rect id="SVGID_38_" x="42.956" y="37.271" width="252" height="187"/>
				</defs>
				<clipPath id="SVGID_39_">
					<use xlink:href="#SVGID_27_"  overflow="visible"/>
				</clipPath>
				<clipPath id="SVGID_40_" clip-path="url(#SVGID_39_)">
					<use xlink:href="#SVGID_28_"  overflow="visible"/>
				</clipPath>
				<clipPath id="SVGID_41_" clip-path="url(#SVGID_40_)">
					<use xlink:href="#SVGID_29_"  overflow="visible"/>
				</clipPath>
				<clipPath id="SVGID_42_" clip-path="url(#SVGID_41_)">
					<use xlink:href="#SVGID_30_"  overflow="visible"/>
				</clipPath>
				<clipPath id="SVGID_43_" clip-path="url(#SVGID_42_)">
					<use xlink:href="#SVGID_31_"  overflow="visible"/>
				</clipPath>
				<clipPath id="SVGID_44_" clip-path="url(#SVGID_43_)">
					<use xlink:href="#SVGID_32_"  overflow="visible"/>
				</clipPath>
				<clipPath id="SVGID_45_" clip-path="url(#SVGID_44_)">
					<use xlink:href="#SVGID_33_"  overflow="visible"/>
				</clipPath>
				<clipPath id="SVGID_46_" clip-path="url(#SVGID_45_)">
					<use xlink:href="#SVGID_34_"  overflow="visible"/>
				</clipPath>
				<clipPath id="SVGID_47_" clip-path="url(#SVGID_46_)">
					<use xlink:href="#SVGID_35_"  overflow="visible"/>
				</clipPath>
				<clipPath id="SVGID_48_" clip-path="url(#SVGID_47_)">
					<use xlink:href="#SVGID_36_"  overflow="visible"/>
				</clipPath>
				<clipPath id="SVGID_49_" clip-path="url(#SVGID_48_)">
					<use xlink:href="#SVGID_37_"  overflow="visible"/>
				</clipPath>
				<clipPath id="SVGID_50_" clip-path="url(#SVGID_49_)">
					<use xlink:href="#SVGID_38_"  overflow="visible"/>
				</clipPath>
				<path clip-path="url(#SVGID_50_)" fill="#FFFFFF" d="M61.011,65.88v-0.062c0-6.378,4.921-11.377,11.558-11.377
					c4.483,0,7.364,1.874,9.306,4.562l-4.573,3.532c-1.253-1.563-2.694-2.559-4.792-2.559c-3.069,0-5.235,2.591-5.235,5.78v0.062
					c0,3.284,2.166,5.843,5.235,5.843c2.286,0,3.633-1.062,4.944-2.655l4.577,3.249c-2.067,2.848-4.855,4.94-9.71,4.94
					C66.057,77.196,61.011,72.412,61.011,65.88"/>
				<path clip-path="url(#SVGID_50_)" fill="#FFFFFF" d="M127.002,54.156h10.371c3.348,0,5.667,0.875,7.137,2.375
					c1.289,1.252,1.946,2.941,1.946,5.096v0.064c0,3.345-1.794,5.562-4.518,6.72l5.234,7.627h-7.012l-4.421-6.627h-2.658v6.627H127
					V54.156H127.002z M137.089,64.659c2.069,0,3.259-0.999,3.259-2.593v-0.065c0-1.719-1.257-2.592-3.289-2.592h-3.978v5.25H137.089
					z"/>
				<polygon clip-path="url(#SVGID_50_)" fill="#FFFFFF" points="191.876,53.967 211.09,53.967 211.09,59.197 198.425,59.197 
					198.425,62.559 209.899,62.559 209.899,67.411 198.425,67.411 198.425,70.925 211.261,70.925 211.261,76.159 191.876,76.159 
									"/>
				<path clip-path="url(#SVGID_50_)" fill="#FFFFFF" d="M262.826,54.079h5.857l9.334,22.038h-6.511l-1.602-3.908h-8.456
					l-1.568,3.908h-6.392L262.826,54.079z M268.15,67.488l-2.447-6.22l-2.47,6.22H268.15z"/>
				<polygon clip-path="url(#SVGID_50_)" fill="#FFFFFF" points="68.697,123.974 62.067,123.974 62.067,118.618 81.451,118.618 
					81.451,123.974 74.818,123.974 74.818,140.672 68.697,140.672 				"/>
				<rect x="133.395" y="118.339" clip-path="url(#SVGID_50_)" fill="#FFFFFF" width="6.461" height="21.819"/>
				<polygon clip-path="url(#SVGID_50_)" fill="#FFFFFF" points="189.622,118.184 196.419,118.184 201.402,132.033 206.379,118.184 
					213.054,118.184 204.154,140.222 198.516,140.222 				"/>
				<polygon clip-path="url(#SVGID_50_)" fill="#FFFFFF" points="256.538,118.618 275.752,118.618 275.752,123.764 263.091,123.764 
					263.091,127.071 274.561,127.071 274.561,131.847 263.091,131.847 263.091,135.306 275.923,135.306 275.923,140.456 
					256.538,140.456 				"/>
				<polygon clip-path="url(#SVGID_50_)" fill="#FFFFFF" points="62.503,182.909 68.6,182.909 68.6,198.714 81.888,198.714 
					81.888,205.049 62.503,205.049 				"/>
				<rect x="133.444" y="182.909" clip-path="url(#SVGID_50_)" fill="#FFFFFF" width="6.461" height="22.025"/>
				<polygon clip-path="url(#SVGID_50_)" fill="#FFFFFF" points="189.622,182.831 196.419,182.831 201.402,196.68 206.383,182.831 
					213.054,182.831 204.154,204.867 198.516,204.867 				"/>
				<polygon clip-path="url(#SVGID_50_)" fill="#FFFFFF" points="256.455,182.909 275.67,182.909 275.67,188.057 263.008,188.057 
					263.008,191.363 274.479,191.363 274.479,196.136 263.008,196.136 263.008,199.6 275.84,199.6 275.84,204.747 256.455,204.747 
									"/>
			</g>
		</g>
	</g>
</g>
</svg>
