<?xml version="1.0" encoding="utf-8"?>
<!-- Generator: Adobe Illustrator 17.0.2, SVG Export Plug-In . SVG Version: 6.00 Build 0)  -->
<!DOCTYPE svg PUBLIC "-//W3C//DTD SVG 1.1//EN" "http://www.w3.org/Graphics/SVG/1.1/DTD/svg11.dtd">
<svg version="1.1" id="Layer_3" xmlns="http://www.w3.org/2000/svg" xmlns:xlink="http://www.w3.org/1999/xlink" x="0px" y="0px"
	 width="243px" height="229px" viewBox="15.917 -7.5 243 229" enable-background="new 15.917 -7.5 243 229" xml:space="preserve">
<path d="M228.223,55.472l-35.438-35.437c-2.531-2.531-5.896-3.925-9.477-3.925c-3.579,0-6.945,1.394-9.477,3.925l-30.473,30.473
	c-0.001,0.001-0.002,0.001-0.002,0.001c-0.002,0.002-0.002,0.003-0.003,0.004L40.866,153.002c-2.531,2.531-3.926,5.897-3.926,9.478
	c0,3.579,1.395,6.945,3.926,9.477l35.437,35.438c2.531,2.531,5.896,3.925,9.477,3.925c3.579,0,6.945-1.394,9.477-3.925
	L228.223,74.426c2.531-2.531,3.926-5.897,3.926-9.477S230.755,58.004,228.223,55.472z M225.395,71.598L92.428,204.565
	c-1.776,1.775-4.138,2.753-6.648,2.753c-2.512,0-4.873-0.978-6.648-2.753l-35.437-35.438c-3.666-3.666-3.666-9.632,0-13.298
	l11.057-11.057l20.225,20.224c0.391,0.391,0.902,0.586,1.414,0.586s1.023-0.195,1.414-0.586c0.781-0.781,0.781-2.047,0-2.828
	L57.58,141.944l15.176-15.176l28.972,28.971c0.391,0.391,0.902,0.586,1.414,0.586s1.023-0.195,1.414-0.586
	c0.781-0.781,0.781-2.047,0-2.828L75.584,123.94l15.177-15.177l20.224,20.224c0.391,0.391,0.902,0.586,1.414,0.586
	s1.023-0.195,1.414-0.586c0.781-0.781,0.781-2.047,0-2.828l-20.226-20.222l15.176-15.176l28.971,28.972
	c0.391,0.391,0.902,0.586,1.414,0.586s1.023-0.195,1.414-0.586c0.781-0.781,0.781-2.047,0-2.828l-28.971-28.972l15.176-15.176
	l20.224,20.224c0.391,0.391,0.902,0.586,1.414,0.586s1.023-0.195,1.414-0.586c0.781-0.781,0.781-2.047,0-2.828l-20.224-20.224
	l15.176-15.176l28.971,28.971c0.391,0.391,0.902,0.586,1.414,0.586s1.023-0.195,1.414-0.586c0.781-0.781,0.781-2.047,0-2.828
	l-28.971-28.971l15.176-15.176l20.224,20.224c0.391,0.391,0.902,0.586,1.414,0.586s1.023-0.195,1.414-0.586
	c0.781-0.781,0.781-2.047,0-2.828L165.604,33.92l11.057-11.057c1.776-1.775,4.138-2.753,6.648-2.753
	c2.512,0,4.873,0.978,6.648,2.753L225.395,58.3c1.775,1.776,2.754,4.137,2.754,6.648C228.148,67.461,227.171,69.822,225.395,71.598z
	"/>
</svg>
