<?xml version="1.0" encoding="utf-8"?>
<!-- Generator: Adobe Illustrator 17.1.0, SVG Export Plug-In . SVG Version: 6.00 Build 0)  -->
<!DOCTYPE svg PUBLIC "-//W3C//DTD SVG 1.1//EN" "http://www.w3.org/Graphics/SVG/1.1/DTD/svg11.dtd">
<svg version="1.1" id="Layer_4" xmlns="http://www.w3.org/2000/svg" xmlns:xlink="http://www.w3.org/1999/xlink" x="0px" y="0px"
	 viewBox="0 0 512 512" enable-background="new 0 0 512 512" xml:space="preserve">
<path d="M501.7,103.2l-92.9-92.9C402.1,3.7,393.3,0,383.9,0c-9.4,0-18.2,3.7-24.9,10.3l-79.9,79.9c0,0,0,0,0,0c0,0,0,0,0,0L10.3,359
	C3.7,365.7,0,374.5,0,383.9c0,9.4,3.7,18.2,10.3,24.9l92.9,92.9c6.6,6.6,15.5,10.3,24.9,10.3c9.4,0,18.2-3.7,24.9-10.3L501.7,153
	c6.6-6.6,10.3-15.5,10.3-24.9S508.3,109.9,501.7,103.2z M494.3,145.5L145.5,494.3c-4.7,4.7-10.9,7.2-17.4,7.2
	c-6.6,0-12.8-2.6-17.4-7.2l-92.9-92.9c-9.6-9.6-9.6-25.3,0-34.9l29-29l53,53c1,1,2.4,1.5,3.7,1.5c1.3,0,2.7-0.5,3.7-1.5
	c2-2,2-5.4,0-7.4l-53-53l39.8-39.8l76,76c1,1,2.4,1.5,3.7,1.5s2.7-0.5,3.7-1.5c2-2,2-5.4,0-7.4l-76-76l39.8-39.8l53,53
	c1,1,2.4,1.5,3.7,1.5s2.7-0.5,3.7-1.5c2-2,2-5.4,0-7.4l-53-53l39.8-39.8l76,76c1,1,2.4,1.5,3.7,1.5s2.7-0.5,3.7-1.5c2-2,2-5.4,0-7.4
	l-76-76l39.8-39.8l53,53c1,1,2.4,1.5,3.7,1.5c1.3,0,2.7-0.5,3.7-1.5c2-2,2-5.4,0-7.4l-53-53l39.8-39.8l76,76c1,1,2.4,1.5,3.7,1.5
	c1.3,0,2.7-0.5,3.7-1.5c2-2,2-5.4,0-7.4l-76-76L330,54.1l53,53c1,1,2.4,1.5,3.7,1.5c1.3,0,2.7-0.5,3.7-1.5c2-2,2-5.4,0-7.4l-53-53
	l29-29c4.7-4.7,10.9-7.2,17.4-7.2c6.6,0,12.8,2.6,17.4,7.2l92.9,92.9c4.7,4.7,7.2,10.9,7.2,17.4
	C501.5,134.7,498.9,140.9,494.3,145.5z"/>
</svg>
