<?xml version="1.0" encoding="utf-8"?>
<!-- Generator: Adobe Illustrator 17.0.0, SVG Export Plug-In . SVG Version: 6.00 Build 0)  -->
<!DOCTYPE svg PUBLIC "-//W3C//DTD SVG 1.1//EN" "http://www.w3.org/Graphics/SVG/1.1/DTD/svg11.dtd">
<svg version="1.1" id="Layer_1" xmlns="http://www.w3.org/2000/svg" xmlns:xlink="http://www.w3.org/1999/xlink" x="0px" y="0px"
	 width="79.209px" height="57.848px" viewBox="0 0 79.209 57.848" enable-background="new 0 0 79.209 57.848" xml:space="preserve">
<g>
	<path fill="#010101" d="M75.764,32.167c-2.297-2.874-5.233-4.737-8.808-5.59c1.127-1.705,1.691-3.602,1.691-5.693
		c0-2.915-1.031-5.404-3.094-7.467c-2.063-2.063-4.552-3.094-7.467-3.094c-2.613,0-4.896,0.853-6.848,2.558
		c-1.623-3.961-4.215-7.137-7.777-9.53C39.9,0.958,35.974-0.238,31.683-0.238c-5.831,0-10.808,2.063-14.934,6.188
		c-4.126,4.125-6.188,9.104-6.188,14.934c0,0.358,0.027,0.949,0.083,1.774c-3.246,1.513-5.831,3.782-7.756,6.807
		C0.963,32.491,0,35.791,0,39.366c0,5.088,1.808,9.441,5.425,13.057c3.616,3.617,7.969,5.425,13.057,5.425h44.885
		c4.373,0,8.106-1.547,11.2-4.641c3.094-3.094,4.642-6.827,4.642-11.201C79.209,38.322,78.06,35.042,75.764,32.167z M43.089,37.496
		l-9.848,10.426c-0.056,0.057-0.106,0.099-0.157,0.139l-0.092,0.074c-0.062,0.043-0.133,0.082-0.208,0.116
		c-0.251,0.113-0.455,0.155-0.665,0.155c-0.211,0-0.415-0.042-0.608-0.125c-0.128-0.064-0.2-0.101-0.266-0.146l0.181-0.347
		l-0.265,0.28c-0.05-0.038-0.102-0.081-0.149-0.13l-9.863-10.44c-0.585-0.619-0.557-1.598,0.062-2.182
		c0.596-0.563,1.621-0.533,2.182,0.063l7.181,7.603V16.322c0-0.851,0.692-1.544,1.543-1.544s1.544,0.692,1.544,1.544V42.98
		l7.181-7.603c0.561-0.596,1.585-0.626,2.182-0.063C43.645,35.898,43.673,36.877,43.089,37.496z"/>
</g>
</svg>
