<?xml version="1.0" encoding="utf-8"?>
<!-- Generator: Adobe Illustrator 17.1.0, SVG Export Plug-In . SVG Version: 6.00 Build 0)  -->
<!DOCTYPE svg PUBLIC "-//W3C//DTD SVG 1.1//EN" "http://www.w3.org/Graphics/SVG/1.1/DTD/svg11.dtd">
<svg version="1.1" id="Layer_4" xmlns="http://www.w3.org/2000/svg" xmlns:xlink="http://www.w3.org/1999/xlink" x="0px" y="0px"
	 viewBox="0 0 145.3 109.8" enable-background="new 0 0 145.3 109.8" xml:space="preserve">
<g>
	<path d="M19.6,25.6c2.7,0,4.2-1.1,5.3-2.7l-2.5-1.8c-0.7,0.9-1.5,1.5-2.7,1.5c-1.7,0-2.9-1.4-2.9-3.2v0c0-1.8,1.2-3.2,2.9-3.2
		c1.1,0,1.9,0.5,2.6,1.4l2.5-1.9c-1.1-1.5-2.6-2.5-5.1-2.5c-3.6,0-6.3,2.7-6.3,6.2v0C13.4,22.9,16.1,25.6,19.6,25.6z"/>
	<path d="M0,0v39h39V0H0z M35.4,35.4H3.6V3.6h31.8V35.4z"/>
</g>
<g>
	<g>
		<path d="M106.3,35.4v39h39v-39H106.3z M141.7,70.8h-31.8V39h31.8V70.8z"/>
	</g>
	<polygon fill="#010101" points="120.5,48.9 130.9,48.9 130.9,51.7 124.1,51.7 124.1,53.6 130.3,53.6 130.3,56.2 124.1,56.2 
		124.1,58.1 131,58.1 131,61 120.5,61 	"/>
</g>
<g>
	<g>
		<path d="M106.3,70.8v39h39v-39H106.3z M141.7,106.3h-31.8V74.4h31.8V106.3z"/>
	</g>
	<polygon fill="#010101" points="120.5,84.3 130.9,84.3 130.9,87.1 124.1,87.1 124.1,89 130.3,89 130.3,91.6 124.1,91.6 124.1,93.5 
		131,93.5 131,96.4 120.5,96.4 	"/>
</g>
<g>
	<g>
		<path d="M70.8,0v39h39V0H70.8z M106.3,35.4H74.4V3.6h31.8V35.4z"/>
	</g>
	<polygon fill="#010101" points="85.1,13.4 95.5,13.4 95.5,16.3 88.6,16.3 88.6,18.1 94.9,18.1 94.9,20.8 88.6,20.8 88.6,22.7 
		95.6,22.7 95.6,25.6 85.1,25.6 	"/>
</g>
<g>
	<path d="M52.7,21.9h1.5l2.4,3.6h3.8l-2.9-4.2c1.5-0.6,2.5-1.9,2.5-3.7v0c0-1.2-0.4-2.1-1.1-2.8c-0.8-0.8-2.1-1.3-3.9-1.3h-5.7v12
		h3.3L52.7,21.9z M52.7,16.4h2.2c1.1,0,1.8,0.5,1.8,1.4v0c0,0.9-0.7,1.4-1.8,1.4h-2.2V16.4z"/>
	<path d="M35.4,0v39h39V0H35.4z M70.8,35.4H39V3.6h31.8V35.4z"/>
</g>
<g>
	<path fill="#010101" d="M106.3,0v39h39V0H106.3z M141.7,35.4h-31.8V3.6h31.8V35.4z"/>
	<path fill="#010101" d="M123.4,23.4h4.6l0.9,2.1h3.6l-5.1-12.1h-3.2L119,25.5h3.5L123.4,23.4z M125.7,17.4l1.3,3.4h-2.7L125.7,17.4
		z"/>
</g>
<g>
	<path fill="#010101" d="M70.8,35.4v39h39v-39H70.8z M106.3,70.8H74.4V39h31.8L106.3,70.8L106.3,70.8z"/>
	<polygon fill="#010101" points="91.9,61 96.8,48.9 93.1,48.9 90.4,56.5 87.6,48.9 83.9,48.9 88.8,61 	"/>
</g>
<g>
	<path fill="#010101" d="M70.8,70.8v39h39v-39H70.8z M106.3,106.3H74.4V74.4h31.8L106.3,106.3L106.3,106.3z"/>
	<polygon fill="#010101" points="91.9,96.4 96.8,84.3 93.1,84.3 90.4,91.9 87.6,84.3 83.9,84.3 88.8,96.4 	"/>
</g>
<g>
	<path fill="#010101" d="M35.4,70.8v39h39v-39H35.4z M70.8,106.3H39V74.4h31.8L70.8,106.3L70.8,106.3z"/>
	<rect x="53.2" y="84.4" fill="#010101" width="3.5" height="12"/>
</g>
<g>
	<path fill="#010101" d="M35.4,35.4v39h39v-39H35.4z M70.8,70.8H39V39h31.8L70.8,70.8L70.8,70.8z"/>
	<rect x="53.2" y="48.9" fill="#010101" width="3.5" height="12"/>
</g>
<g>
	<path fill="#010101" d="M0,35.4v39h39v-39H0z M35.4,70.8H3.6V39h31.8V70.8z"/>
	<polygon fill="#010101" points="17.8,61 21.2,61 21.2,51.8 24.8,51.8 24.8,48.9 14.2,48.9 14.2,51.8 17.8,51.8 	"/>
</g>
<g>
	<path fill="#010101" d="M0,70.8v39h39v-39H0z M35.4,106.3H3.6V74.4h31.8V106.3z"/>
	<polygon fill="#010101" points="24.8,92.9 17.5,92.9 17.5,84.3 14.2,84.3 14.2,96.4 24.8,96.4 	"/>
</g>
</svg>
