<?xml version="1.0" encoding="utf-8"?>
<!-- Generator: Adobe Illustrator 17.0.2, SVG Export Plug-In . SVG Version: 6.00 Build 0)  -->
<!DOCTYPE svg PUBLIC "-//W3C//DTD SVG 1.1//EN" "http://www.w3.org/Graphics/SVG/1.1/DTD/svg11.dtd">
<svg version="1.1" id="Layer_1" xmlns="http://www.w3.org/2000/svg" xmlns:xlink="http://www.w3.org/1999/xlink" x="0px" y="0px"
	 width="64.875px" height="65px" viewBox="41.625 36.375 64.875 65" enable-background="new 41.625 36.375 64.875 65"
	 xml:space="preserve">
<g>
	<path d="M70.584,72.503h2.334l3.881,5.835h6.156l-4.596-6.715c2.392-1.02,3.967-2.972,3.967-5.917v-0.057
		c0-1.897-0.577-3.384-1.708-4.487c-1.291-1.32-3.327-2.091-6.266-2.091h-9.106v19.266h5.338
		C70.584,78.337,70.584,72.503,70.584,72.503z M70.584,63.697h3.493c1.783,0,2.887,0.769,2.887,2.282v0.057
		c0,1.403-1.045,2.283-2.862,2.283h-3.518V63.697z"/>
	<path d="M42.815,37.419v62.572h62.572V37.419H42.815z M99.638,94.242H48.564V43.168h51.074V94.242z"/>
</g>
</svg>
