<?xml version="1.0" encoding="utf-8"?>
<!-- Generator: Adobe Illustrator 17.1.0, SVG Export Plug-In . SVG Version: 6.00 Build 0)  -->
<!DOCTYPE svg PUBLIC "-//W3C//DTD SVG 1.1//EN" "http://www.w3.org/Graphics/SVG/1.1/DTD/svg11.dtd">
<svg version="1.1" id="Layer_4" xmlns="http://www.w3.org/2000/svg" xmlns:xlink="http://www.w3.org/1999/xlink" x="0px" y="0px"
	 viewBox="0 0 512 512" enable-background="new 0 0 512 512" xml:space="preserve">
<g>
	<path fill="#010101" d="M135.7,460.4c-37.8,0-70.2-14.8-96.4-44.1C13.2,387.1,0,349.8,0,305.3C0,254,19.5,204,57.9,156.7
		C96,109.6,139.2,74.9,186.3,53.5l4.1-1.9l18.8,39.6l-3.7,2.1c-36.4,20.9-68,47.3-93.8,78.4c-25.4,30.7-38.3,62.1-38.3,93.3
		c0,5,1.4,8.5,4.3,10.8c3.1,2.5,7.2,3.7,12.4,3.8c45.9-4.9,54-5.6,55.9-5.6c18.3,0,38.2,6.6,59.2,19.8c21.7,13.5,32.7,36.8,32.7,69
		c0,27-9,50.3-26.7,69.1C193.6,450.8,168.1,460.4,135.7,460.4z M186,63.6c-44.2,21-84.9,54.2-121.1,98.8
		c-37,45.7-55.8,93.7-55.8,142.9c0,42.2,12.4,77.5,37,104.9c24.4,27.3,54.6,41.1,89.6,41.1c29.8,0,53-8.6,69-25.6
		c16.1-17.1,24.2-38.2,24.2-62.9c0-29.3-9.3-49.4-28.5-61.3c-19.6-12.2-37.9-18.4-54.4-18.4c-2.4,0-21,1.9-55.2,5.5l-0.5,0
		c-7.4,0-13.6-1.9-18.3-5.8c-5.1-4.1-7.7-10.1-7.7-17.9c0-33.4,13.6-66.7,40.4-99.1c25.6-30.9,56.7-57.3,92.6-78.4L186,63.6z
		 M408.9,460.4c-39.4,0-72.2-15.4-97.3-45.9c-25-30.2-37.6-64.8-37.6-102.9c0-57.7,19.7-110.5,58.7-157
		c38.7-46.2,81.6-80.3,127.6-101.2l4.1-1.9l18.8,39.6l-3.7,2.1c-36.4,20.9-68,47-93.8,77.6c-25.4,30.1-38.3,61.2-38.3,92.5
		c0,4.8,1.2,8.7,3.8,11.9c2.2,2.8,6.6,4.2,12.9,4.3c45.7-5,53.8-5.6,55.9-5.6c20.5,0,41,7.4,61.1,21.9
		c20.5,14.9,30.9,37.1,30.9,66.1c0,22.6-7.9,44.8-23.5,65.9C472.5,449.5,445.7,460.4,408.9,460.4z M460,63.6
		c-43.2,20.5-83.7,53-120.3,96.9c-37.5,44.9-56.6,95.7-56.6,151.2c0,35.9,12,68.6,35.5,97.1c23.3,28.2,53.7,42.6,90.3,42.6
		c33.8,0,58.1-9.7,72.3-28.8c14.4-19.5,21.8-39.9,21.8-60.5c0-26.2-8.9-45.5-27.1-58.7c-18.5-13.4-37.2-20.2-55.8-20.2
		c-2.9,0-21.5,1.9-55.2,5.5l-0.5,0c-9.4,0-16.2-2.6-20.2-7.7c-3.8-4.8-5.8-10.7-5.8-17.6c0-33.4,13.6-66.5,40.4-98.3
		c25.6-30.4,56.7-56.5,92.6-77.5L460,63.6z"/>
</g>
</svg>
