<?xml version="1.0" encoding="utf-8"?>
<!-- Generator: Adobe Illustrator 17.0.2, SVG Export Plug-In . SVG Version: 6.00 Build 0)  -->
<!DOCTYPE svg PUBLIC "-//W3C//DTD SVG 1.1//EN" "http://www.w3.org/Graphics/SVG/1.1/DTD/svg11.dtd">
<svg version="1.1" id="Layer_1" xmlns="http://www.w3.org/2000/svg" xmlns:xlink="http://www.w3.org/1999/xlink" x="0px" y="0px"
	 width="512px" height="512px" viewBox="0 0 512 512" enable-background="new 0 0 512 512" xml:space="preserve">
<g>
	<path fill="#010101" d="M288.467,357.462l-9.315-19.607l1.806-1.036c18.024-10.343,33.628-23.388,46.376-38.774
		c12.571-15.177,18.945-30.701,18.945-46.142c0-2.468-0.688-4.218-2.104-5.351c-1.547-1.237-3.558-1.848-6.145-1.865
		c-22.701,2.438-26.698,2.751-27.641,2.751c-9.034,0-18.894-3.29-29.305-9.777c-10.748-6.703-16.197-18.193-16.197-34.153
		c0-13.38,4.439-24.879,13.194-34.178c8.794-9.34,21.383-14.077,37.418-14.077c18.674,0,34.717,7.345,47.683,21.83
		c12.904,14.411,19.447,32.876,19.447,54.884c0,25.367-9.628,50.101-28.617,73.514c-18.875,23.282-40.25,40.462-63.53,51.064
		L288.467,357.462z M284.998,339.674l5.626,11.842c21.865-10.375,42.005-26.807,59.893-48.869
		c18.322-22.592,27.612-46.372,27.612-70.68c0-20.866-6.157-38.322-18.3-51.883c-12.076-13.491-26.991-20.331-44.33-20.331
		c-14.745,0-26.232,4.26-34.143,12.662c-7.942,8.436-11.97,18.897-11.97,31.093c0,14.504,4.605,24.426,14.078,30.334
		c9.686,6.036,18.744,9.096,26.924,9.096c1.186,0,10.364-0.921,27.283-2.739l0.24-0.013c3.654,0,6.707,0.959,9.072,2.852
		c2.518,2.014,3.794,4.996,3.794,8.865c0,16.517-6.723,33.007-19.98,49.013C318.132,316.202,302.731,329.234,284.998,339.674z
		 M152.951,357.461l-9.314-19.606l1.806-1.036c18.027-10.345,33.634-23.263,46.387-38.396
		c12.564-14.906,18.934-30.293,18.934-45.733c0-2.396-0.61-4.324-1.866-5.893c-1.104-1.384-3.25-2.093-6.381-2.11
		c-22.605,2.466-26.604,2.751-27.643,2.751c-10.127,0-20.295-3.65-30.221-10.849c-10.14-7.365-15.281-18.362-15.281-32.688
		c0-11.195,3.919-22.163,11.648-32.599c7.882-10.649,21.125-16.049,39.359-16.049c19.495,0,35.689,7.631,48.132,22.683
		c12.344,14.915,18.603,32.033,18.603,50.878c-0.001,28.523-9.769,54.659-29.032,77.683c-19.127,22.868-40.362,39.707-63.116,50.049
		L152.951,357.461z M149.483,339.675l5.626,11.843c21.38-10.13,41.395-26.238,59.52-47.908
		c18.568-22.191,27.983-47.356,27.984-74.795c0-17.771-5.912-33.923-17.57-48.01c-11.548-13.969-26.575-21.051-44.665-21.051
		c-16.729,0-28.755,4.787-35.742,14.227c-7.143,9.645-10.765,19.711-10.765,29.921c0,12.984,4.391,22.485,13.424,29.046
		c9.14,6.629,18.419,9.99,27.578,9.99c1.447,0,10.625-0.921,27.28-2.739l0.244-0.013c4.634,0,8.004,1.279,10.016,3.802
		c1.89,2.362,2.85,5.291,2.85,8.702c0,16.531-6.727,32.894-19.993,48.634C182.604,316.353,167.209,329.247,149.483,339.675z"/>
</g>
</svg>
