<?xml version="1.0" encoding="utf-8"?>
<!-- Generator: Adobe Illustrator 17.1.0, SVG Export Plug-In . SVG Version: 6.00 Build 0)  -->
<!DOCTYPE svg PUBLIC "-//W3C//DTD SVG 1.1//EN" "http://www.w3.org/Graphics/SVG/1.1/DTD/svg11.dtd">
<svg version="1.1" id="Layer_4" xmlns="http://www.w3.org/2000/svg" xmlns:xlink="http://www.w3.org/1999/xlink" x="0px" y="0px"
	 viewBox="0 0 512 512" enable-background="new 0 0 512 512" xml:space="preserve">
<g>
	<path fill="#010101" d="M321.6,460.4l-18.8-39.6l3.7-2.1c36.4-20.9,68-47.3,93.8-78.4c25.4-30.7,38.3-62.1,38.3-93.3
		c0-5-1.4-8.5-4.3-10.8c-3.1-2.5-7.2-3.7-12.4-3.8c-45.9,4.9-54,5.6-55.9,5.6c-18.3,0-38.2-6.7-59.2-19.8
		c-21.7-13.6-32.7-36.8-32.7-69c0-27,9-50.3,26.7-69.1c17.8-18.9,43.2-28.5,75.6-28.5c37.8,0,70.2,14.8,96.4,44.1
		c26.1,29.1,39.3,66.5,39.3,111c0,51.3-19.5,101.3-57.9,148.6c-38.2,47.1-81.4,81.8-128.4,103.2L321.6,460.4z M314.6,424.4
		l11.4,23.9c44.2-21,84.9-54.2,121.1-98.8c37-45.7,55.8-93.7,55.8-142.9c0-42.2-12.4-77.5-37-104.9c-24.4-27.3-54.6-41.1-89.6-41.1
		c-29.8,0-53,8.6-69,25.6c-16.1,17.1-24.2,38.2-24.2,62.9c0,29.3,9.3,49.4,28.5,61.3c19.6,12.2,37.9,18.4,54.4,18.4
		c2.4,0,21-1.9,55.2-5.5l0.5,0c7.4,0,13.6,1.9,18.3,5.8c5.1,4.1,7.7,10.1,7.7,17.9c0,33.4-13.6,66.7-40.4,99.1
		C381.6,377,350.5,403.3,314.6,424.4z M47.7,460.4l-18.8-39.6l3.7-2.1c36.4-20.9,68-47,93.8-77.6c25.4-30.1,38.3-61.2,38.3-92.5
		c0-4.8-1.2-8.7-3.8-11.9c-2.2-2.8-6.6-4.2-12.9-4.3c-45.7,5-53.8,5.6-55.9,5.6c-20.5,0-41-7.4-61.1-21.9C10.4,201.1,0,178.9,0,150
		c0-22.6,7.9-44.8,23.5-65.9c15.9-21.5,42.7-32.4,79.6-32.4c39.4,0,72.2,15.4,97.3,45.9c25,30.2,37.6,64.8,37.6,102.9
		c0,57.7-19.7,110.5-58.7,157c-38.7,46.2-81.6,80.3-127.6,101.2L47.7,460.4z M40.7,424.4L52,448.4c43.2-20.5,83.7-53,120.3-96.9
		c37.5-44.9,56.6-95.7,56.6-151.2c0-35.9-12-68.6-35.5-97.1c-23.3-28.2-53.7-42.6-90.3-42.6c-33.8,0-58.1,9.7-72.3,28.8
		C16.4,109,9.1,129.3,9.1,150c0,26.2,8.9,45.5,27.1,58.7c18.5,13.4,37.2,20.2,55.8,20.2c2.9,0,21.5-1.9,55.2-5.5l0.5,0
		c9.4,0,16.2,2.6,20.2,7.7c3.8,4.8,5.8,10.7,5.8,17.6c0,33.4-13.6,66.5-40.4,98.3C107.6,377.3,76.5,403.4,40.7,424.4z"/>
</g>
</svg>
