<?xml version="1.0" encoding="utf-8"?>
<!-- Generator: Adobe Illustrator 17.1.0, SVG Export Plug-In . SVG Version: 6.00 Build 0)  -->
<!DOCTYPE svg PUBLIC "-//W3C//DTD SVG 1.1//EN" "http://www.w3.org/Graphics/SVG/1.1/DTD/svg11.dtd">
<svg version="1.1" id="Layer_4" xmlns="http://www.w3.org/2000/svg" xmlns:xlink="http://www.w3.org/1999/xlink" x="0px" y="0px"
	 viewBox="0 0 512 512" enable-background="new 0 0 512 512" xml:space="preserve">
<g>
	<path d="M474.7,97.7H36.4C16.3,97.7,0,114,0,134V378c0,20.1,16.3,36.4,36.4,36.4h438.3c20.1,0,36.4-16.3,36.4-36.4V134
		C511.1,114,494.7,97.7,474.7,97.7z M501.1,378c0,14.5-11.8,26.4-26.4,26.4H36.4C21.8,404.3,10,392.5,10,378V134
		c0-14.5,11.8-26.4,26.4-26.4h438.3c14.5,0,26.4,11.8,26.4,26.4L501.1,378L501.1,378z"/>
	<path d="M255.5,137.4C190.1,137.4,137,190.6,137,256s53.2,118.6,118.6,118.6c65.4,0,118.6-53.2,118.6-118.6
		S320.9,137.4,255.5,137.4z M255.5,364.6C195.7,364.6,147,315.9,147,256c0-59.9,48.7-108.6,108.6-108.6S364.1,196.1,364.1,256
		C364.1,315.9,315.4,364.6,255.5,364.6z"/>
	<path d="M255.5,193.8c-34.3,0-62.2,27.9-62.2,62.2c0,34.3,27.9,62.2,62.2,62.2s62.2-27.9,62.2-62.2
		C317.8,221.7,289.8,193.8,255.5,193.8z M255.5,308.2c-28.8,0-52.2-23.4-52.2-52.2s23.4-52.2,52.2-52.2s52.2,23.4,52.2,52.2
		C307.8,284.8,284.3,308.2,255.5,308.2z"/>
</g>
</svg>
