<?xml version="1.0" encoding="utf-8"?>
<!-- Generator: Adobe Illustrator 17.0.2, SVG Export Plug-In . SVG Version: 6.00 Build 0)  -->
<!DOCTYPE svg PUBLIC "-//W3C//DTD SVG 1.1//EN" "http://www.w3.org/Graphics/SVG/1.1/DTD/svg11.dtd">
<svg version="1.1" id="Layer_5" xmlns="http://www.w3.org/2000/svg" xmlns:xlink="http://www.w3.org/1999/xlink" x="0px" y="0px"
	 width="243px" height="229px" viewBox="15.917 -7.5 243 229" enable-background="new 15.917 -7.5 243 229" xml:space="preserve">
<g>
	<path d="M228.734,54.054H53.415c-8.021,0-14.546,6.526-14.546,14.547v97.563c0,8.021,6.525,14.547,14.546,14.547h175.319
		c8.021,0,14.546-6.525,14.546-14.547V68.601C243.281,60.58,236.755,54.054,228.734,54.054z M239.281,166.164
		c0,5.815-4.731,10.547-10.546,10.547H53.415c-5.815,0-10.546-4.731-10.546-10.547V68.601c0-5.815,4.731-10.547,10.546-10.547
		h175.319c5.815,0,10.546,4.731,10.546,10.547L239.281,166.164L239.281,166.164z"/>
	<path d="M141.075,69.955c-26.151,0-47.427,21.276-47.427,47.427s21.276,47.428,47.427,47.428c26.152,0,47.428-21.276,47.428-47.428
		S167.226,69.955,141.075,69.955z M141.075,160.81c-23.946,0-43.427-19.481-43.427-43.428c0-23.946,19.481-43.427,43.427-43.427
		s43.428,19.481,43.428,43.427C184.502,141.329,165.021,160.81,141.075,160.81z"/>
	<path d="M141.075,92.493c-13.724,0-24.889,11.165-24.889,24.889c0,13.725,11.165,24.89,24.889,24.89s24.89-11.165,24.89-24.89
		C165.964,103.658,154.799,92.493,141.075,92.493z M141.075,138.272c-11.519,0-20.889-9.371-20.889-20.89
		s9.371-20.889,20.889-20.889s20.89,9.371,20.89,20.889S152.592,138.272,141.075,138.272z"/>
</g>
</svg>
