<?xml version="1.0" encoding="utf-8"?>
<!-- Generator: Adobe Illustrator 17.0.0, SVG Export Plug-In . SVG Version: 6.00 Build 0)  -->
<!DOCTYPE svg PUBLIC "-//W3C//DTD SVG 1.1//EN" "http://www.w3.org/Graphics/SVG/1.1/DTD/svg11.dtd">
<svg version="1.1" id="Layer_1" xmlns="http://www.w3.org/2000/svg" xmlns:xlink="http://www.w3.org/1999/xlink" x="0px" y="0px"
	 width="62px" height="57.848px" viewBox="0 0 62 57.848" enable-background="new 0 0 62 57.848" xml:space="preserve">
<g>
	<path d="M31-0.018c-17.093,0-31,11.432-31,25.483c0,6.69,3.093,12.958,8.732,17.735L2.175,56.354
		c-0.197,0.396-0.121,0.873,0.19,1.188c0.199,0.201,0.465,0.307,0.735,0.307c0.153,0,0.307-0.034,0.451-0.103l17.04-8.268
		c3.333,0.975,6.833,1.47,10.409,1.47c17.093,0,31-11.431,31-25.482C62,11.413,48.093-0.018,31-0.018z M31.305,39.594
		c-1.241,0-2.25-1.01-2.25-2.25s1.009-2.25,2.25-2.25c1.24,0,2.25,1.01,2.25,2.25S32.545,39.594,31.305,39.594z M32.555,28.519
		v2.825c0,0.689-0.561,1.25-1.25,1.25s-1.25-0.561-1.25-1.25v-4c0-0.689,0.561-1.25,1.25-1.25c3.749,0,6.576-2.476,6.576-5.758
		c0-3.439-2.833-6.237-6.315-6.237c-3.423,0-6.315,2.964-6.315,6.472c0,0.689-0.561,1.25-1.25,1.25s-1.25-0.561-1.25-1.25
		c0-4.947,3.955-8.972,8.815-8.972c4.861,0,8.815,3.919,8.815,8.737C40.381,24.565,37.104,27.975,32.555,28.519z"/>
</g>
</svg>
