<?xml version="1.0" standalone="no"?>
<!DOCTYPE svg PUBLIC "-//W3C//DTD SVG 1.1//EN" "http://www.w3.org/Graphics/SVG/1.1/DTD/svg11.dtd" >
<!--
2014-3-6: Created.
-->
<svg xmlns="http://www.w3.org/2000/svg">
<metadata>
Created by FontForge 20120731 at Thu Mar  6 18:17:09 2014
 By Ryan Jadhav
Created by Ryan Jadhav with FontForge 2.0 (http://fontforge.sf.net)
</metadata>
<defs>
<font id="cl-font-collection" horiz-adv-x="512" >
  <font-face 
    font-family="cl-font-collection"
    font-weight="500"
    font-stretch="normal"
    units-per-em="512"
    panose-1="2 0 6 9 0 0 0 0 0 0"
    ascent="448"
    descent="-64"
    x-height="448"
    cap-height="448"
    bbox="-0.0213595 -64.0996 6721.64 448.05"
    underline-thickness="25.6"
    underline-position="-51.2"
    unicode-range="U+0041-F1C5"
  />
    <missing-glyph />
    <glyph glyph-name="i" unicode="i" 
d="M0 448h512v-512h-512v512zM465 -17v0v418h-418v-418h418zM232.8 113.4v157.199h46.4004v-157.199h-46.4004z" />
    <glyph glyph-name="l" unicode="l" 
d="M0 448h512v-512h-512v512zM465 -17v418h-418v-418h418zM325.6 157.9v-45.6006h-139.199v159.4h43.7998v-113.8h95.3994z" />
    <glyph glyph-name="uniF1BF" unicode="&#xf1bf;" 
d="M321.6 -12.4004l-18.7998 39.6006l3.7002 2.09961c36.4004 20.9004 68 47.2998 93.7998 78.4004c25.4004 30.7002 38.2998 62.0996 38.2998 93.2998c0 5 -1.39941 8.5 -4.2998 10.7998c-3.09961 2.5 -7.2002 3.7002 -12.3994 3.7998
c-45.9004 -4.89941 -54 -5.59961 -55.9004 -5.59961c-18.2998 0 -38.2002 6.7002 -59.2002 19.7998c-21.7002 13.6006 -32.7002 36.7998 -32.7002 69c0 27 9 50.2998 26.7002 69.1006c17.7998 18.8994 43.2002 28.5 75.6006 28.5
c37.7998 0 70.1992 -14.8008 96.3994 -44.1006c26.1006 -29.0996 39.2998 -66.5 39.2998 -111c0 -51.2998 -19.5 -101.3 -57.8994 -148.6c-38.2002 -47.1006 -81.4004 -81.7998 -128.4 -103.2zM314.6 23.5996l11.4004 -23.8994c44.2002 21 84.9004 54.2002 121.1 98.7998
c37 45.7002 55.8008 93.7002 55.8008 142.9c0 42.1992 -12.4004 77.5 -37 104.899c-24.4004 27.2998 -54.6006 41.1006 -89.6006 41.1006c-29.7998 0 -53 -8.60059 -69 -25.6006c-16.0996 -17.0996 -24.2002 -38.2002 -24.2002 -62.8994
c0 -29.3008 9.30078 -49.4004 28.5 -61.3008c19.6006 -12.1992 37.9004 -18.3994 54.4004 -18.3994c2.40039 0 21 1.89941 55.2002 5.5h0.5c7.39941 0 13.5996 -1.90039 18.2998 -5.7998c5.09961 -4.10059 7.7002 -10.1006 7.7002 -17.9004
c0 -33.4004 -13.6006 -66.7002 -40.4004 -99.0996c-25.7002 -30.9004 -56.7998 -57.2002 -92.7002 -78.3008zM47.7002 -12.4004l-18.7998 39.6006l3.69922 2.09961c36.4004 20.9004 68 47 93.8008 77.6006c25.3994 30.0996 38.2998 61.1992 38.2998 92.5
c0 4.7998 -1.2002 8.69922 -3.7998 11.8994c-2.2002 2.7998 -6.60059 4.2002 -12.9004 4.2998c-45.7002 -5 -53.7998 -5.59961 -55.9004 -5.59961c-20.5 0 -41 7.40039 -61.0996 21.9004c-20.5996 15 -31 37.1992 -31 66.0996c0 22.5996 7.90039 44.7998 23.5 65.9004
c15.9004 21.5 42.7002 32.3994 79.5996 32.3994c39.4004 0 72.2002 -15.3994 97.3008 -45.8994c25 -30.2002 37.5996 -64.8008 37.5996 -102.9c0 -57.7002 -19.7002 -110.5 -58.7002 -157c-38.7002 -46.2002 -81.5996 -80.2998 -127.6 -101.2zM40.7002 23.5996l11.2998 -24
c43.2002 20.5 83.7002 53 120.3 96.9004c37.5 44.9004 56.6006 95.7002 56.6006 151.2c0 35.8994 -12 68.5996 -35.5 97.0996c-23.3008 28.2002 -53.7002 42.6006 -90.3008 42.6006c-33.7998 0 -58.0996 -9.7002 -72.2998 -28.8008
c-14.3994 -19.5996 -21.7002 -39.8994 -21.7002 -60.5996c0 -26.2002 8.90039 -45.5 27.1006 -58.7002c18.5 -13.3994 37.2002 -20.2002 55.7998 -20.2002c2.90039 0 21.5 1.90039 55.2002 5.5h0.5c9.39941 0 16.2002 -2.59961 20.2002 -7.69922
c3.7998 -4.80078 5.7998 -10.7002 5.7998 -17.6006c0 -33.3994 -13.6006 -66.5 -40.4004 -98.2998c-25.7002 -30.2998 -56.7998 -56.4004 -92.5996 -77.4004z" />
    <glyph glyph-name="uniF1C5" unicode="&#xf1c5;" 
d="M91.3955 328.627c-16.3213 0 -28.9111 12.5898 -28.9111 28.9102v0c0 16.3213 12.5898 28.9111 29.377 28.9111c11.6582 0 18.6523 -4.66309 23.7812 -11.6572l-11.6572 -8.86035c-3.26367 4.19727 -6.99414 6.52832 -12.124 6.52832
c-7.92676 0 -13.5225 -6.52832 -13.5225 -14.9219v0c0 -8.39355 5.5957 -14.9219 13.5225 -14.9219c5.5957 0 9.32617 2.79785 12.5908 6.99512l11.6572 -8.39355c-5.12988 -7.46094 -12.124 -12.5898 -24.7139 -12.5898zM0 448h181.858v-181.858h-181.858v181.858z
M165.071 282.929v148.284h-148.284v-148.284h148.284zM495.68 282.929h181.857v-181.857h-181.857v181.857zM660.75 117.858v148.283h-148.284v-148.283h148.284zM561.895 219.979h48.4951v-13.0566h-31.708v-8.86035h28.9102v-12.123h-28.9102v-8.86035h32.1748v-13.5225
h-48.9619v56.4229zM495.68 117.858h181.857v-181.858h-181.857v181.858zM660.75 -47.6797v148.751h-148.284v-148.751h148.284zM561.895 54.9072h48.4951v-13.0566h-31.708v-8.85938h28.9102v-12.124h-28.9102v-8.86035h32.1748v-13.5225h-48.9619v56.4229zM330.142 448
h181.858v-181.858h-181.858v181.858zM495.68 282.929h-0.466797v148.284h-148.284v-148.284h148.751zM396.823 385.516h48.4951v-13.5225h-32.1748v-8.39355h29.377v-12.5908h-29.377v-8.85938h32.6416v-13.5225h-48.9619v56.8887zM245.741 345.88l-0.46582 -16.7871
h-15.3887v55.9561h26.5791c8.39355 0 14.4561 -2.33105 18.1865 -6.06152c3.26367 -3.26465 5.12891 -7.46094 5.12891 -13.0566v0c0 -8.39355 -4.66309 -14.4551 -11.6572 -17.2529l13.5225 -19.585h-17.7197l-11.1904 16.7871h-6.99512zM245.741 371.526v-13.0566h10.2588
c5.12891 0 8.39355 2.33203 8.39355 6.52832v0c0 4.19727 -3.26465 6.52832 -8.39355 6.52832h-10.2588zM165.071 448h181.857v-181.858h-181.857v181.858zM330.142 282.929v148.284h-148.283v-148.284h148.283zM495.68 448h181.857v-181.858h-181.857v181.858z
M660.75 282.929v148.284h-148.284v-148.284h148.284zM575.417 338.885l-4.19629 -9.79199h-16.3213l24.248 56.4229h14.9219l23.7812 -56.4229h-16.7871l-4.19629 9.79199h-21.4502zM586.142 366.863l-6.52734 -15.8545h12.5898zM330.142 282.929h181.858v-181.857h-181.858
v181.857zM495.68 117.858v0l-0.466797 148.283h-148.284v-148.283h148.751zM428.532 163.556h-14.4561l-22.8486 56.4229h17.2529l13.0566 -35.4395l12.5908 35.4395h17.2529zM330.142 117.858h181.858v-181.858h-181.858v181.858zM495.68 -47.6797v0l-0.466797 148.751
h-148.284v-148.751h148.751zM428.532 -1.51562h-14.4561l-22.8486 56.4229h17.2529l13.0566 -35.4395l12.5908 35.4395h17.2529zM165.071 117.858h181.857v-181.858h-181.857v181.858zM330.142 -47.6797v0v148.751h-148.283v-148.751h148.283zM248.073 -1.51562v55.9561
h16.3203v-55.9561h-16.3203zM165.071 282.929h181.857v-181.857h-181.857v181.857zM330.142 117.858v0v148.283h-148.283v-148.283h148.283zM248.073 164.021v55.957h16.3203v-55.957h-16.3203zM0 282.929h181.858v-181.857h-181.858v181.857zM165.071 117.858v148.283
h-148.284v-148.283h148.284zM83.002 163.556v42.8994h-16.7871v13.5234h49.4277v-13.5234h-16.7861v-42.8994h-15.8545zM0 117.858h181.858v-181.858h-181.858v181.858zM165.071 -47.6797v148.751h-148.284v-148.751h148.284zM115.643 14.8047v-16.3203h-49.4277v56.4229
h15.3877v-40.1025h34.04z" />
    <glyph glyph-name="a" unicode="a" 
d="M0 448h512v-512h-512v512zM465 -17v418h-418v-418h418zM225.1 140.8l-11.2998 -28.2002h-45.8994l67.0996 158.801h42.0996l67.1006 -158.801h-46.7998l-11.5 28.2002h-60.8008zM255.6 219.6l-17.6992 -44.7998h35.2998z" />
    <glyph glyph-name="c" unicode="c" 
d="M256.8 112.3c-45 0 -81.2002 34.5 -81.2998 81.6006v0.399414c0 46 35.2998 82 83 82c32.2002 0 52.9004 -13.5 66.9004 -32.8994l-32.9004 -25.4004c-9 11.2002 -19.2998 18.4004 -34.4004 18.4004c-22 0 -37.5996 -18.6006 -37.5996 -41.6006v-0.5
c0 -23.7002 15.5 -42.0996 37.5996 -42.0996c16.4004 0 26.1006 7.59961 35.5 19.0996l32.9004 -23.3994c-14.7998 -20.5 -34.7998 -35.6006 -69.7002 -35.6006zM0 448h512v-512h-512v512zM465 -17v418h-418v-418h418z" />
    <glyph glyph-name="uniF1B8" unicode="&#xf1b8;" 
d="M144.2 220.2v11.3994h164.3v-7.2998l-122 -243h-13.5l120.9 238.9h-149.7zM419.9 388.7c18.0996 0 32.7998 -14.7002 32.8994 -32.7998v-387c0 -18.2002 -14.7998 -32.9004 -32.8994 -32.9004h-387c-18.2002 0 -32.9004 14.7002 -32.9004 32.9004v387
c0 18.0996 14.7002 32.7998 32.9004 32.7998h47.0996v32.5996c0 14.7002 11.9004 26.7002 26.5 26.7002s26.5996 -12 26.5996 -26.7002v-32.5996h187.2v31.2998c0 14.7002 11.9004 26.7002 26.5 26.7002c14.6006 0 26.5 -12 26.5 -26.7002v-31.2998h46.6006zM330.3 420
v-72.5996c0 -9.2002 7.40039 -16.7002 16.5 -16.7002c9.10059 0 16.5 7.5 16.5 16.7002v72.5996c0 9.2002 -7.39941 16.7002 -16.5 16.7002c-9.09961 0 -16.5 -7.5 -16.5 -16.7002zM90 421.3v-72.5996c0 -9.2002 7.40039 -16.7002 16.5 -16.7002s16.5 7.5 16.5 16.7002
v72.5996c0 9.2002 -7.40039 16.7002 -16.5 16.7002s-16.5 -7.5 -16.5 -16.7002zM32.9004 378.7c-12.6006 0 -22.9004 -10.2002 -22.9004 -22.7998v-70.6006c0.299805 0.100586 0.599609 0.100586 1 0.100586h431.7v70.3994c0 12.6006 -10.2998 22.9004 -22.9004 22.9004
h-46.5996v-31.2998c0 -14.7002 -11.9004 -26.7002 -26.5 -26.7002c-14.6006 0 -26.5 12 -26.5 26.7002v31.2998h-187.2v-30c0 -14.7002 -11.9004 -26.7002 -26.5 -26.7002s-26.5 12 -26.5 26.7002v30h-47.0996zM419.9 -54c12.5996 0 22.7998 10.2998 22.7998 22.9004v306.6
h-431.7c-0.299805 0 -0.700195 0 -1 0.0996094v-306.699c0 -12.6006 10.2998 -22.9004 22.9004 -22.9004h387z" />
    <glyph glyph-name="uniF1C0" unicode="&#xf1c0;" 
d="M135.7 -12.4004c-37.7998 0 -70.2002 14.8008 -96.4004 44.1006c-26.0996 29.2002 -39.2998 66.5 -39.2998 111c0 51.2998 19.5 101.3 57.9004 148.6c38.0996 47.1006 81.2998 81.7998 128.399 103.2l4.10059 1.90039l18.7998 -39.6006l-3.7002 -2.09961
c-36.4004 -20.9004 -68 -47.2998 -93.7998 -78.4004c-25.4004 -30.7002 -38.2998 -62.0996 -38.2998 -93.2998c0 -5 1.39941 -8.5 4.2998 -10.7998c3.09961 -2.5 7.2002 -3.7002 12.3994 -3.7998c45.9004 4.89941 54 5.59961 55.9004 5.59961
c18.2998 0 38.2002 -6.59961 59.2002 -19.7998c21.7002 -13.5 32.7002 -36.7998 32.7002 -69c0 -27 -9 -50.2998 -26.7002 -69.1006c-17.6006 -18.8994 -43.1006 -28.5 -75.5 -28.5zM186 384.4c-44.2002 -21 -84.9004 -54.2002 -121.1 -98.8008
c-37 -45.6992 -55.8008 -93.6992 -55.8008 -142.899c0 -42.2002 12.4004 -77.5 37 -104.9c24.4004 -27.2998 54.6006 -41.0996 89.6006 -41.0996c29.7998 0 53 8.59961 69 25.5996c16.0996 17.1006 24.2002 38.2002 24.2002 62.9004
c0 29.2998 -9.30078 49.3994 -28.5 61.2998c-19.6006 12.2002 -37.9004 18.4004 -54.4004 18.4004c-2.40039 0 -21 -1.90039 -55.2002 -5.5h-0.5c-7.39941 0 -13.5996 1.89941 -18.2998 5.7998c-5.09961 4.09961 -7.7002 10.0996 -7.7002 17.8994
c0 33.4004 13.6006 66.7002 40.4004 99.1006c25.5996 30.8994 56.7002 57.2998 92.5996 78.3994zM408.9 -12.4004c-39.4004 0 -72.2002 15.4004 -97.3008 45.9004c-25 30.2002 -37.5996 64.7998 -37.5996 102.9c0 57.6992 19.7002 110.5 58.7002 157
c38.7002 46.1992 81.5996 80.2998 127.6 101.199l4.10059 1.90039l18.7998 -39.5996l-3.7002 -2.10059c-36.4004 -20.8994 -68 -47 -93.7998 -77.5996c-25.4004 -30.1006 -38.2998 -61.2002 -38.2998 -92.5c0 -4.7998 1.19922 -8.7002 3.7998 -11.9004
c2.2002 -2.7998 6.59961 -4.2002 12.8994 -4.2998c45.7002 5 53.8008 5.59961 55.9004 5.59961c20.5 0 41 -7.39941 61.0996 -21.8994c20.5 -14.9004 30.9004 -37.1006 30.9004 -66.1006c0 -22.5996 -7.90039 -44.7998 -23.5 -65.8994
c-16 -21.7002 -42.7998 -32.6006 -79.5996 -32.6006zM460 384.4c-43.2002 -20.5 -83.7002 -53 -120.3 -96.9004c-37.5 -44.9004 -56.6006 -95.7002 -56.6006 -151.2c0 -35.8994 12 -68.5996 35.5 -97.0996c23.3008 -28.2002 53.7002 -42.6006 90.3008 -42.6006
c33.7998 0 58.0996 9.7002 72.2998 28.8008c14.3994 19.5 21.7998 39.8994 21.7998 60.5c0 26.1992 -8.90039 45.5 -27.0996 58.6992c-18.5 13.4004 -37.2002 20.2002 -55.8008 20.2002c-2.89941 0 -21.5 -1.89941 -55.1992 -5.5h-0.5
c-9.40039 0 -16.2002 2.60059 -20.2002 7.7002c-3.7998 4.7998 -5.7998 10.7002 -5.7998 17.5996c0 33.4004 13.5996 66.5 40.3994 98.3008c25.6006 30.3994 56.7002 56.5 92.6006 77.5z" />
    <glyph glyph-name="uniF1BB" unicode="&#xf1bb;" 
d="M494 398.1c13.9004 -13.7998 13.9004 -36.2998 0 -50.0996l-305.9 -305.6c-6.69922 -6.7002 -15.5996 -10.4004 -25.0996 -10.4004c-6 0 -11.7998 1.5 -16.9004 4.2998c2.80078 -51.7002 -41.3994 -66.0996 -80.7998 -78.8994
c-17.5996 -5.7002 -35.7998 -11.6006 -49.3994 -20.4004h-0.100586c-0.299805 -0.299805 -0.799805 -0.5 -1.2002 -0.599609c-0.199219 0 -0.299805 -0.100586 -0.399414 -0.100586c-0.5 -0.0996094 -0.900391 -0.200195 -1.40039 -0.200195v0v0v0v0
c-0.5 0 -1.09961 0.100586 -1.59961 0.300781c-0.100586 0 -0.299805 0 -0.400391 0.0996094c-0.5 0.200195 -1 0.400391 -1.5 0.799805v0c-0.299805 0.200195 -0.599609 0.5 -0.799805 0.799805v0c-0.0996094 0.100586 -0.0996094 0.200195 -0.200195 0.300781
c-0.0996094 0.0996094 -0.200195 0.299805 -0.299805 0.5c-0.0996094 0.0996094 -0.0996094 0.299805 -0.200195 0.399414c-0.0996094 0.200195 -0.0996094 0.299805 -0.200195 0.5c0 0.200195 -0.0996094 0.299805 -0.0996094 0.5s-0.0996094 0.299805 -0.0996094 0.5v0.5
v0.5c0.0996094 0.200195 0.0996094 0.299805 0.0996094 0.5s0.0996094 0.299805 0.0996094 0.5c0.100586 0.200195 0.100586 0.299805 0.200195 0.5c0.100586 0.200195 0.100586 0.299805 0.200195 0.5s0.200195 0.299805 0.299805 0.5
c0.100586 0.200195 0.100586 0.299805 0.200195 0.400391c8.7998 13.7002 14.7002 31.7998 20.4004 49.3994c12.7998 39.5 27.0996 83.7002 78.8994 80.8008c-7.2998 13.3994 -5.2002 30.5996 6.10059 41.8994l303.199 303.2l-9.59961 9.59961
c-9.2998 9.40039 -24.5996 9.40039 -34 0l-111.8 -111.8c-1.10059 -1.09961 -2.60059 -1.7002 -4 -1.7002c-1.40039 0 -2.90039 0.600586 -4 1.7002c-2.2002 2.2002 -2.2002 5.7998 0 8l111.7 111.9c13.7998 13.7998 36.2998 13.7998 50.0996 0l10.2002 -10.2002
c5.59961 3.5 12 5.40039 18.7998 5.40039c9.5 0 18.4004 -3.7002 25.0996 -10.4004zM62.2002 -31.9004c43.5 14.1006 81.0996 26.3008 71.5996 78.6006l-15.3994 15.3994c-52.4004 9.60059 -64.6006 -28 -78.7002 -71.5
c-2.40039 -7.2998 -4.7998 -14.6992 -7.40039 -21.8994l42 42c2.2002 2.2002 5.7998 2.2002 8 0s2.2002 -5.7998 0 -8l-42 -42c7.2002 2.59961 14.6006 5 21.9004 7.39941zM180.4 50.4004l195.899 195.699l-58.3994 58.4004l-195.801 -195.8
c-9.39941 -9.2998 -9.39941 -24.6006 0 -34l3.2002 -3.2002v0l17.7998 -17.7998l0.100586 -0.100586l3.2002 -3.19922c4.5 -4.5 10.5996 -7 17 -7c6.39941 0 12.5 2.5 17 7zM486 356c9.40039 9.40039 9.40039 24.5996 0 34l-24.4004 24.4004
c-4.5 4.59961 -10.5996 7.09961 -17 7.09961c-6.39941 0 -12.5 -2.59961 -17 -7.09961l-101.8 -101.801l58.4004 -58.3994z" />
    <glyph glyph-name="r" unicode="r" 
d="M227.2 160.9c0 0 0 -47.7002 0.0996094 -47.7002h-43.7002v157.6h74.5c24.1006 0 40.7002 -6.2998 51.3008 -17.0996c9.2998 -9 14 -21.2002 14 -36.7002v-0.5c0 -24.0996 -12.9004 -40.0996 -32.5 -48.4004l37.5996 -54.8994h-50.4004l-31.7998 47.7002h-19.0996z
M227.2 233v-37.9004h28.7998c14.7998 0 23.4004 7.2002 23.4004 18.7002v0.5c0 12.4004 -9 18.7002 -23.6006 18.7002h-28.5996zM0 448h512v-512h-512v512zM465 -17v418h-418v-418h418z" />
    <glyph glyph-name="uniF1BC" unicode="&#xf1bc;" 
d="M338.2 163.2c0 -2.7002 -2.2002 -4.90039 -5 -4.90039h-25.2998l-27.5 -218c-0.300781 -2.5 -2.30078 -4.2998 -4.80078 -4.2998h-31.5c-2.59961 0 -4.69922 1.90039 -4.89941 4.40039l-21.2002 217.899h-23.7002c-2.7002 0 -4.89941 2.2002 -4.89941 4.90039v40.3994
c0 2.7002 2.19922 4.90039 4.89941 4.90039h139c2.7002 0 4.90039 -2.2002 4.90039 -4.90039v-40.3994zM328.4 168.1v30.6006h-129.2v-30.6006h23.2998c2.59961 0 4.7002 -1.89941 4.90039 -4.39941l21.1992 -217.9h22.7002l27.5 218
c0.299805 2.5 2.2998 4.2998 4.7998 4.2998h24.8008zM249.9 217.4c-29 6.59961 -46.9004 31.5 -46.9004 65.1992c-0.0996094 0.5 -0.200195 1 -0.200195 1.5c-0.200195 70.5 38.9004 102.2 53.6006 114.2c1.5 1.2002 2.89941 2.2998 3.59961 3
c23.2998 22.2002 23.7002 41.7002 23.7002 41.9004c0 2.5 2 4.59961 4.5 4.7998s4.7998 -1.59961 5.2002 -4.09961c0.299805 -2 1.2998 -4.80078 2.39941 -8.10059c4.40039 -12.2998 11.6006 -33 -3.7002 -53.5c-4.5 -6.09961 -7.2998 -11.2002 -8.89941 -15.5996
c11.0996 15.2002 26.8994 21.5 27.7998 21.7998c2.2002 0.900391 4.7998 0 6 -2.2002s0.599609 -4.89941 -1.40039 -6.2998c-19.0996 -13.7998 -6.5 -41.7998 -6 -43c22.4004 -44.0996 14.5 -70.2998 13.2002 -74c-6.5 -27.7002 -30.7998 -47.0996 -59.2998 -47.0996v0
c-4.59961 0 -9.09961 0.5 -13.5996 1.5zM262.5 390.7c-13.5996 -11.1006 -49.7002 -40.4004 -49.9004 -105.2c0.200195 -0.5 0.300781 -1 0.300781 -1.59961c-0.5 -29.9004 14.1992 -51.2002 39.2998 -56.9004c3.7002 -0.900391 7.59961 -1.2998 11.3994 -1.2998
c24 0 44.5 16.3994 49.8008 39.7998c0 0.200195 0.0996094 0.5 0.199219 0.700195c0.100586 0.200195 8.80078 24 -12.6992 66.5c-3.7002 7.89941 -7.2002 21.5996 -4.40039 34.3994c-5.5 -5.39941 -10.5996 -12.6992 -12.9004 -22.1992
c-0.399414 -1.80078 -1.89941 -3.2002 -3.69922 -3.60059c-1.90039 -0.399414 -3.80078 0.299805 -4.90039 1.7998c-0.5 0.700195 -12 16.5 9.2998 45.1006c9.7998 13.2002 8 26.3994 4.7002 37.2002c-3.7002 -8.60059 -10.2998 -19.6006 -22.2998 -31.1006
c-1 -1 -2.40039 -2.2002 -4.2002 -3.59961zM378.2 24.7002c1.2998 -0.900391 2.09961 -2.5 2.2002 -4.2998c-0.100586 -1.60059 -1 -3.2002 -2.40039 -4c-1.7998 -1 -10.0996 -9.10059 -21.7998 -21.9004c-3 -3.2002 -7.7998 -4.7998 -14.7998 -4.7998v0
c-11.1006 0 -24.4004 3.89941 -25 4.09961c-2 0.600586 -3.40039 2.40039 -3.5 4.40039c-0.800781 13 4.59961 29.5 35.0996 34.2002c0.5 0.0996094 0.900391 0.199219 1.2002 0.199219c1.5 0.300781 3.09961 0.5 4.7998 0.5c11.9004 0 23.7002 -8.09961 24.2002 -8.39941z
M348.9 1.09961c4 4.40039 12 13.1006 18 18.8008c-3.60059 1.69922 -8.40039 3.5 -13 3.5c-1 0 -2 -0.100586 -2.90039 -0.300781c-0.299805 -0.0996094 -0.900391 -0.199219 -1.59961 -0.299805c-17.1006 -2.59961 -25.9004 -9.39941 -26.8008 -20.5
c4.40039 -1.09961 12.2002 -2.7998 18.7002 -2.7998v0c5.7998 0 7.40039 1.2998 7.60059 1.59961zM426.6 91.0996c1.60059 -0.299805 3 -1.39941 3.7002 -3c0.600586 -1.59961 0.5 -3.2998 -0.5 -4.69922c-1.2002 -1.7002 -5.39941 -12.5 -10.7002 -29
c-1 -2.90039 -6.39941 -13 -35.8994 -17.1006h-0.700195c-1.7998 0 -3.40039 1 -4.2998 2.60059c-6.10059 11.5 -8 28.6992 17.7002 45.6992c0.5 0.300781 0.799805 0.5 1 0.700195c6.2998 4.5 14.6992 5.5 20.6992 5.5c5 0 8.80078 -0.700195 9 -0.700195zM409.8 57.5
c1.7998 5.7002 5.5 16.9004 8.60059 24.5996h-0.800781c-4.5 0 -10.6992 -0.699219 -14.8994 -3.69922c-0.299805 -0.200195 -0.799805 -0.5 -1.40039 -0.900391c-14.5996 -9.59961 -19.7998 -19.4004 -15.8994 -29.9004c13.3994 2.40039 23.3994 6.90039 24.3994 9.90039z
M447.2 128.4c0.399414 -3.10059 -0.299805 -14.5 -25.4004 -30.7002c-0.899414 -0.5 -1.7998 -0.799805 -2.7002 -0.799805c-1 0 -2 0.299805 -2.89941 1c-10.4004 7.7998 -19.4004 22.6992 -3.2002 48.8994c0.299805 0.400391 0.5 0.799805 0.599609 1
c6.60059 12 24.2002 16.7002 24.9004 16.9004c1.7002 0.5 3.40039 0 4.59961 -1.10059c1.2002 -1.09961 1.80078 -2.7998 1.5 -4.39941c-0.399414 -2.40039 0.700195 -15.7002 2.60059 -30.7998zM419.6 108c11.1006 7.7998 18.3008 16.0996 17.8008 19.2002
c-0.700195 5.89941 -2.10059 17.7002 -2.5 25.8994c-4.60059 -2 -10.2002 -5.39941 -12.7002 -9.89941c-0.100586 -0.299805 -0.400391 -0.799805 -0.799805 -1.40039c-9.10059 -14.7998 -9.7002 -25.8994 -1.80078 -33.7998zM428.4 168.1
c-12.6006 3 -26.8008 13.1006 -22.4004 43.6006c0.0996094 0.5 0.200195 0.899414 0.200195 1.2002c1.2998 13.5996 15.5 24.8994 16.0996 25.3994c1.2998 1.10059 3 1.2998 4.60059 0.799805c1.5 -0.599609 2.69922 -1.89941 3.09961 -3.5
c0.599609 -2.39941 6.90039 -14.0996 14.5996 -27.1992c1.60059 -2.7002 5.5 -13.4004 -11 -38.2002c-1 -1.40039 -2.5 -2.2002 -4.09961 -2.2002c-0.299805 0 -0.700195 0 -1.09961 0.0996094zM415.7 210.3c-2.5 -17.2998 1.2998 -27.7002 11.7002 -31.7002
c7.09961 11.6006 10.3994 22.1006 8.7998 24.8008c-3 5.09961 -8.90039 15.2998 -12.6006 22.6992c-3.39941 -3.7998 -7.19922 -9.09961 -7.69922 -14.1992c0 -0.300781 -0.100586 -0.900391 -0.200195 -1.60059zM164 26c30.5 -4.7002 35.9004 -21.2002 35.2002 -34.0996
c-0.100586 -2.10059 -1.5 -3.80078 -3.5 -4.40039c-0.600586 -0.0996094 -13.9004 -4.09961 -25 -4.09961c-7 0 -11.9004 1.59961 -14.7998 4.7998c-10.3008 11.2002 -19.7002 20.5996 -21.8008 21.8994c-1.39941 0.800781 -2.2998 2.30078 -2.39941 4
c-0.100586 1.7002 0.700195 3.30078 2.09961 4.2002c0.5 0.299805 12.2998 8.40039 24.2002 8.40039c1.59961 0 3.2998 -0.200195 4.7998 -0.5c0.299805 -0.100586 0.700195 -0.100586 1.2002 -0.200195zM170.7 -6.90039c6.5 0 14.2998 1.60059 18.7002 2.7002
c-0.800781 11.1006 -9.60059 17.7998 -26.8008 20.5c-0.699219 0.100586 -1.19922 0.200195 -1.59961 0.299805c-0.900391 0.200195 -1.90039 0.300781 -2.90039 0.300781c-4.59961 0 -9.39941 -1.80078 -13 -3.5c5.90039 -5.60059 14 -14.3008 18 -18.7002
c0.300781 -0.299805 1.80078 -1.60059 7.60059 -1.60059zM133.8 33.4004c-0.899414 -1.60059 -2.5 -2.60059 -4.2002 -2.5h-0.699219c-29.5 4.09961 -34.9004 14.0996 -35.9004 17.0996c-5.40039 16.5 -9.5 27.2998 -10.7002 29
c-0.899414 1.40039 -1.09961 3.2002 -0.5 4.7002c0.600586 1.5 2 2.59961 3.60059 2.89941c0.0996094 0 3.89941 0.700195 9 0.700195c6 0 14.3994 -0.899414 20.6992 -5.5c0.200195 -0.200195 0.600586 -0.399414 1 -0.700195
c25.7002 -16.8994 23.8008 -34.1992 17.7002 -45.6992zM126.6 41.0996c3.80078 10.5 -1.39941 20.3008 -15.8994 29.8008c-0.600586 0.399414 -1.10059 0.699219 -1.40039 0.899414c-4.39941 3.2998 -11.0996 3.7998 -15.7002 3.7002
c3.10059 -7.59961 6.80078 -18.7998 8.60059 -24.5c1 -3 11 -7.5 24.3994 -9.90039zM92.7998 90.5c-0.899414 0 -1.89941 0.299805 -2.7002 0.799805c-25 16.2002 -25.6992 27.6006 -25.2998 30.7002c2.2002 17.2002 3 28.7002 2.60059 30.7998
c-0.300781 1.60059 0.299805 3.2998 1.5 4.40039c1.19922 1.09961 2.89941 1.5 4.5 1.09961c0.699219 -0.200195 18.2998 -4.89941 24.8994 -16.8994c0.100586 -0.200195 0.299805 -0.600586 0.600586 -1c16.1992 -26.2002 7.19922 -41.1006 -3.2002 -48.9004
c-0.799805 -0.700195 -1.90039 -1 -2.90039 -1zM74.5 120.7c-0.400391 -3.10059 6.7998 -11.4004 17.7998 -19.2998c7.90039 7.89941 7.2998 19 -1.7998 33.7998c-0.299805 0.599609 -0.599609 1.09961 -0.799805 1.39941c-2.5 4.60059 -8 7.90039 -12.7002 10
c-0.400391 -8.19922 -1.7998 -20 -2.5 -25.8994zM82.4004 161.5c-1.60059 0 -3.10059 0.799805 -4.2002 2.2002c-16.5 24.7998 -12.6006 35.5 -11 38.2002c8.7998 14.8994 14.0996 25.1992 14.5996 27.1992c0.400391 1.60059 1.60059 3 3.2002 3.5
c1.5 0.5 3.2998 0.200195 4.59961 -0.799805c0.600586 -0.399414 14.8008 -11.7998 16.1006 -25.3994c0.0996094 -0.300781 0.0996094 -0.700195 0.200195 -1.2002c4.39941 -30.5 -9.7002 -40.5 -22.4004 -43.6006
c-0.299805 -0.0996094 -0.700195 -0.0996094 -1.09961 -0.0996094zM75.7998 196.9c-1.59961 -2.7002 1.60059 -13.2002 8.7002 -24.8008c10.4004 4.10059 14.2998 14.5 11.7998 31.7002c-0.0996094 0.700195 -0.200195 1.2002 -0.200195 1.60059
c-0.5 5.09961 -4.19922 10.3994 -7.69922 14.1992c-3.60059 -7.2998 -9.60059 -17.5996 -12.6006 -22.6992z" />
    <glyph glyph-name="t" unicode="t" 
d="M0 448h512v-512h-512v512zM465 -17v418h-418v-418h418zM234 112.6v120.301h-47.5996v38.5h139.199v-38.5h-47.5996v-120.301h-44z" />
    <glyph glyph-name="v" unicode="v" 
d="M0 448h512v-512h-512v512zM465 -17v0v418h-418v-418h418zM276.2 112.6h-40.5l-63.9004 158.801h48.9004l35.7998 -99.8008l35.7002 99.8008h48z" />
    <glyph glyph-name="R" unicode="R" 
d="M0 448h512v-512h-512v512zM283.1 95.0996c0 0 62 0 62.1006 0.100586l-46.2998 67.5c24.0996 10.2002 39.8994 29.8994 39.8994 59.5v0.599609c0 19.1006 -5.7998 34 -17.2002 45.1006c-13 13.1992 -33.5 21 -63.0996 21h-91.7002v-193.801h53.7002v58.7002h23.5z
M255.7 242.4c18 0 29.0996 -7.80078 29.0996 -22.9004v-0.599609c0 -14.1006 -10.5 -23 -28.7998 -23h-35.5v46.5h35.2002z" />
    <glyph glyph-name="uniF1AB" unicode="&#xf1ab;" 
 />
    <glyph glyph-name="V" unicode="V" 
d="M0 448h512v-512h-512v512zM280.9 94.4004l78.6992 195.199h-59l-44 -122.6l-44 122.6h-60.0996l78.5996 -195.199h49.8008z" />
    <glyph glyph-name="T" unicode="T" 
d="M0 448h512v-512h-512v512zM341 241.8v47.1006h-170v-47.1006h58.0996v-146.7h53.7002v146.7h58.2002z" />
    <glyph glyph-name="C" unicode="C" 
d="M0 448h512v-512h-512v512zM263.1 91.2002c42.9004 0 67.5 18.5996 85.7002 43.8994l-40.3994 28.8008c-11.6006 -14.1006 -23.5 -23.5 -43.7002 -23.5c-27.2002 0 -46.2998 22.5996 -46.2998 51.6992v0.5c0 28.2002 19.1992 51.2002 46.2998 51.2002
c18.5996 0 31.2998 -8.89941 42.3994 -22.7002l40.4004 31.3008c-17.2002 23.7998 -42.7002 40.3994 -82.2998 40.3994c-58.6006 0 -102.101 -44.2998 -102.101 -100.8v-0.599609c0 -57.8008 44.6006 -100.2 100 -100.2z" />
    <glyph glyph-name="A" unicode="A" 
d="M0 448h512v-512h-512v512zM306.8 94.7002v-1h58.2002l-82.7998 195.6h-51.2998l-82.9004 -195.6h56.2002l13.7998 34.8994h75zM233.8 170.5l21.7002 54.9004l21.7002 -54.9004h-43.4004z" />
    <glyph glyph-name="E" unicode="E" 
d="M0 448h512v-512h-512v512zM334.6 95.0996v0v45.6006h-104.1v30.7002h93v42.3994h-93v29.4004h102.7v45.7002h-155.8v-193.801h157.199z" />
    <glyph glyph-name="I" unicode="I" 
d="M0 448h512v-512h-512v512zM283 95.0996v193.801h-54v-193.801h54z" />
    <glyph glyph-name="L" unicode="L" 
d="M0 448h512v-512h-512v512zM329.8 95.0996v0v47.1006h-93.7998v146.7h-53.7002v-193.801h147.5z" />
    <glyph glyph-name="uniF1B5" unicode="&#xf1b5;" 
d="M57.9004 290.9c38.5996 47.5996 81.5996 82.1992 129.1 103.8l15.4004 -32.4004c-37.8008 -21.7002 -70 -48.5996 -96.7002 -80.8994c-26.7002 -32.2002 -40.1006 -64.9004 -40.1006 -97.9004c0 -6.5 2 -11.4004 6.10059 -14.5996
c4 -3.2002 9.2998 -4.90039 15.7998 -4.90039c35.0996 3.7998 53.9004 5.7002 56.7002 5.7002c17.7998 0 37.0996 -6.5 57.8994 -19.4004c20.8008 -12.8994 31.2002 -35.0996 31.2002 -66.3994c0 -26.4004 -8.59961 -48.8008 -25.8994 -67.2002
c-17.3008 -18.2998 -41.8008 -27.5 -73.6006 -27.5c-37.2002 0 -68.7998 14.5 -94.7002 43.3994c-26.0996 29 -39.0996 65.6006 -39.0996 109.9c0 51.4004 19.2998 100.9 57.9004 148.4zM337.6 293c39.1006 46.7998 81.9004 80.7002 128.301 101.8l15.3994 -32.3994
c-37.7998 -21.7002 -70 -48.4004 -96.7002 -80.1006c-26.6992 -31.7002 -40.0996 -64.0996 -40.0996 -97.0996c0 -6 1.59961 -11 4.90039 -15c3.19922 -4.10059 8.89941 -6.10059 17 -6.10059c34.5 3.80078 53.3994 5.7002 56.6992 5.7002
c20 0 39.8008 -7.2002 59.5 -21.3994c19.7002 -14.3008 29.5 -35.5 29.5 -63.5c0 -22.1006 -7.69922 -43.6006 -23.0996 -64.3008c-15.4004 -20.7998 -41.0996 -31.1992 -77.2998 -31.1992c-38.7998 0 -70.7002 15 -95.5 45s-37.2002 63.8994 -37.2002 101.8
c-0.0996094 57.7002 19.5 110 58.5996 156.8z" />
    <glyph glyph-name="uniF1B9" unicode="&#xf1b9;" 
d="M336.7 126.1h-151.2v-11.3994h150.9zM449.5 388.7c18.0996 0 32.9004 -14.7002 32.9004 -32.9004v-387c0 -18.2002 -14.8008 -32.8994 -32.9004 -32.8994h-387c-18.2002 0 -32.9004 14.7998 -32.9004 32.8994v387c0 18.2002 14.8008 32.9004 32.9004 32.9004h47.0996
v32.5996c0 14.7002 11.8008 26.7002 26.5 26.7002c14.7002 0 26.6006 -12 26.6006 -26.7002v-32.5996h187.3v31.2998c0 14.7002 11.9004 26.7002 26.5 26.7002s26.5 -12 26.5 -26.7002v-31.2998h46.5zM359.9 420h0.0996094v-72.5996
c0 -9.2002 7.40039 -16.7002 16.5 -16.7002s16.5 7.5 16.5 16.7002v72.5996c0 9.2002 -7.5 16.7002 -16.5996 16.7002c-9.10059 0 -16.5 -7.5 -16.5 -16.7002zM119.6 421.3v-72.5996c0 -9.2002 7.40039 -16.7002 16.5 -16.7002c9.10059 0 16.5 7.5 16.5 16.7002v72.5996
c0 9.2002 -7.39941 16.7002 -16.5 16.7002c-9.09961 0 -16.5 -7.5 -16.5 -16.7002zM62.5 378.7c-12.5996 0 -22.9004 -10.2002 -22.7998 -22.7998v-70.6006c0.299805 0.100586 0.599609 0.100586 1 0.100586h431.6v70.3994c0 12.6006 -10.2998 22.9004 -22.8994 22.9004
h-46.6006v-31.2998c0 -14.7002 -11.8994 -26.7002 -26.5 -26.7002c-14.5996 0 -26.5 12 -26.5 26.7002v31.2998h-187.2v-30c0 -14.7002 -11.8994 -26.7002 -26.5 -26.7002c-14.5996 0 -26.5 12 -26.5 26.7002v30h-47.0996zM449.5 -54
c12.5996 0 22.9004 10.2998 22.7998 22.9004v306.6h-431.7c-0.299805 0 -0.699219 0 -1 0.0996094v-306.699c0 -12.6006 10.3008 -22.9004 22.9004 -22.9004h387zM266.9 44.7998v151.2h-11.5v-150.9z" />
    <glyph glyph-name="uniF1B6" unicode="&#xf1b6;" 
d="M505.7 359.7c3.5 0 6.2998 -2.7998 6.2998 -6.2998v-48.6006c0 -4.89941 -1.40039 -9.59961 -4.2998 -14.0996c2.5 -0.799805 4.2998 -3.10059 4.2998 -5.90039v-48.5996c0 -4.90039 -1.40039 -9.60059 -4.2998 -14.1006c2.5 -0.799805 4.2998 -3.09961 4.2998 -5.89941
v-48.6006c0 -4.89941 -1.40039 -9.59961 -4.2998 -14.0996c2.5 -0.799805 4.2998 -3.09961 4.2998 -5.90039v-48.5996c0 -16.2998 -15.9004 -30.2998 -46 -40.7002c-27.5 -9.5 -64 -14.7002 -102.8 -14.7002c-22.9004 0 -45.4004 1.90039 -65.6006 5.40039v-41.7002
c0 -16.2002 -15.8994 -30.2998 -46 -40.7002c-27.5 -9.5 -64.0996 -14.6992 -102.8 -14.6992s-75.2002 5.19922 -102.8 14.6992c-30.0996 10.4004 -46 24.5 -46 40.7002v50.7998c0 2.40039 1.40039 4.40039 3.2998 5.5c-2.2002 3.90039 -3.2998 8 -3.2998 12.3008v50.7998
c0 2.39941 1.40039 4.39941 3.2998 5.5c-2.2002 3.89941 -3.2998 8 -3.2998 12.2998v50.7998c0 3 2.09961 5.5 4.90039 6.10059c-3.2002 4.7998 -4.90039 9.7998 -4.90039 15c0 16.1992 15.9004 30.2998 46 40.6992c27.5 9.5 64 14.7002 102.8 14.7002
c23.2002 0 45.5 -1.89941 65.6006 -5.39941v20.5996c0 2.40039 1.39941 4.40039 3.2998 5.5c-2.2002 3.90039 -3.2998 8 -3.2998 12.2998v50.7998c0 3 2.09961 5.5 4.89941 6.10059c-3.2002 4.7998 -4.89941 9.7998 -4.89941 15c0 16.2002 15.8994 30.2998 46 40.7002
c27.5 9.59961 64.0996 14.7998 102.8 14.7998s75.2002 -5.2002 102.8 -14.7002c30.0996 -10.4004 46 -24.5 46 -40.7002c0 -6 -2.2002 -11.7998 -6.5 -17.0996h0.200195zM499.5 167.6h0.0996094v45.5c-7.7998 -6.59961 -19 -12.5 -33.5 -17.5
c-27.5 -9.5 -64 -14.6992 -102.8 -14.6992c-22.8994 0 -45.2998 1.89941 -65.5996 5.39941v-41.7002c0 -4.69922 -1.40039 -9.19922 -4 -13.5c21 -4.19922 45 -6.39941 69.5 -6.39941c80.2998 0 136.3 22.5996 136.3 42.8994zM284.1 192.4
c-7.59961 -6.2002 -18.5 -11.9004 -32.5 -16.7002c-27.5 -9.5 -64.0996 -14.7002 -102.8 -14.7002s-75.2002 5.2002 -102.8 14.7002c-14.5996 5 -25.7998 10.8994 -33.5 17.5v-48.7002c0 -20.2998 56 -42.9004 136.3 -42.9004s136.3 22.6006 136.3 42.9004v45.7998
c-0.5 0.600586 -0.799805 1.2998 -1 2.10059zM12.5 121.3v-45.3994c0 -20.3008 56 -42.9004 136.3 -42.9004s136.3 22.5996 136.3 42.9004v45.3994c-7.7998 -6.59961 -19 -12.5 -33.5 -17.5c-27.5 -9.5 -64.0996 -14.7002 -102.8 -14.7002s-75.2002 5.2002 -102.8 14.7002
c-14.5996 5 -25.7998 10.9004 -33.5 17.5zM226.9 353.5v0v-48.7002c0 -20.2998 56 -42.8994 136.3 -42.8994s136.3 22.5996 136.3 42.8994v48.6006v0.0996094c-7.7998 -6.59961 -19 -12.5 -33.5 -17.5c-27.5 -9.5 -64.0996 -14.7002 -102.8 -14.7002
s-75.2002 5.2002 -102.8 14.7002c-14.6006 5 -25.8008 10.9004 -33.5 17.5zM363.2 419.7c-80.2998 0 -136.3 -22.7002 -136.3 -43s56 -42.7998 136.3 -42.7998s136.3 22.5996 136.3 42.8994s-56 42.9004 -136.3 42.9004zM226.9 281.6v0v-17.5
c8.89941 -2 17.1992 -4.2998 24.7998 -6.89941c30.0996 -10.4004 46 -24.5 46 -40.7002c0 -5.7998 -2.10059 -11.2998 -6 -16.4004c21.5 -4.5 46.2002 -6.7998 71.5 -6.7998c80.2998 0 136.3 22.6006 136.3 42.9004v45.3994c-7.7998 -6.59961 -19 -12.5 -33.5 -17.5
c-27.5 -9.5 -64.0996 -14.6992 -102.8 -14.6992s-75.2002 5.19922 -102.8 14.6992c-14.6006 5 -25.8008 10.9004 -33.5 17.5zM148.8 259.3c-80.2998 0 -136.3 -22.5996 -136.3 -42.8994c0 -20.3008 56 -42.9004 136.3 -42.9004s136.3 22.5996 136.3 42.9004
c0 13.5 -25 28.0996 -65.5 36.2998c-0.199219 0 -0.299805 0.0996094 -0.5 0.0996094c-20 4 -43.7998 6.5 -70.2998 6.5zM148.8 -35.7002c80.2998 0 136.3 22.6006 136.3 42.9004v45.3994c-7.7998 -6.59961 -19 -12.5 -33.5 -17.5
c-27.5 -9.5 -64.0996 -14.6992 -102.8 -14.6992s-75.2002 5.19922 -102.8 14.6992c-14.5996 5 -25.7998 10.9004 -33.5 17.5v-45.3994c0 -20.2998 56 -42.9004 136.3 -42.9004zM363.2 56c80.2998 0 136.3 22.5996 136.3 43v45.4004c-7.7998 -6.60059 -19 -12.5 -33.5 -17.5
c-27.5 -9.5 -64 -14.7002 -102.8 -14.7002c-22.9004 0 -45.4004 1.89941 -65.6006 5.39941v-41.6992c0 -4.7002 -1.39941 -9.2002 -4 -13.5c21.1006 -4.2002 45.1006 -6.40039 69.6006 -6.40039z" />
    <glyph glyph-name="uniF1C1" unicode="&#xf1c1;" 
d="M474.7 350.3c20 0 36.3994 -16.2998 36.3994 -36.2998v-244c0 -20.0996 -16.2998 -36.4004 -36.3994 -36.4004h-438.3c-20.1006 0 -36.4004 16.3008 -36.4004 36.4004v244c0 20 16.2998 36.2998 36.4004 36.2998h438.3zM501.1 70v0v244
c0 14.5996 -11.8994 26.4004 -26.3994 26.4004h-438.3c-14.6006 0 -26.4004 -11.9004 -26.4004 -26.4004v-244c0 -14.5 11.7998 -26.2998 26.4004 -26.4004h438.3c14.5996 0 26.3994 11.9004 26.3994 26.4004zM255.5 310.6c65.4004 0 118.7 -53.1992 118.7 -118.6
s-53.2002 -118.6 -118.601 -118.6c-65.3994 0 -118.6 53.1992 -118.6 118.6s53.0996 118.6 118.5 118.6zM255.5 83.4004c59.9004 0 108.6 48.6992 108.6 108.6s-48.5996 108.6 -108.5 108.6c-59.8994 0 -108.6 -48.6992 -108.6 -108.6s48.7002 -108.6 108.5 -108.6z
M255.5 254.2c34.2998 0 62.2998 -27.9004 62.2002 -62.2002c0 -34.2998 -27.9004 -62.2002 -62.2002 -62.2002s-62.2002 27.9004 -62.2002 62.2002s27.9004 62.2002 62.2002 62.2002zM255.5 139.8c28.7998 0 52.2998 23.4004 52.2002 52.2002
c0 28.7998 -23.4004 52.2002 -52.2002 52.2002s-52.2002 -23.4004 -52.2002 -52.2002s23.4004 -52.2002 52.2002 -52.2002z" />
    <glyph glyph-name="e" unicode="e" 
d="M0 448h512v-512h-512v512zM465 -17v418h-418v-418h418zM186.8 271.4h137.2v-37.4004h-90.4004v-24.0996h81.9004v-34.7002h-81.9004v-25.2002h91.6006v-37.4004h-138.4v158.801z" />
    <glyph glyph-name="uniF1BD" unicode="&#xf1bd;" 
d="M473.9 448c20.1992 0 36.5996 -16.5 36.5996 -36.7002v-14.0996v-43v-55.2002v-43v-50.5v-43.0996v-50.7002v-43.1006v-58.0996v-36.4004v-6.69922c0 -16.5 -13.5 -30 -30 -30h-6.7002h-74.3994h-362.7c-20.2002 0 -36.7002 16.5 -36.7002 36.6992v437.2
c0 20.2002 16.5 36.7002 36.7002 36.7002h437.2zM499.3 111.7v27.2998c-5.09961 -4.2002 -11.7002 -6.7002 -18.7998 -6.7002h-75.5v-82.5h75.5c10.4004 0 18.7998 8.40039 18.7998 18.7998v43.1006zM499.3 205.4v27.0996
c-5.09961 -4.2002 -11.7002 -6.7002 -18.7998 -6.7002h-75.5v-82.2998h75.5c10.4004 0 18.7998 8.40039 18.7998 18.7998v43.1006zM499.3 299v31.7998c-5.09961 -4.2002 -11.7002 -6.7002 -18.7998 -6.7002h-75.5v-87h75.5c10.4004 0 18.7998 8.40039 18.7998 18.8008
v43.0996zM499.3 411.3c0 14.1006 -11.3994 25.5 -25.3994 25.5h-362.2v-488.2h282.1v381.101c0 3.09961 2.5 5.59961 5.60059 5.59961h81.0996c10.4004 0 18.7998 8.40039 18.7998 18.7998v43.1006v14.0996zM11.2002 -25.9004c0 -14 11.3994 -25.3994 25.5 -25.3994h63.7998
v488.1h-63.7998c-14.1006 0 -25.5 -11.3994 -25.5 -25.5v-437.2zM405 -51.2998v0h68.7998c14.1006 0 25.5 11.3994 25.5 25.5v36.3994v34.8008c-5.09961 -4.2002 -11.7002 -6.7002 -18.7998 -6.7002h-75.5v-90z" />
    <glyph glyph-name="uniF1B4" unicode="&#xf1b4;" 
d="M454.1 93.0996c-38.5996 -47.5996 -81.5996 -82.1992 -129.1 -103.8l-15.4004 32.4004c37.8008 21.7002 70 48.5996 96.7002 80.8994c26.7002 32.2002 40.1006 64.9004 40.1006 97.9004c0 6.5 -2 11.4004 -6.10059 14.5996c-4 3.2002 -9.2998 4.90039 -15.7998 4.90039
c-35.0996 -3.7998 -53.9004 -5.7002 -56.7002 -5.7002c-17.7998 0 -37.0996 6.5 -57.8994 19.4004c-20.8008 12.8994 -31.2002 35.0996 -31.2002 66.3994c0 26.4004 8.59961 48.8008 25.8994 67.2002c17.3008 18.2998 41.8008 27.5 73.6006 27.5
c37.2002 0 68.7998 -14.5 94.7002 -43.3994c25.8994 -28.9004 38.7998 -65.5 38.7998 -109.9c0.299805 -51.4004 -19 -100.9 -57.6006 -148.4zM174.4 91c-39.1006 -46.7998 -81.9004 -80.7002 -128.301 -101.8l-15.3994 32.3994c37.7998 21.7002 70 48.4004 96.7002 80.1006
c26.6992 31.7002 40.0996 64.0996 40.0996 97.0996c0 6 -1.59961 11 -4.90039 15c-3.19922 4.10059 -8.89941 6.10059 -17 6.10059c-34.5 -3.80078 -53.3994 -5.7002 -56.6992 -5.7002c-20 0 -39.8008 7.2002 -59.5 21.3994
c-19.6006 14.4004 -29.4004 35.6006 -29.4004 63.6006c0 22.0996 7.7002 43.5996 23.0996 64.2998c15.4004 20.7998 41.1006 31.2002 77.3008 31.2002c38.7998 0 70.6992 -15 95.5 -45c24.7998 -30 37.1992 -63.9004 37.1992 -101.8
c0 -57.8008 -19.5996 -110.101 -58.6992 -156.9z" />
    <glyph glyph-name="uniF1A0" unicode="&#xf1a0;" 
d="M490.4 127c20 -15.7002 27.1992 -49.2002 16.7998 -81.7998c-10.2998 -33.1006 -35.1006 -56.2998 -60.9004 -57.6006l-3.09961 -9.69922c-4.90039 -15.3008 -18.9004 -25.6006 -34.9004 -25.6006v0c-3.7002 0 -7.39941 0.600586 -11 1.7002l-41 12.9004
c-9.2998 2.89941 -16.8994 9.2998 -21.3994 18c-4.5 8.69922 -5.30078 18.5996 -2.40039 27.8994l51.5 163.2c4.90039 15.2998 18.9004 25.5996 34.9004 25.5996c3.69922 0 7.39941 -0.599609 11 -1.69922l14 -4.40039c1.69922 28.2002 2.39941 117.4 -49.3008 176.9
c-32.1992 37.0996 -79.1992 56.5 -139.8 57.6992c-60.3994 -1.19922 -107.5 -20.5996 -139.7 -57.6992c-52.1992 -60.2002 -50.8994 -150.601 -49.1992 -177.801l16.6992 5.30078c3.60059 1.09961 7.30078 1.69922 11 1.69922c16.1006 0 30.1006 -10.2998 34.9004 -25.5996
l51.5 -163.2c3 -9.2998 2.09961 -19.2002 -2.40039 -27.8994c-4.5 -8.7002 -12.0996 -15.1006 -21.3994 -18l-41 -12.9004c-3.60059 -1.09961 -7.2998 -1.7002 -11 -1.7002c-16.1006 0 -30.1006 10.2998 -34.9004 25.6006l-3.09961 9.69922
c-26 0.900391 -51.2002 24.3008 -61.6006 57.6006c-10.2998 32.8994 -2.89941 66.7002 17.4004 82.0996l-4.2998 13.7998c-6 19.3008 4.7002 39.8008 23.8994 45.9004l14.6006 4.59961c-2 25.3008 -5.40039 121.7 51.5 187.301
c34.0996 39.2998 83.5996 59.8994 147.1 61.0996c63.7002 -1.2002 113.2 -21.7998 147.3 -61c56.3008 -64.7998 53.5 -159.8 51.5 -186.4l17.4004 -5.5c19.2998 -6.09961 30 -26.6992 23.9004 -45.8994zM14 48.2002c8.40039 -27 28.0996 -47.2002 48.2998 -50.4004
l-37.2002 119.2c-14.8994 -14 -19.5996 -41.5996 -11.0996 -68.7998zM112.1 -36.5l16.7002 5.2998l-70.8994 213l-13.3008 -4.2002c-14 -4.39941 -21.7998 -19.5 -17.3994 -33.5l51.3994 -163.1c3.60059 -11.2002 13.8008 -18.7002 25.5 -18.7002
c2.7002 0 5.40039 0.400391 8 1.2002zM85.5996 190.5l-18.2998 -5.90039l70.9004 -213l14.8994 4.7002c6.90039 2.10059 12.4004 6.7998 15.7002 13.1006c3.2998 6.39941 3.90039 13.5996 1.7998 20.3994l-51.5 163.2c-3.59961 11.2002 -13.7998 18.7002 -25.5 18.7002
c-2.69922 0 -5.39941 -0.400391 -8 -1.2002zM343.9 -10.4004c3.19922 -6.39941 8.7998 -11 15.6992 -13l12.6006 -4l70.5996 213.101l-15.7002 5c-2.59961 0.799805 -5.2998 1.2002 -8 1.2002c-11.7998 0 -22 -7.5 -25.5 -18.7002l-51.5 -163.2
c-2.09961 -6.7998 -1.5 -14.0996 1.80078 -20.4004zM434 -19.0996l9.59961 30.3994l36 115.4c0.200195 0.599609 0.5 1.09961 0.900391 1.59961l5 15.7002c2.09961 6.7998 1.5 14.0996 -1.7998 20.4004c-3.2998 6.2998 -8.90039 11 -15.7002 13.0996l-15.9004 5
l-70.5996 -213.1l19 -6c2.59961 -0.800781 5.2998 -1.2002 8 -1.2002c11.7998 0 22 7.5 25.5 18.7002zM498 48.2002c8.40039 27 3.7998 54.5 -10.7002 68.5996l-34.2002 -108.399l-3.2998 -10.5c20.1006 3.09961 39.7998 23.2998 48.2002 50.2998z" />
    <glyph glyph-name="uniF1BA" unicode="&#xf1ba;" 
d="M256 448c141.2 0 256 -114.8 256 -256s-114.8 -256 -256 -256s-256 114.8 -256 256s114.8 256 256 256zM256 -53.5996c135.4 0 245.6 110.199 245.6 245.6s-110.199 245.6 -245.6 245.6s-245.6 -110.199 -245.6 -245.6s110.199 -245.6 245.6 -245.6zM304.4 297.4
c2.69922 -1.10059 4 -4.10059 2.89941 -6.80078l-46.5 -117.1c-0.799805 -2 -2.7002 -3.2998 -4.7998 -3.2998c-0.299805 0 -0.700195 0 -1 0.0996094c-2.40039 0.5 -4.2002 2.60059 -4.2002 5.10059v181.699c0 2.90039 2.2998 5.2002 5.2002 5.2002
s5.2002 -2.2998 5.2002 -5.2002v-154.5l36.5 91.9004c1 2.7002 4 4 6.7002 2.90039z" />
    <glyph glyph-name="uniF1C3" unicode="&#xf1c3;" 
d="M0 448h512v-512h-512v512zM262.564 90.9131c43.3223 0 68.2666 18.3789 86.6455 43.3232l-40.6973 28.8818c-11.8154 -14.4414 -23.6309 -23.6309 -43.3232 -23.6309c-26.2559 0 -45.9482 22.3174 -45.9482 51.2002v0c0 27.5693 18.3789 51.1992 45.9482 51.1992
c18.3799 0 31.5078 -7.87598 42.0107 -22.3174l40.6973 31.5078c-17.0664 23.6309 -43.3232 40.6973 -82.708 40.6973c-59.0762 0 -102.399 -44.6357 -102.399 -101.087v0c0 -57.7646 44.6357 -99.7744 99.7744 -99.7744zM564.513 448h512v-512h-512v512zM848.082 94.8516
l61.7021 2.625l-45.9482 66.9541c23.6309 9.18945 39.3848 28.8818 39.3848 59.0771v0c0 18.3789 -5.25195 34.1328 -17.0664 44.6357c-13.1289 13.1279 -32.8213 21.0049 -63.0156 21.0049h-91.8975v-194.297h53.8252v59.0762h23.6309zM820.513 241.887
c17.0664 0 28.8818 -7.87598 28.8818 -23.6299v0c0 -13.1289 -10.502 -22.3184 -28.8818 -22.3184h-35.4463v45.9482h35.4463zM1129.03 448h512v-512h-512v512zM1463.79 94.8516v0v47.2617h-103.713v30.1943h93.21v42.0107h-93.21v28.8818h102.4v45.9482h-156.226v-194.297
h157.538zM1693.54 448h512v-512h-512v512zM2000.74 94.8516v0l56.4512 -1.31348l-82.707 195.61h-51.2002l-82.708 -195.61h56.4512l14.4414 35.4463h74.8311zM1927.22 170.995l22.3174 53.8252l21.0059 -53.8252h-43.3232zM2258.05 448h512v-512h-512v512zM2599.38 241.887
v47.2617h-170.667v-47.2617h59.0771v-147.035h53.8252v147.035h57.7646zM2822.56 448h512v-512h-512v512zM3106.13 94.8516v194.297h-53.8262v-194.297h53.8262zM3387.08 448h512v-512h-512v512zM3668.02 94.8516l80.082 195.61h-59.0771l-44.6357 -122.093
l-44.6357 122.093h-60.3896l78.7695 -195.61h49.8867zM3951.59 448h512v-512h-512v512zM4286.36 94.8516v0v47.2617h-103.713v30.1943h93.21v42.0107h-93.21v28.8818h102.399v45.9482h-156.226v-194.297h157.539zM4516.1 448h512v-512h-512v512zM4845.62 94.8516v0v47.2617
h-93.21v147.035h-53.8252v-194.297h147.035zM5080.62 448h512v-512h-512v512zM5364.18 94.8516v194.297h-53.8252v-194.297h53.8252zM5645.13 448h512v-512h-512v512zM5926.07 94.8516l80.082 195.61h-59.0771l-44.6357 -122.093l-44.6367 122.093h-60.3896l78.7695 -195.61
h49.8877zM6209.64 448h512v-512h-512v512zM6544.41 94.8516v0v47.2617h-103.713v30.1943h93.21v42.0107h-93.21v28.8818h102.4v45.9482h-156.226v-194.297h157.538z" />
    <glyph glyph-name="uniF1B7" unicode="&#xf1b7;" 
d="M118.5 140.4h-118.5v-9h118.3zM486.2 346.2c14.2002 0 25.7998 -11.6006 25.8994 -25.7998v-303.301c0 -14.1992 -11.5996 -25.7998 -25.7998 -25.7998h-303.3c-14.2002 0 -25.7998 11.6006 -25.7998 25.7998v303.301c0 14.1992 11.5996 25.7998 25.7998 25.7998h36.9004
v25.5c0 11.5 9.2998 20.8994 20.7998 20.8994s20.7998 -9.39941 20.7998 -20.8994v-25.5h146.6v24.5c0 11.5 9.30078 20.8994 20.8008 20.8994s20.7998 -9.39941 20.7998 -20.8994v-24.5h36.5zM416 370.7v-56.9004c0 -7.2002 5.90039 -13.0996 13 -13.0996
c7.2002 0 13 5.89941 13 13.0996v56.9004c0 7.2002 -5.90039 13.0996 -13 13.0996c-7.2002 0 -13 -5.89941 -13 -13.0996zM227.7 371.7v-56.9004c0 -7.2002 5.89941 -13.0996 13 -13.0996c7.2002 0 13 5.89941 13 13.0996v56.9004c0 7.2002 -5.90039 13.0996 -13 13.0996
c-7.2002 0 -13 -5.89941 -13 -13.0996zM183 338.3c-9.90039 0 -17.9004 -8 -17.9004 -17.8994v-55.3008c0.200195 0.100586 0.5 0.100586 0.800781 0.100586h338.3v55.2002c0 9.89941 -8 17.8994 -17.9004 17.8994h-36.5v-24.5c0 -11.5 -9.2998 -20.8994 -20.7998 -20.8994
s-20.7998 9.39941 -20.7998 20.8994v24.5h-146.7v-23.5c0 -11.5 -9.2998 -20.8994 -20.7998 -20.8994s-20.7998 9.39941 -20.7998 20.8994v23.5h-36.9004zM486.2 -0.799805c9.89941 0 18 8.09961 18 17.8994v240.301h-338.3c-0.300781 0 -0.5 0 -0.800781 0.0996094v-240.4
c0 -9.89941 8 -17.8994 17.9004 -17.8994h303.2zM63.7002 76.7002v118.399h-9v-118.199z" />
    <glyph glyph-name="uniF1C4" unicode="&#xf1c4;" 
d="M0 448h159.744v-159.744h-159.744v159.744zM81.9199 336.589c13.5166 0 21.2988 5.73438 27.0332 13.5166l-12.6973 9.01172c-3.68652 -4.50586 -7.37305 -7.37305 -13.5166 -7.37305c-8.19238 0 -14.3359 6.96289 -14.3359 15.9746v0
c0 8.60156 5.73438 15.9736 14.3359 15.9736c5.73438 0 9.83008 -2.45703 13.1074 -6.96289l12.6973 9.83008c-5.3252 7.37305 -13.5166 12.6982 -25.8047 12.6982c-18.4316 0 -31.9492 -13.9268 -31.9492 -31.5391v0c0 -18.0225 13.9268 -31.1299 31.1299 -31.1299z
M176.128 448h159.744v-159.744h-159.744v159.744zM264.602 337.817l19.251 0.819336l-14.3359 20.8896c7.37305 2.86719 12.2881 9.01172 12.2881 18.4316v0c0 5.73438 -1.63867 10.6504 -5.32422 13.9268c-4.09668 4.0957 -10.2402 6.55371 -19.6611 6.55371h-28.6719
v-60.6211h16.793v18.4326h7.37305zM256 383.692c5.3252 0 9.01074 -2.45703 9.01074 -7.37207v0c0 -4.09668 -3.27637 -6.96387 -9.01074 -6.96387h-11.0596v14.3359h11.0596zM352.256 448h159.744v-159.744h-159.744v159.744zM456.704 337.817v0v14.7461h-32.3584v9.4209
h29.0811v13.1064h-29.0811v9.01172h31.9482v14.3359h-48.7422v-60.6211h49.1523zM528.384 448h159.744v-159.744h-159.744v159.744zM624.23 337.817v0l17.6123 -0.40918l-25.8047 61.0303h-15.9736l-25.8057 -61.0303h17.6133l4.50586 11.0586h23.3467zM601.293 361.574
l6.96289 16.7939l6.55371 -16.7939h-13.5166zM0 271.872h159.744v-159.744h-159.744v159.744zM106.496 207.564v14.7461h-53.248v-14.7461h18.4316v-45.875h16.7939v45.875h18.0225zM176.128 271.872h159.744v-159.744h-159.744v159.744zM264.602 161.689v60.6211h-16.7939
v-60.6211h16.7939zM352.256 271.872h159.744v-159.744h-159.744v159.744zM439.91 161.689l24.9863 61.0303h-18.4326l-13.9258 -38.0928l-13.9268 38.0928h-18.8418l24.5762 -61.0303h15.5645zM528.384 271.872h159.744v-159.744h-159.744v159.744zM632.832 161.689v0
v14.7461h-32.3584v9.4209h29.082v13.1064h-29.082v9.01172h31.9492v14.3359h-48.7432v-60.6211h49.1523zM0 95.7441h159.744v-159.744h-159.744v159.744zM102.81 -14.4385v0v14.7461h-29.082v45.875h-16.793v-60.6211h45.875zM176.128 95.7441h159.744v-159.744h-159.744
v159.744zM264.602 -14.4385v60.6211h-16.7939v-60.6211h16.7939zM352.256 95.7441h159.744v-159.744h-159.744v159.744zM439.91 -14.4385l24.9863 61.0303h-18.4326l-13.9258 -38.0928l-13.9268 38.0928h-18.8418l24.5762 -61.0303h15.5645zM528.384 95.7441h159.744
v-159.744h-159.744v159.744zM632.832 -14.4385v0v14.7461h-32.3584v9.41992h29.082v13.1074h-29.082v9.01172h31.9492v14.3359h-48.7432v-60.6211h49.1523z" />
    <glyph glyph-name="uniF1BE" unicode="&#xf1be;" 
d="M501.7 344.8c6.59961 -6.7002 10.2998 -15.5 10.2998 -24.8994c0 -9.40039 -3.7002 -18.3008 -10.2998 -24.9004l-348.7 -348.7c-6.7002 -6.59961 -15.5 -10.2998 -24.9004 -10.2998c-9.39941 0 -18.2998 3.7002 -24.8994 10.2998l-92.9004 92.9004
c-6.59961 6.7002 -10.2998 15.5 -10.2998 24.8994c0 9.40039 3.7002 18.2002 10.2998 24.9004l268.8 268.8v0v0l79.9004 79.9004c6.7002 6.59961 15.5 10.2998 24.9004 10.2998c9.39941 0 18.1992 -3.7002 24.8994 -10.2998zM494.3 302.5
c4.60059 4.59961 7.2002 10.7998 7 17.5c0 6.5 -2.5 12.7002 -7.2002 17.4004l-92.8994 92.8994c-4.60059 4.60059 -10.7998 7.2002 -17.4004 7.2002c-6.5 0 -12.7002 -2.5 -17.3994 -7.2002l-29 -29l53 -53c2 -2 2 -5.39941 0 -7.39941c-1 -1 -2.40039 -1.5 -3.7002 -1.5
s-2.7002 0.5 -3.7002 1.5l-53 53l-39.7998 -40l76 -76c2 -2 2 -5.40039 0 -7.40039c-1 -1 -2.40039 -1.5 -3.7002 -1.5s-2.7002 0.5 -3.7002 1.5l-76 76l-39.7998 -39.7998l53 -53c2 -2 2 -5.40039 0 -7.40039c-1 -1 -2.40039 -1.5 -3.7002 -1.5s-2.7002 0.5 -3.7002 1.5
l-53 53l-39.7998 -39.7998l76 -76c2 -2 2 -5.40039 0 -7.40039c-1 -1 -2.39941 -1.5 -3.7002 -1.5c-1.2998 0 -2.69922 0.5 -3.69922 1.5l-76 76l-39.8008 -39.7998l53 -53c2 -2 2 -5.39941 0 -7.39941c-1 -1 -2.39941 -1.5 -3.69922 -1.5
c-1.30078 0 -2.7002 0.5 -3.7002 1.5l-53 53l-39.7998 -39.8008l76 -76c2 -2 2 -5.39941 0 -7.39941c-1 -1 -2.40039 -1.5 -3.7002 -1.5s-2.7002 0.5 -3.7002 1.5l-76 76l-39.7998 -39.7998l53 -53c2 -2 2 -5.40039 0 -7.40039c-1 -1 -2.40039 -1.5 -3.7002 -1.5
s-2.7002 0.5 -3.7002 1.5l-53 53l-29 -29c-9.59961 -9.59961 -9.59961 -25.2998 0 -34.9004l92.9004 -92.8994c4.59961 -4.60059 10.7998 -7.2002 17.3994 -7.2002c6.5 0 12.7002 2.5 17.4004 7.2002z" />
  </font>
</defs>
</svg>
